<?xml version="1.0" encoding="utf-8"?>
<!-- Generator: Adobe Illustrator 22.1.0, SVG Export Plug-In . SVG Version: 6.00 Build 0)  -->
<svg version="1.1" id="Artwork" xmlns="http://www.w3.org/2000/svg" xmlns:xlink="http://www.w3.org/1999/xlink" x="0px" y="0px"
	 viewBox="0 0 128 128" style="enable-background:new 0 0 128 128;" xml:space="preserve">
<style type="text/css">
	.st0{fill:#E4E4E4;}
	.st1{opacity:0.4;fill:#CCA9E0;}
	.st2{fill:#EBDDF3;}
	.st3{fill:#BC9ECA;}
	.st4{fill:#E9E0EE;}
	.st5{fill:#F7A33C;}
	.st6{fill:#9767AC;}
	.st7{fill:none;stroke:#BCBEC0;stroke-width:1.5;stroke-linecap:round;stroke-linejoin:round;stroke-miterlimit:10;}
	.st8{fill:none;}
	.st9{fill:#ACACAC;}
	.st10{fill:#979797;}
	.st11{fill:#737373;}
	.st12{fill:#F2F2F2;}
	.st13{fill:#6A6A6A;}
	.st14{fill:#AFAFAF;}
	.st15{fill:#739BE0;}
	.st16{fill:#5377B7;}
	.st17{fill:#F1F2F2;}
	.st18{fill:#7F598D;}
	.st19{fill:#ABAFB8;}
	.st20{fill:#A5A5A5;}
	.st21{fill:#505050;}
	.st22{fill:#A0A0A0;}
	.st23{fill:#3F3F3F;}
	.st24{fill:#F46E8E;}
	.st25{fill:#F7868E;}
	.st26{clip-path:url(#SVGID_2_);fill:#5377B7;}
	.st27{fill:#90B3FE;}
	.st28{fill:none;stroke:#739BE0;stroke-width:4.2027;stroke-linecap:round;stroke-miterlimit:10;}
	.st29{fill:none;stroke:#FFFFFF;stroke-width:4.2027;stroke-linecap:round;stroke-miterlimit:10;}
	.st30{fill:#5B5E77;}
	.st31{fill:#44465A;}
	.st32{fill:#9A7078;}
	.st33{fill:#007739;}
	.st34{fill:#7EC38F;}
	.st35{fill:#A6A3A1;}
	.st36{fill:#575555;}
	.st37{fill:#8B8887;}
	.st38{fill:#F6F5F6;}
	.st39{fill:#CCC9C8;}
	.st40{fill:#895C50;}
	.st41{fill:#6E443A;}
	.st42{fill:#9F7278;}
	.st43{fill:#6B4239;}
	.st44{fill:#979DAA;}
	.st45{fill:#492B26;}
	.st46{fill:#4D2F29;}
	.st47{fill:#3A211C;}
	.st48{fill:#9E9C9A;}
	.st49{fill:#BDAFC2;}
	.st50{fill:#BA7B6A;}
	.st51{fill:#9A5B4F;}
	.st52{fill:#C49098;}
	.st53{fill:#C0BFBD;}
	.st54{fill:#4D3029;}
	.st55{fill:#3B211C;}
	.st56{fill:#9C9A98;}
	.st57{fill:#A45E27;}
	.st58{fill:#4B2D2A;}
	.st59{fill:#C35D2E;}
	.st60{fill:#35B6A8;}
	.st61{fill:#C46443;}
	.st62{fill:#F7B736;}
	.st63{fill:#00635B;}
	.st64{fill:#F4977B;}
	.st65{fill:#824943;}
	.st66{fill:none;stroke:#D66384;stroke-width:3;stroke-linecap:round;stroke-miterlimit:10;}
	.st67{fill:#AD8286;}
	.st68{fill:#CCAAA2;}
	.st69{fill:#8E7255;}
	.st70{clip-path:url(#SVGID_4_);}
	.st71{clip-path:url(#SVGID_6_);fill:#EFE6E9;}
	.st72{fill:#FFCC99;}
	.st73{clip-path:url(#SVGID_8_);}
	.st74{clip-path:url(#SVGID_10_);fill:#E5B554;}
	.st75{clip-path:url(#SVGID_10_);fill:#F9D093;}
	.st76{fill:#F9F2F5;}
	.st77{fill:#B7B2B4;}
	.st78{fill:#FFC7B3;}
	.st79{fill:#C67D63;}
	.st80{fill:#E2A388;}
	.st81{fill:#77DBD2;}
	.st82{fill:#54A1B2;}
	.st83{fill:#4A8DA5;}
	.st84{fill:#E3E5D1;}
	.st85{fill:#989AC0;}
	.st86{fill:#C1B7AA;}
	.st87{fill:#B0F4EA;}
	.st88{fill:#AF92C4;}
	.st89{fill:#81C7EE;}
	.st90{fill:#99993D;}
	.st91{fill:#B1B2B1;}
	.st92{fill:#705C51;}
	.st93{fill:#91764E;}
	.st94{fill:#F4E290;}
	.st95{fill:#5892C6;}
	.st96{fill:#47A099;}
	.st97{fill:#734182;}
	.st98{fill:#CCCCCC;}
	.st99{fill:#EAEAEA;}
	.st100{fill:none;stroke:#734182;stroke-width:5.0483;stroke-linecap:round;stroke-linejoin:round;}
	.st101{fill:none;stroke:#734182;stroke-width:12;stroke-linecap:round;stroke-linejoin:round;}
	.st102{fill:none;stroke:#C9A3CC;stroke-width:12;stroke-linecap:round;stroke-linejoin:round;}
	.st103{fill:none;stroke:#FFFFFF;stroke-width:3.9595;stroke-linecap:round;stroke-linejoin:round;}
	.st104{fill:#C1C1C1;}
	.st105{fill:#9E9E9E;}
	.st106{fill:#6390D1;}
	.st107{fill:#B9B8B2;}
	.st108{fill:#80DCD2;}
	.st109{fill:none;stroke:#9E5479;stroke-width:4;stroke-linecap:round;stroke-miterlimit:10;}
	.st110{fill:#404351;}
	.st111{fill:none;stroke:#734182;stroke-width:3;stroke-linecap:round;stroke-linejoin:round;stroke-miterlimit:10;}
	.st112{fill:none;stroke:#F4AEA5;stroke-width:2;stroke-linecap:round;stroke-linejoin:round;}
	.st113{fill:none;stroke:#808285;stroke-width:1.5;stroke-linecap:round;stroke-linejoin:round;stroke-miterlimit:10;}
	.st114{fill:#BEBEBE;}
	.st115{fill:#FFFFFF;stroke:#BCBEC0;stroke-width:1.5;stroke-linecap:round;stroke-linejoin:round;stroke-miterlimit:10;}
	.st116{fill:#FFFFFF;}
	.st117{fill:#8D8D8D;}
	.st118{fill:none;stroke:#606060;stroke-miterlimit:10;}
	.st119{fill:#DEDEDE;}
	.st120{fill:#BCBCBC;}
	.st121{fill:#999999;}
	.st122{fill:#B9B9B9;}
	.st123{fill:#E2E2E2;}
	.st124{fill:#8C8C8C;}
	.st125{fill:#606060;}
	.st126{fill:#373737;}
	.st127{fill:#AAAAAA;}
	.st128{fill:#BEBEBE;stroke:#BEBEBE;stroke-width:1.5;stroke-linecap:round;stroke-linejoin:round;stroke-miterlimit:10;}
	.st129{fill:#A3A3A3;}
	.st130{fill:none;stroke:#8D8D8D;stroke-width:2;stroke-linecap:round;stroke-miterlimit:10;}
	.st131{fill:#8D8D8E;}
	.st132{fill:none;stroke:#5B5E77;stroke-miterlimit:10;}
	.st133{fill:#2C3466;}
	.st134{fill:none;stroke:#8D8D8E;stroke-width:2;stroke-linecap:round;stroke-miterlimit:10;}
	.st135{fill:#939393;}
	.st136{fill:#E6E6E6;}
	.st137{fill:#5C5C5C;}
	.st138{fill:#7D7D7D;}
	.st139{fill:#818181;}
	.st140{fill:#C3C3C3;}
	.st141{fill:#71BCB8;}
	.st142{fill:#898989;}
	.st143{fill:#5F5F5F;}
	.st144{fill:#B5B5B5;}
	.st145{fill:#585858;}
	.st146{fill:#676767;}
	.st147{fill:#6F6F6F;}
	.st148{fill:#ECECEC;}
	.st149{fill:#C5C5C5;}
	.st150{fill:none;stroke:#575757;stroke-width:2;stroke-miterlimit:10;}
	.st151{opacity:0.41;}
	.st152{fill:none;stroke:#575757;stroke-width:2;stroke-linecap:round;stroke-miterlimit:10;stroke-dasharray:4.0229,6.0344;}
	.st153{fill:#B1B1B1;}
	.st154{fill:#F2EFCC;}
	.st155{fill:#C5C4C6;}
	.st156{fill:none;stroke:#734182;stroke-width:2;stroke-miterlimit:10;}
	.st157{fill:none;stroke:#734182;stroke-width:2;stroke-linecap:round;stroke-miterlimit:10;stroke-dasharray:4.0229,6.0344;}
	.st158{fill:none;stroke:#BFBFBF;stroke-linecap:round;stroke-linejoin:round;stroke-miterlimit:10;}
	.st159{fill:#575757;}
	.st160{fill:#BCBEC0;}
	.st161{fill:#58B7A9;}
	.st162{fill:#BCBEC0;stroke:#BCBEC0;stroke-width:1.5;stroke-linecap:round;stroke-linejoin:round;stroke-miterlimit:10;}
	.st163{fill:#AAA197;}
	.st164{fill:#6D6D6D;}
	.st165{fill:#717171;}
	.st166{fill:#9A9A9A;}
	.st167{fill:#BFBFBF;}
	.st168{fill:#CECECE;}
	.st169{fill:#595959;}
	.st170{fill:#4D827B;}
	.st171{fill:#8497A3;}
	.st172{fill:#3D665F;}
	.st173{fill:#565656;}
	.st174{fill:none;stroke:#6D6D6D;stroke-miterlimit:10;}
	.st175{fill:none;stroke:#C0BFBD;stroke-linecap:round;stroke-linejoin:round;stroke-miterlimit:10;}
	.st176{fill:none;stroke:#9A5B4F;stroke-miterlimit:10;}
	.st177{fill:#DADADA;}
	.st178{fill:#3A3A3A;}
	.st179{fill:none;stroke:#B1B1B1;stroke-linejoin:round;stroke-miterlimit:10;}
	.st180{fill:#484848;}
	.st181{fill:#5A5A5A;}
	.st182{fill:#8E8E8E;}
	.st183{fill:#4B4B4B;}
	.st184{fill:#6B6B6B;}
	.st185{fill:#424242;}
	.st186{fill:#494949;}
	.st187{fill:#8F8F8F;}
	.st188{fill:#5B5B5B;}
	.st189{fill:#6E6E6E;}
	.st190{fill:#909090;}
	.st191{fill:#4C4B4B;}
	.st192{fill:#5B5F77;}
	.st193{fill:#AF503E;}
	.st194{fill:#603634;}
	.st195{fill:#D67056;}
	.st196{fill:#BAB0C1;}
	.st197{fill:#814A45;}
	.st198{fill:#25A592;}
	.st199{fill:#404A5C;}
	.st200{fill:#7590CD;}
	.st201{fill:#00685E;}
	.st202{fill:#4F5C72;}
	.st203{fill:#637375;}
	.st204{fill:#3AB7AA;}
	.st205{fill:#C5DDFF;}
	.st206{fill:none;stroke:#90B3FE;stroke-linejoin:round;stroke-miterlimit:10;}
	.st207{fill:#5C3429;}
	.st208{fill:#E9E5E4;}
	.st209{fill:#74468C;}
	.st210{fill:#D8613D;}
	.st211{fill:#D3B5E5;}
	.st212{fill:#CC753A;}
	.st213{fill:#8E5128;}
	.st214{fill:#FF997D;}
	.st215{fill:#AF361E;}
	.st216{fill:#9B524B;}
	.st217{fill:#A5602D;}
	.st218{fill:#007F70;}
	.st219{fill:none;stroke:#F7A33C;stroke-width:3;stroke-linecap:round;stroke-linejoin:round;stroke-miterlimit:10;}
	.st220{fill:#552F2C;}
	.st221{fill:#544B51;}
	.st222{fill:#F9B843;}
	.st223{fill:#006057;}
	.st224{fill:#9B5757;}
	.st225{fill:#C36749;}
	.st226{fill:#C26D66;}
	.st227{fill:#A54E34;}
	.st228{fill:#E897D3;}
	.st229{fill:#472826;}
</style>
<g>
</g>
<circle class="st2" cx="64" cy="64" r="48"/>
<line class="st8" x1="9.8" y1="32.1" x2="64.1" y2="55.9"/>
<g>
	<polyline class="st175" points="96.6,32.3 64.1,45 64.1,68.9 	"/>
	<g>
		<g id="XMLID_86_">
			<g>
				<path class="st97" d="M99.4,21.2C102.6,25,98.5,30.4,87,36c4-2.5,5.7-5.4,1.3-5.7c-4.6-0.3-9.1,2.3-15.8,4.5
					c-5.6-14.1-19,0-19,0S43,30.3,38.4,30.3c-7.1,0.1,2.2,5.4,2.6,5.7c-35-12.9,2.4-27.2,13.5-11.3c0,0,2.3-16.1,14.3-15.3
					c6.7,0.5,8.1,12.1,5.7,15.5C74.6,24.9,94.7,15.5,99.4,21.2z"/>
				<path class="st3" d="M87,36c11.5-5.6,15.6-11,12.4-14.8c-4.8-5.7-24.8,3.7-24.8,3.7c2.4-3.4,1-15.1-5.7-15.5
					c-12-0.8-14.3,15.3-14.3,15.3C43.5,8.8,6.1,23.1,41.1,36c0,0,0,0,0,0c0,0-32-5.4-20.4-19.5C29.8,7.3,45.8,1.2,64.1,1.2
					S98.3,8,107.4,17.2C119,31.2,87,36,87,36z"/>
			</g>
		</g>
	</g>
	<path class="st8" d="M87.5,34.3c0-4.9-10.2-10.6-23.4-10.6c-15.9,0-27.5,8.3-22.1,13.5"/>
	<path class="st8" d="M109.5,34.1c0-13.8-18.6-25.7-41.4-25.7s-41.4,11.2-41.4,25"/>
	<polyline class="st175" points="54.6,24.7 64.1,45 74.6,24.9 	"/>
	<polyline class="st175" points="41.1,36 64.1,45 53.6,34.9 	"/>
	<line class="st175" x1="64.1" y1="45" x2="72.5" y2="34.9"/>
</g>
<g>
	<g id="XMLID_85_">
		<g>
			<path class="st41" d="M76.5,120c-1.4-2.2-3.1-5.4-3.8-12.2c-0.6-5.9,0.5-16.8,4.1-19.5l8-4.1c0.1,1.9-0.5,4-0.9,5.9
				c-0.3,1.4-0.9,2.9-1.5,4.2c-1.2,2.7-3.1,4.9-4.5,7.4c-1.7,3.1-2.2,5.9-2.1,9.4c0.1,5.1,3.1,8.7,5.9,10.8c0.8,0.6,0.8,2-0.2,2.4
				c-1.4,0.7-3.7,0-4.9-0.7c-0.8-0.5-1.7-1.2-1.6-2.3C75.2,120.8,75.9,120.4,76.5,120z"/>
		</g>
	</g>
	<g id="XMLID_84_">
		<g>
			<path class="st36" d="M67.7,69.5L67.7,69.5c-0.4,0.3-0.9,0.6-1.2,0.8c-0.7,0.5-1.1,0.8-1.1,0.8l-4.5-0.1
				c-0.4-0.1-0.8-0.3-1.1-0.4c0.5-1.4,1-2.4,1.4-2.5c0.7-0.2,1,0.6,1.6,0.6l2.1,0C64.9,68.9,66.9,66.6,67.7,69.5z"/>
			<path class="st36" d="M66.7,94.3L66.7,94.3c-1.5-17.1-0.3-23.9-0.3-23.9c-0.7,0.5-1.1,0.8-1.1,0.8l-4.5-0.1
				c-0.4-0.1-0.8-0.3-1.1-0.4c-1.6,4.6-2.9,14.6-1.2,21.6c0.2,0.8,0.5,1.6,0.8,2.4c1,2.5,8.7,3.1,9.7,1.6c0.4-0.5,1-3,1-3
				C69.6,93.4,67.2,94.2,66.7,94.3z"/>
			<path class="st51" d="M48.1,95.1c0.8-1.6,1.6-3.3,2.3-5.3c0.4-1.1,0.7-2.3,0.9-3.5c1.9,0.9,3.2,2.1,4.4,3.3c1,1,1.9,1.9,2.9,2.7
				c-1.7-7-0.4-17,1.2-21.6c-3.8-1.3-17.4-4.5-22.9-2c-3.5,1.6-5.4,5.8-6.1,9.1c0.4-1.5,3.7-4.3,5-1.2c0.2,0.5-0.6,1.6,0.3,4.7
				c1.5,5.2,7.4,12.2,5.3,16.2c-1.1,2.1-2.4,4.2-3.6,6.2L37,115c-0.1,0.7,0.2,1.4,0.6,2l4.9,6.4h2.9c0,0-4.7-6.3-4.6-8.8
				C41.1,102.6,43.6,103.7,48.1,95.1z"/>
			<path class="st41" d="M44.2,106.2c1-2.3,5.9-3.5,3.9-11.1c0.8-1.6,1.6-3.3,2.3-5.3c0.4-1.1,0.7-2.3,0.9-3.5
				c1.9,0.9,3.2,2.1,4.4,3.3c-1.3,4.4-2.5,9.7-3.6,11.1c-1.3,1.6-3.8,5.2-3.9,7.8c-0.1,2.5,0.9,9.2,4.8,10.3c4.2,1.2,2.6,2.6,1.9,3
				c-1.6,1-8.1-0.1-6.5-2.4C48.9,118.4,47.1,115.6,44.2,106.2z"/>
		</g>
	</g>
	<g id="XMLID_83_">
		<g>
			<path class="st51" d="M34.1,88c2.2,3.3,4.5,5.7,2.6,7.7c-1.6,1.6-5.8,1.5-7.7-0.9C29,94.8,37.1,95.3,34.1,88z"/>
		</g>
		<g>
			<path class="st176" d="M34.1,88c2.2,3.3,4.5,5.7,2.6,7.7c-1.6,1.6-5.8,1.5-7.7-0.9C29,94.8,37.1,95.3,34.1,88z"/>
			<path class="st176" d="M33.5,73.1c-4.6,6.3-2,11.2,0.6,15"/>
		</g>
	</g>
	<path class="st51" d="M31.5,79.8c0,0,0.7-5.1,3.4-4.4c2.8,0.7,3.6-2,3.6-2l-4.3-1c0,0-1.9,1.8-2,2.1c-0.1,0.3-1.2,4.8-1.2,4.8
		L31.5,79.8z"/>
	<g id="XMLID_82_">
		<g>
			<path class="st52" d="M101.1,72.1c-0.4-0.2-0.8-0.5-1.2-0.7C98,70.2,98.1,68,99,66.1c0.6-1.4,1.4-2.5,2.9-3.1c1-0.4,2-0.4,3-0.2
				c0.1,0,0.2,0,0.3,0c0,0,0,0,0,0c0.7,0.5,1.5,1.2,2.1,1.9c-0.1,0-0.2,0-0.3,0c-2.1,0-4.3,2.4-2.3,3.8c0.5,0.4,3.1,0.3,2.7-0.9
				c-0.1-0.4-2.1-0.9-0.8-1.7c0.4-0.3,0.9-0.5,1.3-0.5c0.9,1.2,1.4,2.6,1.3,4.1c-0.4,5.7-5.8,4.6-6.5,3.8
				C102.4,72.9,101.7,72.4,101.1,72.1L101.1,72.1z"/>
			<path class="st41" d="M107.4,64.7c0.2,0.2,0.4,0.5,0.6,0.7c-0.5,0-0.9,0.2-1.3,0.5c-1.3,0.8,0.7,1.3,0.8,1.7
				c0.4,1.1-2.2,1.2-2.7,0.9c-2-1.4,0.2-3.8,2.3-3.8C107.2,64.7,107.3,64.7,107.4,64.7z"/>
			<path class="st51" d="M105.2,62.8c-0.1,0-0.2,0-0.3,0c-1-0.1-2-0.1-3,0.2c-1.5,0.6-2.3,1.7-2.9,3.1c-0.9,1.9-1,4.1,0.9,5.3
				c0.4,0.3,0.8,0.5,1.2,0.7l0,0c-0.5-0.2-0.8-0.4-0.8-0.4s-3.7,0.5-8-1.5c-4.7,19-7.5,18.4-14.1,20.9c-4,1.5-7.4,2.7-11.5,3.2v0
				c-1.5-17.1-0.3-23.9-0.3-23.9c2.8-1.8,7.8-4.8,11.1-4.8c0,0,1.9-1.3,5.1-5.5c1-1.4,2.2-3.1,3.5-5.3c0,0,0,0,0,0
				c0.2-0.5,4-7.2,4.1-10c0.1-2.9,0.1-6.3,0.1-6.3s3.9,4.1,3.9,7.9c0,2-2.1,4.2-4.1,5.9c1.7-0.4,2.8-0.7,5.3-0.5
				c6.1,1.5,3.9,7.6,7.8,9.8C103.9,61.9,104.6,62.3,105.2,62.8z"/>
		</g>
	</g>
	<path class="st41" d="M96.4,60.7c-1.4,0.2-2.9-0.2-4.1-0.7c0.1-0.7,1.2-1.5,1.9-1.7C96.3,57.9,96.3,60.6,96.4,60.7z"/>
	<path class="st51" d="M69.8,88.7c-4,16-3.4,13.1-3.1,15.7c0.3,2.6-0.4,7.7-2,12.1c-0.2,0.6-0.1,1.3,0.2,1.8c0.8,1.1,1.9,3.4,1,5.5
		c-1.3,3.5,6.5,3.9,6.6,2.8c0,0,0,0,0,0c0.1-0.5-0.1-1-0.5-1.4c-1.2-1.2-4.9-3.9-3.7-10.9c1.3-7.7,2.7-8.1,6.2-12.3
		s6.8-15.8,6.8-15.8L69.8,88.7z"/>
	<path class="st51" d="M42.2,118.7c1.5,2.4,4.2,4.2,5.1,4.8s-0.4,2.6-3.7,2.1c-3.3-0.4-4.4-1.6-4.4-2.4c-0.1-0.9,3.4-1.7,3.4-1.7
		L42.2,118.7z"/>
</g>
<path class="st51" d="M95.1,52.8c3.4-0.5,7-2.9,7-4.9c0-4.6-3.1-7.1-3.1-7.1s1,8.3-4.9,11.7"/>
</svg>
