<svg xmlns="http://www.w3.org/2000/svg" viewBox="0 0 116.96 115.81"><defs><style>.cls-1{fill:#f6cd66;}.cls-2{fill:#f9cf56;}.cls-3{fill:#27346d;}.cls-4{fill:none;stroke:#27346d;stroke-linecap:round;stroke-miterlimit:10;stroke-width:10px;}</style></defs><title>Asset 1</title><g id="Layer_2" data-name="Layer 2"><g id="Layer_1-2" data-name="Layer 1"><path class="cls-1" d="M90.13,72.85c-.12,1.1-.28,2.21-.5,3.31L74.41,60.82a12.79,12.79,0,0,0-18.08-.07,12.77,12.77,0,0,0,.07-18.08L40,26.11A42.7,42.7,0,0,1,90.13,72.85Z"/><path class="cls-2" d="M90.13,72.85v3.8l-.49-.49C89.85,75.06,90,74,90.13,72.85Z"/><path class="cls-3" d="M64.5,74.33a8.55,8.55,0,1,1-12.1,0A8.55,8.55,0,0,1,64.5,74.33Z"/><path class="cls-3" d="M46.06,72.61l0,6.28A1.69,1.69,0,0,1,45,80.46l-11.1,4.2A1.25,1.25,0,0,1,32.25,83L36.53,72a1.69,1.69,0,0,1,1.58-1.08l6.28,0A1.67,1.67,0,0,1,46.06,72.61Z"/><circle class="cls-3" cx="36.74" cy="58.49" r="8.55"/><path class="cls-4" d="M89.63,76.16a42.74,42.74,0,1,1,.5-3.31C90,74,89.85,75.06,89.63,76.16Z"/><path class="cls-4" d="M42.3,5,39.65,7.63a12.79,12.79,0,0,0-.07,18.08l.4.4L56.4,42.67a12.77,12.77,0,0,1-.07,18.08"/><path class="cls-4" d="M112,75.22l-2.65,2.62a12.78,12.78,0,0,1-18.08-.07l-1.11-1.12-.49-.49L74.41,60.82a12.79,12.79,0,0,0-18.08-.07"/></g></g></svg>