<?xml version="1.0" encoding="utf-8"?>
<!-- Generator: Adobe Illustrator 23.0.0, SVG Export Plug-In . SVG Version: 6.00 Build 0)  -->
<svg version="1.1" id="Layer_1" xmlns="http://www.w3.org/2000/svg" xmlns:xlink="http://www.w3.org/1999/xlink" x="0px" y="0px"
	 viewBox="0 0 117 115.8" style="enable-background:new 0 0 117 115.8;" xml:space="preserve">
<style type="text/css">
	.st0{fill:#FFFFFF;}
	.st1{fill:#F6CD66;}
	.st2{fill:#F9CF56;}
	.st3{fill:#27346D;}
	.st4{fill:none;stroke:#27346D;stroke-width:10;stroke-linecap:round;stroke-miterlimit:10;}
</style>
<title>Asset 1</title>
<circle class="st0" cx="48" cy="68.3" r="41.1"/>
<g>
	<g id="Layer_1-2">
		<path class="st1" d="M90.1,72.8c-0.1,1.1-0.3,2.2-0.5,3.3L74.4,60.8c-5-5-13.1-5-18.1-0.1c5-5,5.1-13,0.1-18.1c0,0,0,0,0,0
			L40,26.1c23.2-4.2,45.4,11.1,49.7,34.3C90.4,64.5,90.6,68.7,90.1,72.8z"/>
		<path class="st2" d="M90.1,72.8v3.8l-0.5-0.5C89.8,75.1,90,74,90.1,72.8z"/>
		<path class="st3" d="M64.5,74.3c3.3,3.3,3.3,8.8,0,12.1c-3.3,3.3-8.8,3.3-12.1,0c-3.3-3.3-3.3-8.7,0-12.1
			C55.7,71,61.2,71,64.5,74.3C64.5,74.3,64.5,74.3,64.5,74.3z"/>
		<path class="st3" d="M46.1,72.6v6.3c0,0.7-0.4,1.3-1.1,1.6l-11.1,4.2c-0.6,0.3-1.4,0-1.7-0.6c-0.1-0.3-0.1-0.7,0-1l4.3-11
			c0.3-0.7,0.9-1.1,1.6-1.1h6.3C45.3,70.9,46.1,71.7,46.1,72.6C46.1,72.6,46.1,72.6,46.1,72.6z"/>
		<circle class="st3" cx="36.7" cy="58.5" r="8.5"/>
		<path class="st4" d="M89.6,76.2c-4.4,23.2-26.8,38.4-50,33.9S1.2,83.3,5.7,60.1s26.8-38.4,50-33.9c21.9,4.2,36.9,24.5,34.4,46.7
			C90,74,89.8,75.1,89.6,76.2z"/>
		<path class="st4" d="M42.3,5l-2.6,2.6c-5,5-5,13.1-0.1,18.1l0.4,0.4l16.4,16.6c5,5,5,13.1,0,18.1c0,0,0,0,0,0"/>
		<path class="st4" d="M112,75.2l-2.7,2.6c-5,5-13.1,4.9-18.1-0.1c0,0,0,0,0,0l-1.1-1.1l-0.5-0.5L74.4,60.8c-5-5-13.1-5-18.1-0.1"/>
	</g>
</g>
</svg>
