<?xml version="1.0" encoding="utf-8"?>
<!-- Generator: Adobe Illustrator 22.1.0, SVG Export Plug-In . SVG Version: 6.00 Build 0)  -->
<svg version="1.1" id="Layer_1" xmlns="http://www.w3.org/2000/svg" xmlns:xlink="http://www.w3.org/1999/xlink" x="0px" y="0px"
	 viewBox="0 0 865 409.4" style="enable-background:new 0 0 865 409.4;" xml:space="preserve">
<style type="text/css">
	.st0{fill:none;}
	.st1{fill:#527CCA;}
	.st2{fill:#C3C3C3;}
	.st3{fill:#EBEBEB;}
	.st4{fill:#527CCA;stroke:#527CCA;stroke-miterlimit:10;}
	.st5{opacity:0.6;fill:#5F91CD;enable-background:new    ;}
	.st6{fill:#5F91CD;}
	.st7{fill:#FFFFFF;}
</style>
<g>
	<g>
		<path class="st0" d="M695.6,169.2c-0.3,0.6-0.6,1.2-0.9,1.8c0.9-1.5,1.5-2.8,1.7-3C696.1,168.4,695.9,168.8,695.6,169.2z"/>
		<path class="st0" d="M732,98.2c-4-2.7-7.9-5.7-12.1-8.2c-6.3-3.7-6.3-3.6-10,2.6c-3.8,6.5-3.8,6.4,2.3,10.4
			c2.3,1.5,4.2,2.6,5.3-1.3c0.4-1.5,1.6-2.8,2.5-4.2c0.6-0.9,1.4-1.6,2.5-0.9c1,0.7,1,1.7,0.4,2.7c-1,1.5-2.1,2.8-3,4.3
			c-0.5,0.9-2.5,1.8-0.7,3c1.6,1.1,3.1,0.5,3.9-1.4c0.7-1.7,1.5-3.4,2.4-5.1c0.6-1.1,1.6-1.8,2.8-1.1c1.3,0.7,1,1.9,0.3,2.9
			c-1.1,1.7-2.2,3.3-3.3,5c-1.3,1.9-0.3,3.9,1.3,3.6c3.3-0.6,3.7-4.4,5.4-6.8c0.9-1.3,2.4-2.7,1.3-4.7C733,98.8,732.4,98.5,732,98.2
			z"/>
		<path class="st0" d="M723.9,113.3c-5.9-2.6-10.9-6.5-16.6-9.5c-1.8-0.9-3.1-1-4.4,0.9c-8.6,12.5-17.2,25.1-24.8,38.2
			c-3.6,6.2-7.1,12.6-11,18.7c-1.3,2.1-2.3,3.9-1.9,6.4c0.3,2,0,4,0.5,5.9c0.5,2.1-0.3,5,2.7,6l0,0c1.5,0,2.5,1.1,3.8,1.3
			c1.8,0.3,3.4,2,5.3,1.1c2.8-1.4,5.5-2.9,8.2-4.5c2-1.2,1.9-2.4-0.2-3.4c-4.5-2.4-8.7-5.5-13.7-6.8c-0.9-0.2-2.3-0.3-2.1-1.9
			c1.3-0.3,2.3,0.2,3.4,0.6c4.4,1.8,8.8,3.6,13.1,5.5c2.4,1.1,4.2,1.1,5.3-1.7c0.4-1.6,1.1-3,2-4.4c6.2-9.2,12.5-18.3,18.5-27.7
			c4.3-6.7,8.1-13.8,12-20.7C724.7,116.2,726.2,114.3,723.9,113.3z"/>
		<path class="st0" d="M732,98.2c-4-2.7-7.9-5.7-12.1-8.2c-6.3-3.7-6.3-3.6-10,2.6c-3.8,6.5-3.8,6.4,2.3,10.4
			c2.3,1.5,4.2,2.6,5.3-1.3c0.4-1.5,1.6-2.8,2.5-4.2c0.6-0.9,1.4-1.6,2.5-0.9c1,0.7,1,1.7,0.4,2.7c-1,1.5-2.1,2.8-3,4.3
			c-0.5,0.9-2.5,1.8-0.7,3c1.6,1.1,3.1,0.5,3.9-1.4c0.7-1.7,1.5-3.4,2.4-5.1c0.6-1.1,1.6-1.8,2.8-1.1c1.3,0.7,1,1.9,0.3,2.9
			c-1.1,1.7-2.2,3.3-3.3,5c-1.3,1.9-0.3,3.9,1.3,3.6c3.3-0.6,3.7-4.4,5.4-6.8c0.9-1.3,2.4-2.7,1.3-4.7C733,98.8,732.4,98.5,732,98.2
			z"/>
		<path class="st1" d="M741.7,82.9c-6.1-5.2-11.8-11.6-21.2-8.6c-1.5,0.4-2,1.4-1.5,2.7c0.5,1.3,1.8,1,2.9,0.7l0,0
			c7.3-1,12.2,3.5,17.2,7.6l0,0c0.2,0.8,0.5,1.7,0.6,2.5c0.5,2.9-0.8,5.5-2.6,7.4c-1.8,1.8-3.7-0.3-5.3-1.2c-4.2-2.4-8.4-5-12.5-7.5
			c-2-1.3-3.9-2.6-1.4-5.2c0.7-0.7,1-1.9,0-2.6c-0.9-0.7-1.9-0.2-2.7,0.5c-0.4,0.4-0.7,1-1,1.5c-5.7,7.6-10.2,16-15,24.1
			c-2.3,3.8-4.2,7.9-7.9,10.8c0,0,0,0,0,0c-8.4,14.9-18.7,28.6-27.1,43.5c-1.4,2.5-3.3,5.2-3,7.8c0.6,6.4,2,12.6,3.1,18.9h0
			c0.2,0.8,0.4,2,0.8,3c0.1,0.2,0.1,0.4,0.2,0.5c0,0,0,0,0,0.1c0.1,0.2,0.1,0.3,0.2,0.4c0,0,0,0,0,0.1c0.1,0.1,0.1,0.3,0.2,0.4
			c0,0,0,0,0,0c0.1,0.1,0.2,0.2,0.2,0.3c0.1,0,0.1,0.1,0.2,0.1c0.1,0,0.2,0,0.3,0.1c1.4,0.1,5.2-1.5,7.2-2.4
			c2.6-1.6,4.7-2.8,7.2-4.1h0c0,0,8.6-5.9,9.8-7.1c0.7-0.7,2.5-3.8,3.8-6.2c0.3-0.6,0.6-1.2,0.9-1.8c0.2-0.4,0.5-0.9,0.8-1.3
			c0,0,0,0,0,0h0c2.7-4.6,5.5-9.2,8.4-13.7c7-10.9,14.4-21.6,20.1-33.2c3.2-6.4,7.5-12.3,11.2-18.5c2.8-4.8,7.2-8.7,8.6-14.3
			C745,85.7,743.3,84.2,741.7,82.9z M724,117.4c-3.9,7-7.7,14-12,20.7c-5.9,9.4-12.3,18.5-18.5,27.7c-0.9,1.4-1.6,2.8-2,4.4
			c-1.1,2.8-2.9,2.8-5.3,1.7c-4.3-2-8.7-3.7-13.1-5.5c-1-0.4-2.1-0.9-3.4-0.6c-0.2,1.6,1.2,1.7,2.1,1.9c5,1.3,9.2,4.5,13.7,6.8
			c2.1,1.1,2.2,2.3,0.2,3.4c-2.7,1.6-5.4,3.1-8.2,4.5c-0.9,0.4-1.7,0.3-2.5,0c0,0,0,0,0,0c-2.2-0.5-6.9-2.5-6.9-2.5l0,0
			c-2.8-1.1-2-3.9-2.5-6c-0.5-1.9-0.2-4-0.5-5.9c-0.3-2.5,0.6-4.3,1.9-6.4c3.9-6.1,7.3-12.5,11-18.7c7.7-13.1,16.3-25.6,24.8-38.2
			c1.3-1.9,2.6-1.8,4.4-0.9c5.6,3,10.7,6.9,16.6,9.5C726.2,114.3,724.7,116.2,724,117.4z M731.9,103.9c-1.7,2.4-2.1,6.1-5.4,6.8
			c-1.6,0.3-2.6-1.7-1.3-3.6c1.1-1.7,2.2-3.3,3.3-5c0.7-1,0.9-2.2-0.3-2.9c-1.2-0.7-2.2,0.1-2.8,1.1c-0.9,1.6-1.7,3.3-2.4,5.1
			c-0.8,1.9-2.2,2.5-3.9,1.4c-1.8-1.2,0.1-2.1,0.7-3c0.9-1.5,2-2.8,3-4.3c0.6-0.9,0.6-2-0.4-2.7c-1.1-0.7-1.9,0-2.5,0.9
			c-0.9,1.4-2,2.7-2.5,4.2c-1.1,3.9-3,2.8-5.3,1.3c-6.1-4-6.1-4-2.3-10.4c3.7-6.2,3.8-6.3,10-2.6c4.2,2.5,8.1,5.4,12.1,8.2
			c0.4,0.3,0.9,0.5,1.2,0.9C734.3,101.1,732.8,102.6,731.9,103.9z"/>
	</g>
	<path class="st2" d="M710.3,114.3c-1.5-1-2.5,0.5-3.3,1.6c-0.5,0.7-0.7,1.6-1.2,2.3c-6.1,10-10.4,21-17.4,30.5
		c-1.7,2.3-3.4,4.6-5,7c0.1,0-0.1,0,0,0c-0.9,1.5-1.6,3.1-2.4,4.7c-0.4,0.6-0.8,1.5-0.1,2c1,0.7,1.6-0.2,2.1-0.9
		c1.4-2.3,2.5-4.9,4.2-7c9.3-11.3,14.2-25.2,22.8-36.9C710.6,116.7,711.8,115.3,710.3,114.3z"/>
	<path class="st2" d="M682.3,150.3c6.7-10.9,13.4-21.8,20-32.8c0.6-0.9,1.9-2.3,0.4-3.2c-1.4-0.7-2.2,1-2.6,2
		c-3.7,8-9.6,14.5-13.6,22.3c-2,3.4-4,6.9-6,10.3c-0.5,0.8-1.5,1.8-0.4,2.6C681.1,152.3,681.8,151.1,682.3,150.3z"/>
	<path class="st2" d="M716,118.1c-1.3-0.6-1.8,1-2.3,1.9c-4.4,7.3-8,15-13.3,21.7c-1.1,2.4-2.3,4.7-3.4,7.1
		c-0.3,0.6-0.4,1.3,0.2,1.7c0.6,0.3,1.3,0,1.6-0.6c1.2-1.9,2.3-3.8,3.4-5.8c4.5-7.6,9.1-15.2,13.6-22.8
		C716.4,120.3,717.7,118.9,716,118.1z"/>
</g>
<g>
	<g>
		<polygon class="st2" points="614.8,60.2 614.8,60.2 614.8,60.1 		"/>
		<path class="st2" d="M614.8,60.2C614.8,60.2,614.8,60.2,614.8,60.2C614.8,60.2,614.8,60.1,614.8,60.2
			C614.8,60.1,614.8,60.2,614.8,60.2z"/>
		<path class="st2" d="M639.8,83.7c0.4,1.6,0.9,3.1,1.5,4.7C640.6,85.8,639.9,84,639.8,83.7z"/>
		<path class="st2" d="M641.3,88.3c-0.6-1.5-1.1-3.1-1.5-4.7c0,0,0,0,0,0l0,0c-0.4-1.3-0.7-2.6-0.9-4c0-0.1-0.3-1.7-0.8-4
			c-0.5-2.8-1-5.6-1.5-8.4c0-0.1-0.1-0.2-0.1-0.2c-0.8-4.2-1.7-8.6-2.3-11.6l0,0c0,0,0,0,0,0c-0.4-1.9-0.7-3.3-0.9-3.7c0,0,0,0,0,0
			c-0.2-0.6-0.4-1.2-0.6-1.8c-0.7-2.3-1.3-4.4-1.3-4.4l-2.8,0.7c-0.4,0-0.8,0.1-1.3,0.2c-1.7,0.4-3.3,0.8-4.9,1.3l-0.1,0l0,0
			c-8.8,2.3-17.5,4.9-26.4,6.6c-7.9,1.5-15.6,3.8-23.5,5.8c0.1,4.1,2.3,7.6,2.9,11.7c0.8,6,1.4,12,2.9,17.9c2.3,8.6,4.2,17.3,6.3,26
			c0.6,1.3,0.8,2.7,1,4.1c0.7,4.3,3,5.8,7.4,5c1.4-0.3,2.8-0.7,4.2-1.2c12.6-4.5,25.5-7.9,38.4-11.2c0,0,0,0,0,0
			c2.7-0.7,4.4-3.7,5.2-5.4c0.1-0.3,0.3-0.7,0.4-1c0,0,0,0,0,0l0,0c0.7-1.5,1.3-3.1,2.1-4.5c0,0,0,0,0,0
			C644.2,99.3,642.6,92.8,641.3,88.3z M620.4,112.7c-8.9,2.5-18,4.2-26.6,7.5c-3.2,1.3-4.3,0.1-5.4-3.1c-4.2-12.8-7.7-25.7-9.4-39.1
			c-0.4-3.3,0.3-5.1,3.6-6.1c9.6-3.1,19.1-6.5,28.6-9.8c1.3-0.5,2.8-0.5,3.6-1.9c0,0,0,0,0,0c0,0,0,0,0,0l0.1,0
			c-10,1.3-19.1,5.4-28.8,7.9c-1.4,0.4-2.8,0.9-4.1,1.3c-1.8,0.5-3.6,0.8-4.2-1.6c-0.6-2.2-0.5-4,2.3-5.1c5.5-2.2,11.4-3.3,17.1-4.7
			c8.8-2.1,17.6-4.3,26.4-6.4c0.1,0,0.3,0,0.4-0.1c1.2-0.3,2.3-0.6,3.2-0.4l1,0.6c0.3,0.4,0.6,1,0.8,1.9c0.5,3-2,2.7-3.7,3
			c-3.7,0.7-7.3,1.5-10.4,3.7c0,0,0,0,0,0.1c3.9,0.5,7.3-1.6,10.9-2.4c3.1-0.7,4.5,0,5.2,3.2c1.7,8.6,3.5,17.3,5.5,25.8
			c0.9,3.9,0.3,6.5-4.3,6.9c-1.5,0.1-3.1,0.8-4.5,1.5c-2.4,1.2-3.3,2.7-1.9,5.6C630.4,109.9,630.2,109.9,620.4,112.7z M638.9,100.2
			c-1.5,2.8-5.8,11.8-6.8,8.3c0,0-1.1-5-2.5-6.9c-1.4-1.9-0.4-2.8,1.2-3.4c1.7-0.7,7.2-2.9,8.3-2.5C640.3,96,640.5,97.3,638.9,100.2
			z"/>
		<path class="st2" d="M641,106.1c-0.1,0.3-0.3,0.7-0.4,1C640.8,106.5,641,106.1,641,106.1z"/>
	</g>
	<path class="st3" d="M623.4,72.9c-2.7,1.4-5.5,2.6-8.7,1.6c-2.8-0.8-4.9-0.2-7,1.9c-1.9,1.9-4,2.8-6.2-0.1
		c-1.8-2.3-4.2-1.8-6.1-0.3c-1.5,1.1-2.5,2.8-3.8,4.1c-1.3,1.4-2.2,3.2-0.5,4.5c1.9,1.4,3-0.1,3.8-1.9c1.3-2.5,3-3.9,5.7-1.4
		c2.6,2.4,5.3,2,7.7-0.3c1.9-1.9,3.9-3,6.3-2.2c5,0.3,8.2-0.8,10.5-3.4c0.8-0.9,1.8-1.9,1.1-3C625.3,71,624.3,72.4,623.4,72.9z"/>
	<path class="st3" d="M608.4,92.2c-1.2,0.4-2.4,1-3.8,0.6c-6-2.2-10.1,1.4-14.3,4.6c-1.1,0.8-2.4,2.1-1.2,3.6c1.2,1.4,2.4,0,3.4-0.7
		c3.4-2.2,6.9-4.3,11.2-3.1c2.2-0.1,4.3-0.2,6.2-1.6c1-0.7,1.9-1.5,1.4-2.8C610.7,91.1,609.5,91.8,608.4,92.2z"/>
</g>
<path class="st2" d="M766.3,262.6c-0.5-12.6-6.4-22.2-16-29.8l0,0c-0.7-1.1-1.8-1.7-2.8-2.3c-6.5-4.3-14-6.5-21.4-8.5
	c-7.4-2-15-3.6-22.7-3.3c0,0,0,0,0,0c-0.8,0.1-6.1,0.5-12.8,1.8c-9.8,2.2-18.3,5.7-18.5,5.8c-0.3,0.2-0.7,0.4-1,0.5
	c-3.1,1.9-6.1,3.9-8.3,7c-4.3,5.5-7.6,11.5-8.1,18.6c0,0.1-0.1,0.1-0.1,0.2c-0.3,3.4,0.4,11.5,11.2,16.6c0,0,0,0,0,0
	c4.9,2,9.6,4.5,14.8,5.5c0.1,1.2,0.1,2.5,0.2,3.7l0,0c0,0,0,0.2,0,0.4c0,0,0,0.1,0,0.2c0,0.7,0.1,1.3,0.1,2c0,0,0,0-0.1,0.1
	c0,2.9-0.2,7.9-1.5,11.8c-0.2,1.1-0.2,2.2,0.1,3.3c3.3,2.7,3.5-0.9,4.6-2.4c3.6-5,8.1-9,13.2-12.5c1.3-0.8,2.6-0.4,4-0.5
	c0.3,0,0.6,0,0.9,0l0,0c0,0,0,0,0,0c0.2,0,0.4,0.1,0.6,0.1c4.9,1,40.1,7.6,55.5-5.6c2.6-2.4,5-5.4,7-8.7
	C766,265.5,766.4,264.2,766.3,262.6z M754.8,274.6c-6.7,6-15.2,5.6-23.4,6c-11.6,0.6-22.8-2-34.1-4c-2.1-0.4-3.2-0.2-4.6,1.7
	c-2.6,3.3-5,7-9.2,10c-0.2-5.3,0.7-9.8,1.7-14.3c0.7-3.1-0.5-3.9-3.2-3.9c-7.5,0.1-13.7-3.6-19.8-7.2c-4.1-2.4-4-7.2-3.6-11.5
	c0.9-10.2,7.1-17,15.1-22.5c0.4-0.3,0.9-0.6,1.3-0.8c0.6-0.3,6.5-2.6,14.6-4.4c5.1-1.1,11-2,17.1-2c0.1,0,0.2,0,0.4,0
	c0.5,0,1,0,1.5,0c0.3,0,0.5,0,0.8,0c0.4,0,0.8,0,1.2,0.1c0.2,0,0.5,0,0.7,0.1c6.9,0.6,13.6,2.4,20.3,4.6c6.9,2.3,13,6.1,19.3,9.6
	l0,0c4.5,5.2,8.7,10.5,11,17.2C765.4,263.5,763.7,266.8,754.8,274.6z"/>
<path class="st1" d="M169.5,106.7C169.5,106.6,169.5,106.6,169.5,106.7c-0.8-9.1-6.4-14.3-13.4-18.3c-2-1.2-4.5-2-6.9-2.5
	c-2.4-0.4-4.7-0.8-7.1-1c-3-0.2-5.4-0.2-6-0.2c-0.9,0-1.8,0.1-2.7,0.2c-5.2,0.7-10.6,0.5-15.6,2.4l0,0c-5.4,1-10.9,1.6-15.8,4.4
	c-3.9,1.9-7.1,4.6-10.3,7.5c-2.5,2.2-4.5,4.8-6.1,7.6c-1.2,2.1-4,7.7-3.3,13.3c0,0,0,0,0,0c0,0,0,0,0,0c0.2,1.1,0.5,2.1,0.8,3.1
	c0.1,0.3,0.2,0.6,0.3,0.8c2.2,5.7,6.6,9.7,12.6,11.2c5.7,1.1,11.4,1.7,17.2,0.7l0,0c4.2-0.3,8.4-0.7,12.6-1.2
	c1.9-0.2,3.7-0.6,5.4,0.5c0.7,0.4,1.3,0.8,1.9,1.3l0,0c0,0,0.1,0.1,0.2,0.2c0.1,0.1,0.2,0.2,0.3,0.2c1.5,1.3,6.1,5.4,7.6,6.7
	c0.6,0.3,1.2,0.4,2.1-0.1c1.8-1,1.1-2.4,0.8-3.9c-0.9-5.4-0.7-5.2,4.3-6.8c2.2-0.7,4.5-1.3,6.6-2.2
	C169.4,122.3,169.9,110.8,169.5,106.7z M153.2,127.5c-3.5,1.3-7.1,2.5-10.9,2.2c-3.6-0.2-4.3-0.1-3.9,2.2c1,2.6,2.7,6.6,2.1,6.8
	c-0.4,0.1-1.4-1.4-2.1-2.4c0,0,0,0,0,0.1c-0.1-0.3-0.3-0.6-0.4-0.8c-0.1-0.2-0.2-0.3-0.2-0.3c-4.1-7.1-10.4-4.7-16.4-3.9
	c-6.9,0.9-13.9,1.2-20.9,0.6c-12.6-1.2-18.8-13.6-12-24.2c6.1-9.4,14.6-15.3,25.5-17.3c12.1-2.2,24.3-4.6,36.7-1.2
	c6.6,1.8,14.9,9.7,15.5,18C166.8,115.5,161.1,124.7,153.2,127.5z"/>
<path class="st1" d="M775.2,158.6c1.4,4.7,2.8,9.4,4.3,14c0.3,0.8,0.6,2.2,1.9,1.8c1.4-0.4,1.2-1.6,0.9-2.8c-0.4-1.2-0.7-2.4-1-3.6
	c-0.6-2.7-2.3-5.2-1.8-8.7c3.9,2.3,7.5,4.3,10.5,7.2c4.9,4.8,9.2,10.2,13.6,15.4c8.6,11.4,15.1,23.8,18,37.9l0,0
	c0.5,2.3,1.1,4.6,1.5,6.9c1.7,10.7,2,21.5,1.9,32.3c0,1.1,0,2.2,0,3.2c0,0,0,0.1,0,0.1c-0.3,6.1,1.7,7.4,1.9,7.6
	c0.5,0.2,0.9,0.3,1.4-0.1c0.5-0.4,0.5-1.1,0.4-1.7c-2-7.8-1.4-15.8-1.7-23.8c-0.4-10.6-1.8-21.1-5-31.2c-1.4-4.5-3.1-8.9-5-13.3
	c-2.9-6.7-6.6-12.9-11.3-18.4c-0.5-0.5-0.9-1.1-1.4-1.6c0,0,0,0,0,0l0,0l0,0c-7.2-7.6-12.5-16.9-21.4-23.6c3-1.2,5.4-0.6,7.7-0.7
	c0.9-0.1,1.9,0.2,2-0.9c0.1-1.2-0.5-2.3-2-2.2c-5.5,0.4-11.1-0.1-16.6,1.1C774.3,155.3,774.7,157,775.2,158.6z"/>
<g>
	<path class="st3" d="M132.9,310.7c-0.2-0.1-0.4-0.1-0.6-0.2c-0.6-0.1-1-0.4-1.4-0.8c-0.4-0.4-0.7-0.9-1-1.4
		c-2.9-5.4-5.9-10.7-8.8-16c-3.9-7.2-7.4-14.7-11.6-21.7c-6.5-10.9-16.5-18.6-26.6-25.9c-5.8-4.2-12-8.1-19.6-8.4
		c-1.9-0.1-3.9,0.1-5.6-0.4c1.1,1.4,1.3,3.3,0.6,4.9c1.5-1.6,3.3-1.5,5.2-1.3c3.6,0.4,6.9,1.7,10.2,3.4
		c10.1,5.4,18.9,12.4,26.6,20.9c5.7,6.3,9.1,13.9,13,21.3c4.2,8.1,8.8,16,13.2,23.9c0.7,1.2,1.1,2.3,0.7,3.6c-0.1,0.3-0.2,0.6-0.3,1
		c-0.1,0.3-0.2,0.5-0.3,0.7c0,0.1,0,0.1,0,0.2C128.7,309.6,132.8,310.6,132.9,310.7z"/>
	<path class="st3" d="M215.9,347.5c-0.7,0.8-1.5,1.5-2.9,1.6c-18.7,2-35.9-2.6-52-11.9c-7.1-4.2-13.5-9.4-19.5-15
		c-2.4-2.2-5.4-4.2-6.2-7.7c-0.1-0.6-0.2-1.2-0.3-1.8c0,0-0.2,3.9-6.1,4.5c0.1,0,0.3,0,0.4,0.1c0.6,0.1,1.1,0.1,1.6,0.2
		c1.1,0.2,2.2,0.6,3,1.7c3.7,4.6,8.3,8.2,12.8,12c12.2,10,26.1,16.4,41.4,19.8c10.1,2.3,20.3,0.5,30.4,0.9c-0.7-0.2-1.3-0.5-1.8-1
		C216,349.9,215.7,348.7,215.9,347.5z"/>
	<g>
		<path class="st2" d="M57.7,235.9c-0.1,0-0.2-0.1-0.3-0.1c-2.8-1-4.5,0-6.1,2.1c-0.1,1.9,0.4,3.4,2.4,4.2c1.8,0.7,3.3,0.2,4.4-1.1
			c0.1-0.1,0.2-0.2,0.3-0.3C59,239.2,58.8,237.3,57.7,235.9z"/>
		<path class="st2" d="M135.1,312.8c0-0.9-1.1-1.7-2.1-2.1c-0.1,0-4.3-1-6.4,3.8c-0.1,0.6,0,1.2,0.4,1.7c0.1,0.1,0.2,0.2,0.3,0.3
			c0.4,0.4,1.1,0.6,1.8,0.7C134.9,316.6,135.1,312.8,135.1,312.8z"/>
		<path class="st2" d="M222.4,349.8c0.4-1.6-0.6-2.6-1.8-3.4c-1.2-0.9-2.6-0.9-3.8,0.2c-0.4,0.3-0.7,0.7-1,1c-0.2,1.2,0.1,2.4,1,3.3
			c0.5,0.5,1.1,0.9,1.8,1c0.2,0,0.4,0,0.6,0C220.7,352,222,351.3,222.4,349.8z"/>
	</g>
</g>
<path class="st4" d="M586.5,350.3c0.5,0.1,0.8,0.3,1.2,0.6c0.7,0.3,1.4,0.7,2.1,1l0,0c2.2,0.7,4.4,1.5,6.6,2.2l0,0
	c1.2-0.5,1.8-1.4,2.1-2.6c2.9-9.4,6.5-18.6,9.9-27.8c2.9-7.7,6.3-15.3,9-23.1c0.8-2.3,0.9-4.8,2.5-6.7c0.4-0.5,0.2-1.1-0.4-1.4
	c-0.6-0.4-1.2-0.7-1.8-0.9c-4.9-2.1-9.8-4.1-14.6-6.5c-2.1-1.1-2.1-1.1-2.9,1c-2.1,6-4.6,11.9-6.9,17.8
	c-4.9,12.3-8.7,25.1-14.1,37.3c-0.6,1.4-1.1,2.9-1.9,4.2c-0.4,0.6-0.3,1.2,0,1.7c0.7,0.3,1.3,0.6,2,0.8
	C581.9,348.6,584.3,349.1,586.5,350.3z M604.2,287.3c4.1,1.8,8.1,3.7,12.2,5.5c0.8,0.3,1.7,0.7,1.1,1.7c-0.6,1.1,0.1,3.2-2.1,3.1
	c-0.5,0-1.3-0.2-1.4,0.5c-0.2,0.7,0.5,0.9,1,1c1.2,0.3,1,1.1,0.6,1.9c-0.4,0.9-0.5,2.1-1.9,1.6c-1.8-0.6-3.6-1.2-5.5-1.8
	c-0.6-0.2-1.5-0.7-1.8,0.2c-0.3,0.8,0.6,1.1,1.2,1.3c1.8,0.5,3.5,1.1,5.2,1.9c0.9,0.4,1.5,0.8,1,1.8c-0.6,1-0.2,2.8-2.1,2.8
	c-0.4,0-0.7-0.1-1.1-0.2c-0.4-0.1-0.9-0.3-1.1,0.3c-0.2,0.6,0.2,1,0.7,1.1c2.8,0.6,0.9,2.3,0.6,3.4c-0.4,1.5-1.6,0.8-2.5,0.5
	c-2.2-0.7-4.3-1.6-6.4-2.4c-0.6-0.2-1.5-0.6-1.8,0.3c-0.3,1,0.7,1.2,1.4,1.3c2.6,0.4,4.8,1.9,7.3,2.8c1.2,0.4,0.7,1.3,0.4,2
	c-0.4,0.8-0.2,2.3-1.9,2c-0.6-0.1-1.3-0.6-1.7,0.1c-0.3,0.7,0.5,1,1,1.3c1.5,0.9,0.2,1.8,0,2.7c-0.3,0.9-1,1-1.8,0.5
	c-1.9-1.1-4.1-1.3-6.1-2.3c-0.4-0.2-1-0.6-1.3,0.1c-0.3,0.7,0.1,1.2,0.8,1.4c1.5,0.5,3.1,0.9,4.6,1.5c2.5,1,2.9,1.8,2.3,3.5
	c-0.5,1.5-1.4,1.7-2.8,1.2c-0.5-0.2-1.2-0.4-1.4,0.3c-0.3,0.7,0.4,1,1,1.1c1.7,0.4,1.6,1.5,1.1,2.7c-1.1,3.2-1.1,3.2-4.2,1.8
	c-1.4-0.6-2.8-1.4-4.3-1.7c-0.6-0.1-1.3-0.7-1.5,0.2c-0.2,0.8,0.5,1.3,1.2,1.4c1.9,0.4,3.5,1.4,5.3,2.2c1.5,0.6,1.7,1.5,1.2,2.9
	c-0.2,0.4-0.3,0.8-0.4,1.2c-0.4,1.5-1,2.4-2.7,1.6c-0.3-0.1-0.7-0.2-1.1-0.2c-0.4,0-0.8,0-0.9,0.4c-0.1,0.4,0.2,0.7,0.5,0.9
	c0.7,0.6,2.4,0.2,2.4,1.3c0,1.8-0.6,3.5-1.6,5.2c-0.3,0.8-1.1,0.9-1.9,0.6c-2.1-0.9-4.3-1.2-6.2-2.4c-2.2-1.4-4.8-2-7.3-2.8
	c-2.2-0.7-2.2-1-1.3-3.2c2.7-6.1,4.9-12.4,7.1-18.7c2.4-6.7,5-13.3,7.5-20c2.1-5.4,4.7-10.7,6.4-16.2
	C601.8,287,602.8,286.7,604.2,287.3z"/>
<g>
	<path class="st3" d="M249.6,67.8c-1.9-2.3-3.7-4.6-6.1-6.5c-4.7-3.6-10.1-5.9-15.1-8.9c-0.9-0.4-1.8-0.8-2.7-1.3
		c-3.5-1.9-7-3.8-10.4-5.8c-0.8-0.5-1.9-1.2-1.3-2.3c0.7-1.3,1.7-0.4,2.6,0c0.5,0.2,0.9,0.5,1.3,0.8c7.2,5.4,15.4,9.3,23.1,13.9
		c4,2.4,7.3,5.6,10.5,9c0.6,0.6,1.5,1.4,0.6,2.2C250.8,69.8,250.2,68.6,249.6,67.8z"/>
	<path class="st3" d="M244.1,74.6c-1.3-1.5-3-2.2-4.5-3.2c-7.7-4.8-15.5-9.4-22.2-15.9c0.6,0.2,1.2,0.4,1.7,0.7
		c8.3,5.5,16.6,11,25.9,14.7c0.6,0.2,1.1,0.6,1.6,1c0.9,0.9,2.6,1.8,1.2,3.3C246.6,76.3,245,75.7,244.1,74.6z"/>
	<path class="st2" d="M181,38.7c-0.5,2-0.5,3.4,0.6,4.3l0,0c0,0,8.8,8.2,11.7,10c0,0,0,0,0,0c2.2,1.5,4.7,2.6,7,3.7
		c12.3,6.4,24.6,12.7,36.6,19.6c1.8,1,3.6,2.1,5.2,3.4c0,0,0,0,0,0c3.4,2.3,5.7,4.3,8.8,4.9c3.1,0.5,16.7,3.7,16.8,3.7
		c0.8,0.2,1.5,0.3,2.3,0.4c0.9,0.1,2.1,0.5,2.8-0.3c0.8-1-0.3-1.8-0.6-2.7c-0.1-0.2-0.2-0.4-0.2-0.6l0,0c0,0,0,0,0,0c0,0,0,0,0,0
		l0,0c-0.2-0.5-2-4.5-3.8-8.8c0,0,0,0,0,0l0,0c-1.6-3.9-3.3-7.9-3.8-9.7c-0.2-0.6-0.4-1-0.6-1.4c-1.1-1.7-3-1.6-3.6-1.6c0,0,0,0,0,0
		c0,0-0.1,0-0.1,0c0,0,0,0,0,0c0,0-0.1,0-0.1,0c0,0,0,0,0,0c-3.1,4-5.4,8.5-8.6,12.5c-3.5,4.3-3.7,4.6-8.5,1.8
		c-6.6-3.9-13.5-7.4-19.9-11.6c-0.2-0.1-0.5-0.3-0.8-0.4c-13.3-7.5-17.5-10.7-18.1-11.2c-0.1-0.1-0.2-0.2-0.3-0.3
		c-0.7-1.2,0.6-2.3,1.3-3.3c2.8-4,5.6-8,8.5-11.8c1.7-2.3,3.5-3.4,6.8-1.4c11.7,7.1,24,13.2,34.8,21.8c1.3,1,2.7,1.9,4.3,0.3l0,0
		l0,0l0,0c-8.8-6.1-17.8-11.9-27.2-17.1c-4.3-2.3-8-5.2-11.6-8.4l0,0c0,0,0,0,0,0c-1.2-1.1-2.4-2.2-3.5-3.3
		c-1.5-1.2-3.4-2.7-5.6-4.2c-5.6-3.7-6.6-2-6.6-2l0,0c-1.2,1.9-2.9,0.5-3.8-0.5c-3.1-3.7-6.2-2-8.9-0.2
		C186.9,27.7,182.8,32.2,181,38.7z M251.4,79.3c3.1-2.4,5.4-5.5,7.8-8.5c1.7-2,3-2.7,4,0.6c0.7,2.4,1.8,4.7,2.8,6.9
		c0.6,1.3,0.6,2.4,0,3.2c-1,1.9-2.1,2.9-4,2.6c-3.3-0.6-6.6-1.1-9.9-1.8C249.6,81.9,249.6,80.7,251.4,79.3z M195.6,26.2
		c2.9-0.9,4.7,1.4,6.5,2.9c1.6,1.4,0.1,3.1-0.5,4.4c-0.7,1.4-1.8,2.7-2.7,4c-1.1,1.5-3,2.6-3.1,5.1c0.6-0.3,1.1-0.5,1.5-0.8
		c4.2-3.1,7.5-7,9.6-11.7c0.5-1,1.2-2.5,2.3-1.9l0,0c0,0,0,0,0,0c0.1,0,0.1,0.1,0.2,0.1c0.7,0.4,2.9,1.8,3.5,2.4c0,0,0,0,0,0
		c0.1,0.1,0.1,0.1,0.2,0.1c0,0,0,0,0,0c0.6,0.5,0.8,1.2,0.1,2.2c-3.5,4.9-6,10.3-9.7,15.1c-3.6,4.7-4.9,5.2-9.1,1.2
		c-3.2-3.1-5.8-6.8-10.1-8.7c-1-0.4-1.4-1.5-0.9-2.6C185.9,32.5,189.6,28.1,195.6,26.2z"/>
</g>
<path class="st0" d="M387.3,271.9c-0.2,0-0.5,0.1-0.8,0.1C386.8,272,387,271.9,387.3,271.9z"/>
<g>
	<path class="st5" d="M409.7,299.4c-1.1,0.5-2.1,0.9-3.2,1.4c-1,0.4-1.9,0.3-2.4-0.8c-0.5-1.1,0-2,0.8-2.4c2.5-1.2,5.1-2.3,7.7-3.3
		c0.8-0.3,1.7-0.1,2.1,0.9c0.4,1.1,0,2-0.8,2.5C412.5,298.2,411.1,298.7,409.7,299.4C409.7,299.3,409.7,299.4,409.7,299.4z"/>
	<path class="st5" d="M408.6,291.3c0.4,1.2,0.1,2.1-0.8,2.5c-0.8,0.4-1.6,0.2-2.1-0.7c-0.6-1.2-0.2-2.2,0.9-2.7
		C407.5,290,408.1,290.7,408.6,291.3z"/>
	<path class="st5" d="M435.3,356.3c-1.5,0.4-3.2,2.7-2.4,5.2c0.9,2.8,3,3.7,5.4,2.6c3-1.1,3.7-3,2.8-5.4
		C440,355.4,437.6,355.7,435.3,356.3z"/>
	<path class="st6" d="M418.5,334.4c1.8-10,0-20.7,3.8-30.3C421.8,314.3,421,324.6,418.5,334.4z"/>
	<path class="st0" d="M406.5,335.9c0.2,0.4,0.3,0.7,0.4,0.9C406.8,336.5,406.6,336.2,406.5,335.9z"/>
	<path class="st0" d="M439.2,309.8c-3.5-8.2-7.4-16.2-11.1-24.2c-1-2.1-2-4.5-4.9-3.8c-0.2,0-0.3,0.1-0.5,0.1
		c-0.6,0.2-1.6,0.5-3.2,0.8c-0.7,0.2-1.5,0.4-2.2,0.6c-11,3.2-24.6,11.2-24.6,11.2c-4.3,3.7-3.6,6.7-0.2,15.4
		c5.3,13.5,10.7,27,16.3,40.4c3.1,7.5,5.2,13.1,9.7,20.1c1.7,2.6,2.5,3.6,5,2.5c6.4-3,13-3.7,19.2-7l0,0c0,0,10.6-5.7,13.6-7.1
		s0.7-6.7,0.2-7.7c-0.4-1-3.9-9.2-4.6-11C447.5,330,443.5,319.9,439.2,309.8z"/>
	<path class="st6" d="M460.7,355.4c-1.8-4.6-6.1-16-7.4-19.4c0-0.1-0.1-0.2-0.1-0.4c-0.1-0.4-0.2-0.6-0.2-0.6v0
		c-6.7-17.4-14.9-34.2-21.9-51.4c-1.5-3.7-5.5-7.2-12-4.9c0,0,0,0,0,0c-0.2,0.1-0.5,0.2-0.7,0.3c-7.3,2.8-28.3,12.5-28.3,12.5
		c-2.6,1.9-4.6,4.2-3.8,9.1l0,0c1.4,4.3,2.8,8.6,4.1,12.9c-0.3,1-0.1,1.8,0.9,2.4c1.7,2.4,2.4,5.2,3.2,7.9c4,7.3,6.5,15.3,9.7,22.9
		c4,9.6,6.7,17.4,12.2,26.3c2,3.3,3.7,5.9,7.3,4.4c6.8-3,13.6-5.1,20.1-8l-0.1,0c0,0,0.2-0.1,0.5-0.2c1.6-0.7,3.3-1.5,4.9-2.4
		c2.8-1.4,6.1-3,8.4-4.1C462.3,360,460.9,355.8,460.7,355.4z M456.3,351.2c0.5,1.1,2.8,6.3-0.2,7.7s-13.6,7.1-13.6,7.1l0,0
		c-6.2,3.2-12.8,4-19.2,7c-2.5,1.1-3.3,0.2-5-2.5c-4.5-6.9-6.5-12.5-9.7-20.1c-5.6-13.4-11-26.9-16.3-40.4
		c-3.4-8.7-4.1-11.7,0.2-15.4c0,0,13.6-8,24.6-11.2c0.7-0.2,1.5-0.4,2.2-0.6c1.6-0.4,2.6-0.7,3.2-0.8c0.2,0,0.3-0.1,0.5-0.1
		c2.9-0.7,3.9,1.6,4.9,3.8c3.8,8,7.6,16,11.1,24.2c4.3,10,8.4,20.2,12.5,30.3C452.5,342,455.9,350.2,456.3,351.2z"/>
	<path class="st0" d="M438.6,348.3c-0.1,0.1-0.2,0.1-0.3,0.2C438.4,348.4,438.5,348.3,438.6,348.3z"/>
	<path class="st0" d="M438,348.5c-0.1,0.1-0.2,0.1-0.4,0.2C437.7,348.7,437.8,348.6,438,348.5z"/>
	<path class="st0" d="M439.2,348c-0.1,0-0.2,0.1-0.3,0.2C439,348.1,439.1,348,439.2,348z"/>
	<path class="st0" d="M437.3,348.8c-0.1,0.1-0.3,0.1-0.4,0.2C437,349,437.2,348.9,437.3,348.8z"/>
	<path class="st0" d="M436.6,349.2c-0.2,0.1-0.5,0.2-0.7,0.3C436.1,349.4,436.4,349.3,436.6,349.2z"/>
	<path class="st0" d="M439.8,347.7c-0.1,0-0.2,0.1-0.3,0.2C439.6,347.8,439.7,347.7,439.8,347.7z"/>
	<path class="st0" d="M435.5,349.6c-0.1,0.1-0.3,0.1-0.4,0.2C435.3,349.7,435.4,349.7,435.5,349.6z"/>
	<path class="st0" d="M440.9,347.1c-0.1,0.1-0.3,0.1-0.4,0.2C440.6,347.3,440.8,347.2,440.9,347.1z"/>
	<path class="st0" d="M440.3,347.4c-0.1,0.1-0.2,0.1-0.3,0.2C440.1,347.5,440.2,347.5,440.3,347.4z"/>
	<path class="st0" d="M431.5,351.3c-0.1,0-0.2,0.1-0.3,0.1C431.3,351.3,431.4,351.3,431.5,351.3z"/>
	<path class="st0" d="M434.7,349.9c-0.1,0.1-0.3,0.1-0.4,0.2C434.5,350,434.6,350,434.7,349.9z"/>
	<path class="st0" d="M430.7,351.6L430.7,351.6L430.7,351.6z"/>
	<path class="st0" d="M433.1,350.6c-0.1,0-0.2,0.1-0.4,0.1C432.9,350.7,433,350.6,433.1,350.6z"/>
	<path class="st0" d="M434,350.3c-0.1,0.1-0.3,0.1-0.4,0.2C433.7,350.4,433.8,350.3,434,350.3z"/>
	<path class="st0" d="M432.3,350.9c-0.1,0-0.2,0.1-0.3,0.1C432.1,351,432.2,351,432.3,350.9z"/>
	<path class="st0" d="M421.6,301.8c-2.5,1.3-2.8,3.8-3.3,6.2c-1.2,5.2-2.5,11.9-3.5,17.1c0,0-0.3-2.9-0.2-4.2
		c0.6-4.5,1.2-8.9,1.8-13.4c0.4-2.7-0.5-3.6-3-2.6c-4,1.6-8.2,2.9-12.2,4.5c-1.5,0.6-2.9,1.5-1.8,3.6c2.3,4.3,3.3,9.1,5.7,13.4
		c2.3,4.1,4.3,8.4,6.2,12.6c1.8,3.9,3.5,8.2,5,12.4c1.3,3.8,1.9,4.9,4.3,4l0,0c0,0,4.9-1.8,10-3.9l0,0c0,0,0,0,0,0
		c0.2-0.1,0.3-0.1,0.5-0.2c0.1,0,0.2-0.1,0.3-0.1c0.2-0.1,0.3-0.1,0.5-0.2c0.1,0,0.2-0.1,0.3-0.1c0.1-0.1,0.3-0.1,0.4-0.2
		c0.1,0,0.2-0.1,0.4-0.1c0.1-0.1,0.3-0.1,0.4-0.2c0.1-0.1,0.3-0.1,0.4-0.2c0.1-0.1,0.3-0.1,0.4-0.2c0.1-0.1,0.3-0.1,0.4-0.2
		c0.1-0.1,0.3-0.1,0.4-0.2c0.1-0.1,0.3-0.1,0.4-0.2c0.1-0.1,0.2-0.1,0.4-0.2c0.2-0.1,0.5-0.2,0.7-0.3c0.1,0,0.2-0.1,0.3-0.1
		c0.1-0.1,0.3-0.1,0.4-0.2c0.1,0,0.2-0.1,0.3-0.1c0.1-0.1,0.2-0.1,0.4-0.2c0.1,0,0.2-0.1,0.3-0.1c0.1-0.1,0.2-0.1,0.3-0.2
		c0.1,0,0.2-0.1,0.3-0.1c0.1-0.1,0.2-0.1,0.3-0.2c0.1,0,0.2-0.1,0.3-0.1c0.1-0.1,0.2-0.1,0.3-0.2c0.1,0,0.2-0.1,0.2-0.1
		c0.1-0.1,0.2-0.1,0.3-0.2c0.1,0,0.1-0.1,0.2-0.1c0.1-0.1,0.3-0.1,0.4-0.2c0,0,0,0,0,0c0.2-0.1,0.3-0.2,0.5-0.3
		c4.8-3.2,4.2-5,0.9-13.5c-3.7-9.6-8.6-18.6-12.6-28.1C427.3,299.2,426.9,299,421.6,301.8z"/>
	<path class="st0" d="M423.7,358.5c0.7-0.3,1.1-0.5,1.1-0.5C424.4,358.2,424.1,358.4,423.7,358.5z"/>
	<path class="st6" d="M430.4,298.4c-1.1-3.1-3.2-3.1-5.6-2.1c-4.1,1.8-8.1,3.6-12,4.8c-4.9,1.9-9.4,3.5-13.8,5.5
		c-1,0.4-2.2,1.8-2.9,3.4c0,0.2-0.4,2.4,1.1,5.1c1.3,2.4,7.2,16.1,9,20.4c0.1,0.3,0.3,0.6,0.4,1c0.1,0.2,0.2,0.4,0.2,0.4l0,0
		c2.2,5.3,4.2,10.7,6.5,15.9c0.4,0.8,2.2,4.5,3.8,6.2c1.3,1.4,4.7,0.3,6.5-0.4c0.3-0.2,0.7-0.3,1.1-0.5c0.6-0.2,1.2-0.5,1.6-0.6
		c6.8-2.7,13.9-4.7,20-9c2.8-1.9,2.9-3.6,1.9-6.8C443.7,326.6,435.5,313.2,430.4,298.4z M442.3,333.3c3.3,8.6,3.9,10.3-0.9,13.5
		c-0.1,0.1-0.3,0.2-0.5,0.3c0,0,0,0,0,0c-0.1,0.1-0.3,0.1-0.4,0.2c-0.1,0-0.1,0.1-0.2,0.1c-0.1,0.1-0.2,0.1-0.3,0.2
		c-0.1,0-0.1,0.1-0.2,0.1c-0.1,0-0.2,0.1-0.3,0.2c-0.1,0-0.2,0.1-0.3,0.1c-0.1,0-0.2,0.1-0.3,0.2c-0.1,0-0.2,0.1-0.3,0.1
		c-0.1,0.1-0.2,0.1-0.3,0.2c-0.1,0-0.2,0.1-0.3,0.1c-0.1,0.1-0.2,0.1-0.4,0.2c-0.1,0-0.2,0.1-0.3,0.1c-0.1,0.1-0.3,0.1-0.4,0.2
		c-0.1,0-0.2,0.1-0.3,0.1c-0.2,0.1-0.5,0.2-0.7,0.3c-0.1,0.1-0.2,0.1-0.4,0.2c-0.1,0.1-0.3,0.1-0.4,0.2c-0.1,0.1-0.3,0.1-0.4,0.2
		c-0.1,0.1-0.3,0.1-0.4,0.2c-0.1,0.1-0.3,0.1-0.4,0.2c-0.1,0.1-0.3,0.1-0.4,0.2c-0.1,0.1-0.3,0.1-0.4,0.2c-0.1,0-0.2,0.1-0.4,0.1
		c-0.1,0.1-0.3,0.1-0.4,0.2c-0.1,0-0.2,0.1-0.3,0.1c-0.2,0.1-0.3,0.1-0.5,0.2c-0.1,0-0.2,0.1-0.3,0.1c-0.2,0.1-0.3,0.1-0.5,0.2
		c0,0,0,0,0,0l0,0c-5.1,2-10,3.9-10,3.9l0,0c-2.4,0.9-3-0.2-4.3-4c-1.4-4.2-3.2-8.5-5-12.4c-1.9-4.2-3.9-8.6-6.2-12.6
		c-2.4-4.3-3.4-9.1-5.7-13.4c-1.1-2.1,0.3-3,1.8-3.6c4.1-1.5,8.2-2.9,12.2-4.5c2.5-1,3.3-0.1,3,2.6c-0.6,4.5-1.2,8.9-1.8,13.4
		c-0.2,1.3,0.2,4.2,0.2,4.2c1-5.2,2.4-11.9,3.5-17.1c0.5-2.4,0.8-4.9,3.3-6.2c5.2-2.8,5.7-2.6,8.1,3.3
		C433.7,314.7,438.6,323.6,442.3,333.3z"/>
</g>
<g>
	<path class="st2" d="M299.5,287C299.5,287,299.5,287,299.5,287c-0.1-0.2-0.2-0.4-0.3-0.6c0-0.1-0.1-0.1-0.1-0.2
		c-0.1-0.1-0.2-0.2-0.2-0.4c0-0.1-0.1-0.1-0.1-0.2c-0.1-0.1-0.2-0.2-0.2-0.3c-0.1-0.1-0.1-0.1-0.2-0.2c-0.1-0.1-0.2-0.2-0.3-0.3
		c-0.1-0.1-0.1-0.1-0.2-0.2c-0.1-0.1-0.2-0.2-0.3-0.3c0,0-0.1-0.1-0.1-0.1c-0.1-0.2-0.3-0.3-0.4-0.4c0,0,0,0,0,0
		c-0.3-0.3-0.6-0.6-0.9-0.9c-0.2-0.2-0.4-0.4-0.6-0.5c-1.9-1.6-5.8-3.9-11.7-4.1c0,0,0,0,0,0c-2.8,0.1-5.7,1.1-8.5,3.4
		c1.7,0.1,2.6,0.1,3.4,0.2c1.6-0.4,3.1-0.8,4.7-0.8l0,0c0,0,0.1,0,0.1,0l0,0c0.4,0,0.9,0,1.3,0l0,0l0,0c1.6,0.1,3.1,0.3,4.3,0.6
		c0,0,0,0,0,0c1.2,0.3,2.2,0.7,3.1,1.2c0,0,0.1,0,0.1,0c0.3,0.1,0.5,0.3,0.8,0.4c0,0,0.1,0,0.1,0.1c0.6,0.4,1.1,0.7,1.5,1.1
		c0,0,0,0,0,0c0.2,0.2,0.4,0.4,0.6,0.6c0,0,0,0,0,0c0.2,0.2,0.3,0.4,0.5,0.6c0,0,0,0,0,0c0.1,0.2,0.3,0.4,0.4,0.5l0,0l0,0
		c0.4,0.6,0.6,1.1,0.6,1.1l0,0c0.1,0.2,0.2,0.3,0.3,0.5c0.7,1.4,1.2,2.6,1.3,2.8c2.1,6.8,1,10-4.4,13.6c-4.7,3.1-9.9,4.1-15.4,2.9
		c-9.6-2-13.2-10.1-8.7-18.8c0.6-1.2,1.1-2.5,1.6-3.7c-1.4-1.2-2.8-1.8-3.9,0.3c-5.4,9.7-3.5,21,9.1,24.7c2.2,0.7,4.7,0.9,7,0.8
		c7.2-0.4,13.6-3.2,16.9-9.9C302.9,296,302.2,291.3,299.5,287z"/>
	<path class="st2" d="M297.7,272.2c0-0.6-0.6-0.5-0.9-0.4l0.2-0.5l-1.4,0.2c-0.3,1.3-8.2,14.2-8.2,14.2l0,0
		c-1.7,2.6-3.3,5.1-5.1,7.6c-1.4,2-2.5,0.4-3.6-0.5c-1.7-1.4-3.5-3.4-4.2,0.7v0c0.1,0.2,0.2,0.4,0.3,0.5c1.6,1.4,3.2,2.8,4.8,4.2
		c2.5,2.4,4.4,2.3,5.6-0.9c1.1-2.9,2.8-5.5,4.1-8.2l0,0C289.3,289.2,297.7,273.1,297.7,272.2z"/>
</g>
<g>
	<g>
		<path class="st0" d="M183.2,289.7c-0.6-0.6-1.8-1.1-1.5-2.2c0.3-1,1.5-0.9,2.4-1.2c3.9-1.2,8-2.1,9.5-6.7c0.2-0.6,0.9-1.8,1.7-0.9
			c0.9,1,3.7,1.3,2.4,3.3c-2.3,3.5-2.1,7.2-2.3,11.1c-0.2,5.6-0.3,5.6-6.3,1.7C187.7,293.6,185.4,291.7,183.2,289.7z"/>
		<path class="st0" d="M146.7,331.4c0.1-0.1,0.2-0.1,0.2-0.1C146.9,331.3,146.8,331.4,146.7,331.4z"/>
		<path class="st0" d="M146.6,336.2c0.1-0.2,0.2-0.4,0.4-0.6c0.4-0.6,0.7-1.1,1-1.7c4.5-7.2,19.9-30.3,19.9-30.3
			c0.5-0.7,1-1.5,1.5-2.2c1.1-1.6,2.3-3,3.5-4.4c1.1-1.3,2.2-1.4,3.4-0.3c2,1.9,4.1,3.6,6.3,5.3c1.6,1.3,3.5,2.1,5.2,3.2
			c2.1,1.3,2.4,2.3,0.9,4.2c-4.3,5.5-7.8,11.6-12.3,17c-1.2,1.5-1.9,3.3-2.8,4.9c0,0,0,0,0,0c0,0,0,0,0,0c0,0.5-3.6,5.7-6.5,9.9
			c0,0,0,0,0,0c-0.4,0.6-0.8,1.2-1.2,1.7c0,0.1-0.1,0.1-0.1,0.2c-1.4,2-2.4,3.4-2.4,3.4l0,0c-0.6,1-1.2,1.9-2.5,2.1
			c-1.6-0.1-2.8-1.1-3.9-2c-2.9-2.4-6.1-4.3-9.2-6.4C145.6,338.8,145.4,338.2,146.6,336.2z"/>
		<path class="st0" d="M183.2,289.7c-0.6-0.6-1.8-1.1-1.5-2.2c0.3-1,1.5-0.9,2.4-1.2c3.9-1.2,8-2.1,9.5-6.7c0.2-0.6,0.9-1.8,1.7-0.9
			c0.9,1,3.7,1.3,2.4,3.3c-2.3,3.5-2.1,7.2-2.3,11.1c-0.2,5.6-0.3,5.6-6.3,1.7C187.7,293.6,185.4,291.7,183.2,289.7z"/>
		<path class="st0" d="M146.7,331.4c0.1-0.1,0.2-0.1,0.2-0.1C146.9,331.3,146.8,331.4,146.7,331.4z"/>
		<path class="st0" d="M197.3,288.5c0,0.1,0,0.2,0,0.3l0,0.4C197.3,289,197.3,288.7,197.3,288.5z"/>
		<path class="st0" d="M199.6,282.8c0,0.1-0.1,0.1-0.1,0.2C199.5,283,199.6,282.9,199.6,282.8z"/>
		<path class="st0" d="M146.7,331.4c0.1-0.1,0.2-0.1,0.2-0.1C146.9,331.3,146.8,331.4,146.7,331.4z"/>
		<path class="st0" d="M146.6,336.2c0.1-0.2,0.2-0.4,0.4-0.6c0.4-0.6,0.7-1.1,1-1.7c4.5-7.2,19.9-30.3,19.9-30.3
			c0.5-0.7,1-1.5,1.5-2.2c1.1-1.6,2.3-3,3.5-4.4c1.1-1.3,2.2-1.4,3.4-0.3c2,1.9,4.1,3.6,6.3,5.3c1.6,1.3,3.5,2.1,5.2,3.2
			c2.1,1.3,2.4,2.3,0.9,4.2c-4.3,5.5-7.8,11.6-12.3,17c-1.2,1.5-1.9,3.3-2.8,4.9c0,0,0,0,0,0c0,0,0,0,0,0c0,0.5-3.6,5.7-6.5,9.9
			c0,0,0,0,0,0c-0.4,0.6-0.8,1.2-1.2,1.7c0,0.1-0.1,0.1-0.1,0.2c-1.4,2-2.4,3.4-2.4,3.4l0,0c-0.6,1-1.2,1.9-2.5,2.1
			c-1.6-0.1-2.8-1.1-3.9-2c-2.9-2.4-6.1-4.3-9.2-6.4C145.6,338.8,145.4,338.2,146.6,336.2z"/>
		<path class="st0" d="M183.2,289.7c-0.6-0.6-1.8-1.1-1.5-2.2c0.3-1,1.5-0.9,2.4-1.2c3.9-1.2,8-2.1,9.5-6.7c0.2-0.6,0.9-1.8,1.7-0.9
			c0.9,1,3.7,1.3,2.4,3.3c-2.3,3.5-2.1,7.2-2.3,11.1c-0.2,5.6-0.3,5.6-6.3,1.7C187.7,293.6,185.4,291.7,183.2,289.7z"/>
		<path class="st0" d="M146.7,331.4c0.1-0.1,0.2-0.1,0.2-0.1C146.9,331.3,146.8,331.4,146.7,331.4z"/>
		<path class="st0" d="M146.6,336.2c0.1-0.2,0.2-0.4,0.4-0.6c0.4-0.6,0.7-1.1,1-1.7c4.5-7.2,19.9-30.3,19.9-30.3
			c0.5-0.7,1-1.5,1.5-2.2c1.1-1.6,2.3-3,3.5-4.4c1.1-1.3,2.2-1.4,3.4-0.3c2,1.9,4.1,3.6,6.3,5.3c1.6,1.3,3.5,2.1,5.2,3.2
			c2.1,1.3,2.4,2.3,0.9,4.2c-4.3,5.5-7.8,11.6-12.3,17c-1.2,1.5-1.9,3.3-2.8,4.9c0,0,0,0,0,0c0,0,0,0,0,0c0,0.5-3.6,5.7-6.5,9.9
			c0,0,0,0,0,0c-0.4,0.6-0.8,1.2-1.2,1.7c0,0.1-0.1,0.1-0.1,0.2c-1.4,2-2.4,3.4-2.4,3.4l0,0c-0.6,1-1.2,1.9-2.5,2.1
			c-1.6-0.1-2.8-1.1-3.9-2c-2.9-2.4-6.1-4.3-9.2-6.4C145.6,338.8,145.4,338.2,146.6,336.2z"/>
		<path class="st0" d="M183.2,289.7c-0.6-0.6-1.8-1.1-1.5-2.2c0.3-1,1.5-0.9,2.4-1.2c3.9-1.2,8-2.1,9.5-6.7c0.2-0.6,0.9-1.8,1.7-0.9
			c0.9,1,3.7,1.3,2.4,3.3c-2.3,3.5-2.1,7.2-2.3,11.1c-0.2,5.6-0.3,5.6-6.3,1.7C187.7,293.6,185.4,291.7,183.2,289.7z"/>
		<path class="st6" d="M138.5,346.2c4.4,2.5,7.9,6.1,12,9c1.7,1.1,3.4,2.2,5.1,3.3c1.6,1,2.9,0.8,3.9-0.9c0.1-0.2,0.3-0.5,0.4-0.7
			c0,0,0,0,0,0c0.1-0.1,0.2-0.3,0.3-0.6c0.3-0.5,0.5-1,0.9-1.5c0.4-0.6,0.9-1.4,1.4-2.2l10.3-15.8c2.8-4.2,4.9-7.4,4.9-7.4l0,0
			c0.7-1.4,1.6-2.7,2.6-3.9c0.5-0.6,0.9-1.3,1.3-2c3.7-5.6,7.5-11.2,11.8-16.3c1.6-1.9,2.8-4.1,4.1-6.2h0c0,0,0,0,0,0c0,0,0,0,0,0
			c0,0,0,0,0,0c0,0,0,0,0,0c0,0,0,0,0,0c0,0,0-0.1,0.1-0.2c0,0,0,0,0,0c0.1-0.2,0.2-0.7,0.3-1.5c0,0,0,0,0,0c0-0.1,0-0.2,0-0.3
			c0,0,0,0,0-0.1c0.1-0.7,0.1-1.5,0.1-2.6c-0.1-3.5-0.7-5.2-0.8-7.6l0,0.4c0-0.2,0-0.5,0-0.7c-0.1-1.9,1.3-4.2,2.2-5.5
			c0-0.1,0.1-0.1,0.1-0.2c0.4-0.5,0.7-0.9,0.7-0.9l0,0c0.6-0.7,1.2-1.5,1.6-2.3c0.7-1.5,0.9-3,0.6-4.4c-0.4-2-1.3-4-1.7-6
			c-0.4-1.9-1.7-1.3-2.8-0.3c-0.2,0.3-0.4,0.5-0.6,0.8c-1.2,1.8-2.8,3.4-3.4,5.6c-1.4,2.2-2.7,4.4-4.1,6.5c-0.4,0.6-1,0.9-1.6,1.2
			c0,0,0,0,0,0c-1.9,1.1-7.4,2.5-7.4,2.5v0c-0.3,0.1-0.7,0.2-1,0.3c-1.7,0.5-1.9,1.3-1,2.7c0,0,0,0,0,0l0,0
			c4.1,4.7,8.7,8.8,14.4,11.4c1.1,0.5,2.1,0.7,1.2,2.3c-0.7,1.3-1.3,1.9-2.9,1.1c-4.4-2.2-8.5-4.7-12.1-8.1
			c-2.9-2.7-3.2-3.1-1.5-6.5c-0.7-0.9-1.4-0.8-2,0.1c-0.8,1.2-1.7,2.4-2.6,3.5l0,0c-3.4,2.8-5.7,6.5-8.2,10
			c-0.1,0.2-0.3,0.4-0.4,0.6c-0.1,0.1-0.2,0.3-0.4,0.4c-0.3,0.3-0.6,0.7-0.7,1.2c-5.6,8.7-11.1,17.4-16.7,26
			c-0.1,0.3-0.2,0.6-0.4,0.9c0.1-0.1,0.2-0.1,0.2-0.1c-0.1,0.1-0.1,0.1-0.2,0.1c-1.9,2.5-3.4,5.3-5.8,7.4c-1.6,1.4-2.1,3.6-3,5.5
			C137.7,345,137.8,345.8,138.5,346.2z M196.8,274.5c0.7-0.7,1.4-1.4,2.2-2.3c0.3,0.9,0.5,1.8,0.8,2.6c0.5,1.1,0.9,2.4-0.4,3.1
			c-1.2,0.6-1.9-0.8-2.7-1.4C195.8,275.8,196.2,275.1,196.8,274.5z M189.1,294.6c-1.4-1-3.7-2.9-5.8-5c-0.6-0.6-1.8-1.1-1.5-2.2
			c0.3-1,1.5-0.9,2.4-1.2c3.9-1.2,8-2.1,9.5-6.7c0.2-0.6,0.9-1.8,1.7-0.9c0.9,1,3.7,1.3,2.4,3.3c-2.3,3.5-2.1,7.2-2.3,11.1
			C195.2,298.5,195.1,298.5,189.1,294.6z M147.7,340.2c-2.1-1.4-2.2-1.9-1-4c0.1-0.2,0.2-0.4,0.4-0.6c0.4-0.6,0.7-1.1,1-1.7
			c4.5-7.2,19.9-30.3,19.9-30.3c0.5-0.7,1-1.5,1.5-2.2c1.1-1.6,2.3-3,3.5-4.4c1.1-1.3,2.2-1.4,3.4-0.3c2,1.9,4.1,3.6,6.3,5.3
			c1.6,1.3,3.5,2.1,5.2,3.2c2.1,1.3,2.4,2.3,0.9,4.2c-4.3,5.5-7.8,11.6-12.3,17c-1.2,1.5-1.9,3.3-2.8,4.9c0,0,0,0,0,0c0,0,0,0,0,0
			c0,0.5-3.6,5.7-6.5,9.9c0,0,0,0,0,0c-0.4,0.6-0.8,1.2-1.2,1.7c0,0.1-0.1,0.1-0.1,0.2c-1.4,2-2.4,3.4-2.4,3.4l0,0
			c-0.6,1-1.2,1.9-2.5,2.1c-1.6-0.1-2.8-1.1-3.9-2C154,344.1,150.8,342.3,147.7,340.2z M142,340.5c0.4-0.3,0.7-0.2,1,0.1
			c1.4,1.4,3.4,2,4.9,3.3c3.8,2.1,6.9,5.3,10.5,7.8c1.6,1.1,0.7,2.1,0.1,3.2c-0.6,1.2-1.2,2-2.7,1.2c-5.2-2.9-10.1-6.3-14.6-10.3
			C140.2,344.7,140.7,341.3,142,340.5z"/>
		<path class="st5" d="M196.8,274.5c0.7-0.7,1.4-1.4,2.2-2.3c0.3,0.9,0.5,1.8,0.8,2.6c0.5,1.1,0.9,2.4-0.4,3.1
			c-1.2,0.6-1.9-0.8-2.7-1.4C195.8,275.8,196.2,275.1,196.8,274.5z"/>
	</g>
	<path class="st7" d="M147.7,340.2c-2.1-1.4-2.2-1.9-1-4c0.1-0.2,0.2-0.4,0.4-0.6c0.4-0.6,0.7-1.1,1-1.7
		c4.5-7.2,19.9-30.3,19.9-30.3c0.5-0.7,1-1.5,1.5-2.2c1.1-1.6,2.3-3,3.5-4.4c1.1-1.3,2.2-1.4,3.4-0.3c2,1.9,4.1,3.6,6.3,5.3
		c1.6,1.3,3.5,2.1,5.2,3.2c2.1,1.3,2.4,2.3,0.9,4.2c-4.3,5.5-7.8,11.6-12.3,17c-1.2,1.5-1.9,3.3-2.8,4.9c0,0,0,0,0,0c0,0,0,0,0,0
		c0,0.5-3.6,5.7-6.5,9.9c0,0,0,0,0,0c-0.4,0.6-0.8,1.2-1.2,1.7c0,0.1-0.1,0.1-0.1,0.2c-1.4,2-2.4,3.4-2.4,3.4l0,0
		c-0.6,1-1.2,1.9-2.5,2.1c-1.6-0.1-2.8-1.1-3.9-2C154,344.1,150.8,342.3,147.7,340.2z"/>
</g>
<g>
	<path class="st1" d="M535.1,69.1c-1.1-0.6-1.5,0.6-2,1.4c-0.1,0.3-0.3,0.7-0.4,1c-0.3,0.7-0.1,0.8-0.4,1.1
		c-1.1,2.3-2.3,4.6-3.4,6.8l0,0c0,0-4.6,10.8-8.4,16.2c0,0,0,0,0,0c-3.3,6-7,11.7-10.2,17.8c-0.3,0.6-0.7,1.2-0.9,1.8
		c-0.3,0.7-0.6,1.6,0.4,2c1.1,0.4,1.3-0.6,1.5-1.3c0.9-2.4,2-4.7,3.3-6.9c3.7-6.5,7.6-12.8,11.1-19.4c3.3-5.9,6.5-11.9,10.2-17.5
		C536.3,71,536.3,69.7,535.1,69.1z"/>
	<path class="st1" d="M513.4,97.6c1-0.5,0.8-1.5,0.4-2.5c-0.9-2.3-2.6-4-4.2-5.8c-1.6-1.7-0.6-2.1,0.7-2.7c1.5-0.7,3-1.3,4.5-2
		c1-0.4,1.2-1.3,0.7-2.1c-0.4-0.7-1.1-0.8-2-0.3c-1.5,0.9-3.2,1.6-4.8,2.5c-1.6,0.8-2.5,2.2-3.1,3.7c0,1.1,0.6,1.6,1.1,2.1
		c1.9,1.7,3.7,3.6,5,5.9C512.1,96.9,512.4,98.1,513.4,97.6z"/>
	<path class="st1" d="M541.5,86.5c-1.8-1.1-3.1-2.6-3.4-4.8c-1.6-1.6-2-1.4-2.7,0.8c0.4,2.4,2,4.2,3.9,5.6c1.9,1.4,1.4,2.3-0.2,3.4
		c-1.2,0.8-2.5,1.5-3.4,2.7c-0.4,0.5-0.7,1.1-0.1,1.6c0.6,0.5,1.1,0.2,1.6-0.3c1.2-1.4,2.8-2.2,4.4-3.1
		C544.7,90.5,544.7,88.5,541.5,86.5z"/>
</g>
<path class="st2" d="M536.4,308.8c-3.2-0.5-6.4-0.7-9.6-1.1c-1.2-0.1-2.9,0.2-3.2-1.2c-0.3-1.3,1.4-1.4,2.3-2
	c2.3-1.5,4.8-2.6,6.8-4.6c0.8-0.8,1.5-1.8,1.1-3c-0.5-1.4-1.8-1.2-2.9-1.1c-4.5,0.2-9,0.2-13.4,0.9c-3.4,0.5-6.8,1.2-10.3,0.1
	c4.5-2.6,9.2-4.8,14.1-6.4c4.9-1.6,9.7-3.3,14.5-5c1.3-0.5,3.3-1.2,2.3-3c-0.8-1.5-2.7-0.2-3.6,0.4c-2.7,1.7-5.5,2.9-8.4,4
	c-7.5,2.7-15.1,5.3-22.2,9c-1,0.5-2.1,1.1-1.9,2.4c0.2,1.3,1.4,1.6,2.5,1.8c1.1,0.1,2.2,0.4,3.3,0.3c4.1-0.4,8.2-1,12.3-1.4
	c3-0.3,6-0.9,9.4,0.1c-2.3,3-5.4,3.9-7.9,5.6c-1.2,0.8-3.2,1.1-2.8,3c0.4,1.8,2.2,2.3,3.8,2.5c3.2,0.4,6.4,0.7,9.7,1.1
	c1.1,0.1,2.7-0.1,3,1c0.5,1.5-1.3,1.8-2.3,2.5c-4,2.7-8.8,3.5-12.9,5.9c-0.8,0.5-2.3,0.4-1.9,1.8c0.4,1.3,1.8,1.1,2.9,0.9
	c1-0.2,2.3-0.3,2.7-1c1.7-2.8,4.7-3.1,7.3-4.2c2.6-1.1,5-2.4,6.9-4.4C540.2,311,539.6,309.3,536.4,308.8z"/>
<path class="st2" d="M163.2,185.8c-2.4,2.7-0.5,6,0,9c0.1,0.5,0.4,0.9,0.7,1.4c1.7,2,1.1,4.8,2.3,7c2.6,4.5,0,4.7-3.2,3.9
	c-4.6-1.1-5.7,1.4-5.6,5.2c0,1.5,0.5,3,0.7,4.4c0.8,5.2-0.1,6-5.2,4.4c-0.8-0.2-1.6-0.6-2.4-0.8c-1.5-0.4-3.5-1.7-4.4,0.4
	c-1.1,2.7,1.7,2.1,3,2.7c1.2,0.6,2.5,1,3.7,1.4c7.4,2.2,10.1,0,9-7.6c-0.6-3.8-0.5-6.2,4.7-5.9c5.4,0.3,6.3-1.5,4.7-6.8
	c-1-3.3-2.4-6.6-3.5-9.9c-0.6-1.8-2.3-3.9-0.4-5.5c1.7-1.5,3.7,0.3,5.5,0.9c7.1,2.5,12.3,7.8,18.1,12.1c1.5,1.2,3.3,2.7,4.7,1.1
	c1.8-2-0.8-3.3-2.1-4.2c-6.9-5.3-14.2-9.9-22.2-13.3C169,184.7,165.7,182.9,163.2,185.8z"/>
<path class="st2" d="M466.1,46c0.2,1,1,1,1.8,1.2c5,1.8,8.1,6.9,6.7,10.9c-1.2,3.3-6,6.7-9.6,6.7c-3.2,0-6.4-0.7-9.4-2
	c-4.7-2.2-6.8-7.4-4.8-12.1c1.9-4.7,8.3-8.3,12.1-6.8c0.8,0.3,1.5,2,2.2,0.2c0.5-1.4,0-2.7-1.7-3.1c-0.9-0.2-1.8-0.2-2.7,0
	c-4.6,1.1-8.5,3.4-11.3,7.2c-2.3,3.2-3,6.8-1.2,10.4c3.9,7.8,16.5,10.9,23.6,5.9c2.8-1.9,4.4-4.8,4.8-8.1
	C477.5,50.5,471.7,44.9,466.1,46z"/>
<path class="st1" d="M424.8,112.7C424.8,112.7,424.8,112.6,424.8,112.7L424.8,112.7c0-1,0.1-2,0.2-3c-1.3-0.9-2.4-1.1-3.2,0.7
	c0.1,0.4,0.1,0.8,0.1,1.2c0,0.5,0.1,1.1,0.1,1.6c0,0.6,0.1,1.5-0.6,1.7c-0.9,0.3-1.1-0.7-1.5-1.3c-5.8-8.7-14-15.1-22.2-21.3
	c-8.6-6.6-18.3-11.3-28.5-15.2c-4.8-1.8-9.7-3-14.7-3.9l0,0c0,0,0,0-0.1,0c-1.3-0.2-2.6-0.4-3.9-0.7c-6.3-1-18.4-2.9-24.7-3.3l0,0
	c-1.1,0.3-2.5,0.3-2,2.1c0.4,1.3,1.5,1.5,2.5,1.1c0,0,1.3,0,3.7,0.1c0.1,0,0.2,0.1,0.3,0.1c0.4,0,0.7,0,1.1,0c0.1,0,0.2,0,0.3,0
	c1,0.1,2,0.1,3.2,0.2c2.1,0.2,4.3,0.6,6.4,0.8l0,0c0,0,0,0,0,0c0.5,0,0.9,0,1.4,0c9.4,1.3,21.7,3.8,33.4,9.1
	c0.1,0.1,0.2,0.1,0.3,0.2c2.3,1.1,4.5,2.4,6.7,3.6l0,0c0.2,0,0.4,0.1,0.6,0.1c1.4,0.8,2.7,1.6,4,2.5c0,0,0.1,0.1,0.1,0.1
	c0.6,0.4,1.2,0.8,1.8,1.2c0,0,0,0,0,0l0,0c8.8,5.9,17.1,12.2,23.8,20.6c1.3,1.7,2.3,3.6,3.4,5.4c0.4,0.7,1.4,1.5,0.9,2.2
	c-0.6,0.9-1.9,0.8-2.9,0.5c-1.4-0.4-2.9-0.3-3.2,1.1c-0.3,1.7,1.3,2.1,2.8,2.2c1.1,0.1,2.1,0.2,3.1,0.5c2.6,0.3,5.5,0.4,6.1-0.6
	c0.8-1.2,0.8-5.5,0.7-7.9C424.8,113.8,424.8,113.2,424.8,112.7z"/>
<path class="st1" d="M492,466.6c0.1-2.4,0.1-6.6-0.7-7.9c-0.6-1-3.6-0.9-6.1-0.6c-1,0.3-2,0.4-3.1,0.5c-1.5,0.1-3.1,0.5-2.8,2.2
	c0.2,1.4,1.8,1.5,3.2,1.1c1-0.3,2.3-0.4,2.9,0.5c0.5,0.8-0.5,1.5-0.9,2.2c-1.1,1.8-2.1,3.8-3.4,5.4c-6.7,8.3-15.1,14.7-23.8,20.6
	l0,0c0,0,0,0,0,0c-0.6,0.4-1.2,0.8-1.8,1.2c0,0-0.1,0.1-0.1,0.1c-1.3,0.9-2.7,1.7-4,2.5c-0.2,0-0.4,0.1-0.6,0.1l0,0
	c-2.2,1.2-4.5,2.5-6.7,3.6c-0.1,0.1-0.2,0.1-0.3,0.2c-11.7,5.3-24,7.8-33.4,9.1c-0.5,0-0.9,0-1.4,0c0,0,0,0,0,0l0,0
	c-2.1,0.2-4.3,0.6-6.4,0.8c-1.2,0.1-2.3,0.2-3.2,0.2c-0.1,0-0.2,0-0.3,0c-0.4,0-0.7,0-1.1,0c-0.1,0-0.2,0.1-0.3,0.1
	c-2.3,0.1-3.7,0.1-3.7,0.1c-1.1-0.3-2.1-0.2-2.5,1.1c-0.5,1.8,0.9,1.8,2,2.1l0,0c6.2-0.3,18.4-2.2,24.7-3.3c1.3-0.2,2.6-0.4,3.9-0.7
	c0.1,0,0.1,0,0.1,0l0,0c5-0.9,9.8-2.1,14.7-3.9c10.2-3.9,19.9-8.6,28.5-15.2c8.1-6.2,16.3-12.6,22.2-21.3c0.4-0.6,0.5-1.6,1.5-1.3
	c0.7,0.2,0.6,1,0.6,1.7c0,0.5,0,1.1-0.1,1.6c0,0.4,0,0.8-0.1,1.2c0.8,1.7,1.9,1.6,3.2,0.7c0-1-0.2-2-0.2-3h0c0,0,0,0,0,0
	C491.9,467.7,491.9,467.1,492,466.6z"/>
<path class="st2" d="M281.7,511.9c-1.3,0-2.7-0.2-3.6-1.1c-1.1-1-1.4-2.6-1.5-4.1c-0.3-5.8,0.8-11.6,3.1-16.8
	c2.1-4.6,6-11,10.7-13.3c0.8,0.9-0.4,5.4-0.4,5.8c0,0-2.6,3.3-4.1,5.1c-1.6,2-2.1,4.1-2.5,6.6c-0.1,0.5-0.1,1.1,0.2,1.5
	c0.8,1,3.1,0.3,4.1,0.3c2.6,0,3.7,0.1,4,3.1c0.3,3.2-0.1,6.5-1,9.6c-0.2,0.5-0.3,1-0.7,1.4C288.4,511.9,283.8,511.8,281.7,511.9z"/>
<path class="st2" d="M262.6,511.9c-1.3,0-2.7-0.2-3.6-1.1c-1.1-1-1.4-2.6-1.5-4.1c-0.3-5.8,0.8-11.6,3.1-16.8
	c2.1-4.6,6-11,10.7-13.3c0.8,0.9-0.4,5.4-0.4,5.8c0,0-2.6,3.3-4.1,5.1c-1.6,2-2.1,4.1-2.5,6.6c-0.1,0.5-0.1,1.1,0.2,1.5
	c0.8,1,3.1,0.3,4.1,0.3c2.6,0,3.7,0.1,4,3.1c0.3,3.2-0.1,6.5-1,9.6c-0.2,0.5-0.3,1-0.7,1.4C269.3,511.9,264.7,511.8,262.6,511.9z"/>
<path class="st2" d="M236.5,427.1c-5.5-1.2-11.1-0.7-16.6-1.1c-1.4-0.1-2,1.1-2,2.2c0.1,1.1,1.1,0.9,2,0.9c2.3,0.1,4.7-0.4,7.7,0.7
	c-8.8,6.7-14.2,16-21.4,23.6l0,0l0,0c0,0,0,0,0,0c-0.5,0.5-0.9,1-1.4,1.6c-4.8,5.5-8.4,11.7-11.3,18.4c-1.9,4.3-3.6,8.8-5,13.3
	c-3.2,10.1-4.6,20.6-5,31.2c-0.3,7.9,0.3,15.9-1.7,23.8c-0.2,0.6-0.2,1.3,0.4,1.7c0.5,0.4,1,0.3,1.4,0.1c0.2-0.1,2.2-1.5,1.9-7.6
	c0,0,0-0.1,0-0.1c-0.1-1,0-2.1,0-3.2c-0.1-10.8,0.2-21.6,1.9-32.3c0.4-2.3,1-4.6,1.5-6.9l0,0c2.9-14.1,9.4-26.5,18-37.9
	c4.4-5.2,8.7-10.6,13.6-15.4c3-2.9,6.6-5,10.5-7.2c0.5,3.6-1.2,6-1.8,8.7c-0.2,1.2-0.6,2.4-1,3.6c-0.4,1.2-0.6,2.4,0.9,2.8
	c1.3,0.4,1.7-1,1.9-1.8c1.5-4.7,2.9-9.3,4.3-14C235.7,430.4,236,428.7,236.5,427.1z"/>
</svg>
