<?xml version="1.0" encoding="utf-8"?>
<!-- Generator: Adobe Illustrator 23.0.1, SVG Export Plug-In . SVG Version: 6.00 Build 0)  -->
<svg version="1.1" id="Layer_1" xmlns="http://www.w3.org/2000/svg" xmlns:xlink="http://www.w3.org/1999/xlink" x="0px" y="0px"
	 viewBox="0 0 1002.352 362.355" style="enable-background:new 0 0 1002.352 362.355;" xml:space="preserve">
<style type="text/css">
	.st0{fill:#FFFFFF;}
	.st1{fill:#F9CF56;}
	.st2{fill:#4D4D68;}
	.st3{fill:#A98F6E;}
	.st4{fill:none;stroke:#4D4D68;stroke-width:10;stroke-linecap:round;stroke-miterlimit:10;}
	.st5{fill:#F6CD66;}
	.st6{fill:#27346D;}
	.st7{fill:none;stroke:#27346D;stroke-width:10;stroke-linecap:round;stroke-miterlimit:10;}
	.st8{fill:#73569B;}
	.st9{fill:#E96963;}
</style>
<g id="XMLID_2_">
	<g>
		<path class="st5" d="M125.585,103.711c-0.156,1.439-0.371,2.879-0.657,4.307L105.147,88.08c-6.464-6.516-16.984-6.558-23.51-0.093
			c6.526-6.464,6.568-16.994,0.093-23.51L60.386,42.961c17.413-3.191,36.042,1.983,49.439,15.497
			C122.125,70.857,127.379,87.608,125.585,103.711z"/>
		<path class="st5" d="M70.577,256.484l-36.915,48.964c-6.394,8.485-19.916,3.931-19.874-6.699l0.055-13.9l0.39,0.002l45.892-60.878
			c6.906-9.143,10.661-20.288,10.706-31.748l0.145-36.37l-0.029-2.8c13.961-0.124,27.882-5.489,38.564-16.097
			c8.253-8.177,13.393-18.317,15.415-28.939l0.637,0.643l-0.229,57.64c-0.046,11.46-3.8,22.595-10.696,31.748l-24.228,32.134
			L70.577,256.484z"/>
		<path class="st1" d="M125.585,103.711l-0.02,4.95l-0.637-0.643C125.213,106.59,125.429,105.151,125.585,103.711z"/>
		<path class="st6" d="M92.257,105.639c4.333,4.367,4.305,11.397-0.063,15.73c-4.357,4.323-11.397,4.295-15.72-0.063
			c-4.323-4.367-4.295-11.397,0.063-15.73C80.894,101.254,87.934,101.282,92.257,105.639z"/>
		<path class="st6" d="M70.977,155.855l-0.145,36.37c-0.046,11.46-3.8,22.605-10.706,31.748L14.233,284.85l-0.39-0.002L14.586,98.12
			l0.33,0.001c0.135,13.951,5.499,27.852,16.097,38.524c10.986,11.074,25.484,16.551,39.935,16.409L70.977,155.855z"/>
		<path class="st6" d="M68.295,103.403l-0.032,8.17c-0.004,0.9-0.567,1.708-1.418,2.034l-14.422,5.463
			c-1.322,0.495-2.607-0.8-2.092-2.118l5.567-14.378c0.333-0.849,1.146-1.405,2.056-1.402l8.16,0.032
			C67.324,101.21,68.3,102.193,68.295,103.403z"/>
		<circle class="st6" cx="56.178" cy="85.055" r="11.116"/>
	</g>
	<g>
		<path class="st7" d="M124.927,108.019c-2.022,10.622-7.163,20.762-15.415,28.939c-10.682,10.608-24.604,15.972-38.564,16.097
			c-14.451,0.143-28.949-5.335-39.935-16.409c-10.598-10.672-15.962-24.574-16.097-38.524c-0.152-14.461,5.325-28.979,16.409-39.975
			c8.253-8.187,18.433-13.247,29.061-15.185c17.413-3.191,36.042,1.983,49.439,15.497c12.301,12.399,17.554,29.15,15.76,45.253
			C125.429,105.151,125.213,106.59,124.927,108.019z"/>
		<path class="st7" d="M63.405,15.513l-3.444,3.416c-6.516,6.464-6.558,16.994-0.093,23.51l0.518,0.522L81.73,64.477
			c6.474,6.516,6.432,17.046-0.093,23.51"/>
		<path class="st7" d="M153.963,106.794l-3.444,3.416c-6.516,6.464-17.036,6.422-23.51-0.093l-1.444-1.456l-0.637-0.643
			L105.147,88.08c-6.464-6.516-16.984-6.558-23.51-0.093"/>
		<path class="st7" d="M14.586,98.12l-0.743,186.729l-0.055,13.9c-0.042,10.63,13.48,15.184,19.874,6.699l36.915-48.964
			l19.835-26.301l24.228-32.134c6.896-9.153,10.651-20.288,10.696-31.748l0.229-57.64l0.02-4.95l0.02-5.15"/>
		<path class="st7" d="M14.233,284.85l45.892-60.878c6.906-9.143,10.661-20.288,10.706-31.748l0.145-36.37"/>
		<polyline class="st7" points="38.067,346.845 71.946,301.9 91.72,275.678 127.359,228.409 		"/>
		<polyline class="st7" points="70.577,256.374 70.577,256.484 70.401,300.733 		"/>
		<line class="st7" x1="90.71" y1="230.414" x2="90.534" y2="274.783"/>
	</g>
</g>
<g>
	<path class="st6" d="M989.965,217.834c-6.536,0-12.789,0-19.676,0c0-2.113,0.005-4.059-0.001-6.006
		c-0.052-18.481,0.337-36.978-0.287-55.44c-0.601-17.775-19.144-29.098-35.678-22.455c-12.312,4.947-20.164,16.394-20.243,29.942
		c-0.104,17.809-0.026,35.62-0.026,53.815c-6.585,0-12.964,0-19.669,0c0-32.901,0-65.802,0-99.138c6.225,0,12.612,0,19.381,0
		c0.145,1.352,0.314,2.932,0.577,5.385c1.841-1.344,3.328-2.464,4.85-3.535c13.861-9.758,28.733-10.986,43.91-4.036
		c15.476,7.087,25.575,19.465,26.563,36.481C990.907,174.246,989.965,195.771,989.965,217.834z"/>
	<g>
		<path class="st6" d="M647.469,267.265c4.716-4.674,9.227-9.144,13.774-13.65c14.927,12.561,31.291,15.091,48.21,4.455
			c16.287-10.238,19.08-26.478,17.236-44.429c-13.205,10.082-27.939,13.189-44.007,9.892c-13.383-2.746-24.274-9.678-32.679-20.397
			c-16.453-20.983-15.481-51.097,1.733-71.117c16.987-19.756,50.908-27.361,75.161-8.168c0-1.745,0-3.294,0-5.028
			c6.707,0,13.138,0,19.834,0c0.051,0.703,0.157,1.472,0.157,2.242c0.008,34.881,0.113,69.762-0.026,104.642
			c-0.111,27.936-18.811,51.28-46.149,57.133c-19.541,4.183-37.014-0.627-51.91-14.166
			C648.345,268.258,647.948,267.773,647.469,267.265z M727.018,168.627c0-1.079,0-2.157,0-3.236
			c-0.004-20.237-17.262-35.349-37.316-32.676c-15.453,2.06-27.984,13.693-31.108,28.879c-3.032,14.74,3.775,30.107,16.907,38.169
			c13.057,8.016,30.041,6.845,40.582-2.996C724.201,189.187,727.599,179.65,727.018,168.627z"/>
		<path class="st6" d="M208.907,213.364c0,23.798,0,47.128,0,70.673c-6.622,0-13.035,0-19.644,0c0-54.966,0-110.004,0-165.22
			c6.401,0,12.818,0,19.45,0c0.102,1.66,0.203,3.301,0.328,5.337c13.477-10.497,28.377-13.55,44.63-10.122
			c13.249,2.794,24.157,9.548,32.456,20.244c16.683,21.5,15.5,51.019-2.331,71.383C266.344,225.591,231.968,231.717,208.907,213.364
			z M208.874,168.305c0,1.079-0.017,2.157,0.003,3.236c0.296,16.37,12.668,35.841,37.547,32.731
			c25.247-3.156,39.094-29.902,27.507-52.561c-9.373-18.33-34.683-25.168-50.894-13.546
			C212.804,145.501,208.721,155.967,208.874,168.305z"/>
		<path class="st6" d="M400.712,212.994c-28.373,21.95-63.198,8.401-77.413-10.483c-15.808-21-14.909-50.759,2.961-71.295
			c15.94-18.318,49.179-26.966,74.203-7.172c0.094-1.87,0.175-3.488,0.263-5.245c6.581,0,12.994,0,19.558,0
			c0,33.179,0,66.212,0,99.437c-6.474,0-12.887,0-19.573,0C400.712,216.647,400.712,215.069,400.712,212.994z M400.61,168.757
			c0-1.168,0.052-2.338-0.008-3.503c-1.023-20.13-17.752-37.466-41.334-31.612c-15.046,3.735-24.345,13.706-26.897,28.951
			c-2.51,14.991,2.957,27.197,15.452,35.97c11.879,8.34,29.108,8.062,39.819-0.646C396.844,190.437,400.752,180.463,400.61,168.757z
			"/>
		<path class="st6" d="M619.45,218.283c-6.568,0-12.919,0-19.373,0c-0.086-1.725-0.165-3.312-0.268-5.388
			c-14.881,11.534-31.212,14.108-48.733,9.108c-12.345-3.522-22.231-10.799-29.617-21.291
			c-15.287-21.717-13.204-50.396,4.528-70.054c15.625-17.323,48.605-26.598,73.786-6.611c0.118-1.834,0.223-3.48,0.338-5.263
			c6.451,0,12.797,0,19.339,0C619.45,151.905,619.45,185.004,619.45,218.283z M600.112,167.533
			c-0.254-2.085-0.387-5.335-1.076-8.463c-3.91-17.75-18.893-28.546-36.386-26.362c-24.092,3.008-38.409,28.556-28.415,50.708
			c8.569,18.995,32.274,27.15,49.416,16.728C595.328,193.043,599.735,181.873,600.112,167.533z"/>
		<path class="st6" d="M875.95,168.561c-0.024,31.113-24.918,55.835-56.176,55.787c-30.459-0.046-55.436-25.207-55.406-55.812
			c0.031-30.857,25.106-55.865,55.97-55.821C851.083,112.76,875.973,137.755,875.95,168.561z M820.37,204.675
			c20.057,0.015,36.198-16.008,36.32-36.053c0.121-19.876-16.108-36.103-36.178-36.173c-19.981-0.07-36.249,16.073-36.311,36.032
			C784.139,188.385,800.402,204.66,820.37,204.675z"/>
		<path class="st6" d="M509.767,121.108c-4.242,5.172-8.323,10.147-12.116,14.771c-3.297-1.176-6.143-2.783-9.14-3.149
			c-8.81-1.075-15.821,3.5-19.442,12.136c-2.574,6.14-3.619,12.629-3.68,19.209c-0.157,16.898-0.084,33.797-0.103,50.696
			c-0.001,1.075,0,2.15,0,3.441c-6.583,0-13.066,0-19.693,0c0-33.123,0-66.16,0-99.572c5.084,0,10.082-0.064,15.077,0.027
			c2.47,0.045,4.619-0.503,6.904-1.59c13.049-6.205,25.985-6.132,38.58,1.4C507.361,119.198,508.44,120.133,509.767,121.108z"/>
	</g>
</g>
</svg>
