<svg id="Layer_1" data-name="Layer 1" xmlns="http://www.w3.org/2000/svg" viewBox="0 0 100 100"><defs><style>.cls-1{fill:#a47de1;}.cls-2{opacity:0.2;}.cls-3{fill:#fafbfc;}.cls-4{opacity:0.5;}.cls-5{fill:#ebddf3;}.cls-6,.cls-8{fill:none;stroke-linecap:round;stroke-miterlimit:10;}.cls-6{stroke:#ebddf3;}.cls-7{fill:#70b9e0;}.cls-8{stroke:#fafbfc;opacity:0.4;}</style></defs><title>resources--prototype</title><rect class="cls-1" width="100" height="100"/><g class="cls-2"><path class="cls-3" d="M21.91,35.53V64.47H19.32c-2.76,0-5-1.81-5-4V39.58c0-2.23,2.24-4,5-4Z"/></g><g class="cls-4"><path class="cls-3" d="M38.49,28.44V71.57H30.91c-2.68,0-4.87-1.72-5-3.86a1.11,1.11,0,0,1,0-.19v-35a1.11,1.11,0,0,1,0-.19c.12-2.14,2.31-3.86,5-3.86Z"/></g><path class="cls-3" d="M85.68,27.4V72.61c0,2.24-2.24,4-5,4H47.49a5.38,5.38,0,0,1-4.2-1.85,3.48,3.48,0,0,1-.8-2.2V27.4a3.48,3.48,0,0,1,.8-2.2,5.38,5.38,0,0,1,4.2-1.85H80.68C83.44,23.35,85.68,25.16,85.68,27.4Z"/><rect class="cls-5" x="47.58" y="28.44" width="8.33" height="8.33" rx="1" ry="1"/><line class="cls-6" x1="59.8" y1="30.86" x2="70.08" y2="30.86"/><line class="cls-6" x1="59.8" y1="34.11" x2="80.08" y2="34.11"/><rect class="cls-5" x="47.58" y="41.03" width="8.33" height="8.33" rx="1" ry="1"/><line class="cls-6" x1="59.8" y1="43.45" x2="74.08" y2="43.45"/><line class="cls-6" x1="59.8" y1="46.7" x2="69.08" y2="46.7"/><rect class="cls-7" x="52.35" y="64.41" width="23.47" height="7.16" rx="2" ry="2"/><line class="cls-8" x1="57.1" y1="67.99" x2="71.08" y2="67.99"/></svg>