<?xml version="1.0" encoding="utf-8"?>
<!-- Generator: Adobe Illustrator 21.1.0, SVG Export Plug-In . SVG Version: 6.00 Build 0)  -->
<svg version="1.1" id="Layer_1" xmlns="http://www.w3.org/2000/svg" xmlns:xlink="http://www.w3.org/1999/xlink" x="0px" y="0px"
	 width="100px" height="100px" viewBox="0 0 100 100" style="enable-background:new 0 0 100 100;" xml:space="preserve">
<style type="text/css">
	.st0{fill:#24292F;}
	.st1{fill:none;stroke:#C3C3C3;stroke-miterlimit:10;stroke-dasharray:6;}
	.st2{fill:#EBEDED;}
	.st3{fill:#3F70C9;}
	.st4{fill:#35B16C;}
	.st5{fill:#FFFFFF;}
	.st6{fill:#DB4B38;}
	.st7{fill:#D4D4D4;}
	.st8{fill:#212121;}
	.st9{fill:url(#SVGID_1_);}
	.st10{fill:url(#SVGID_2_);}
	.st11{fill:url(#SVGID_3_);}
	.st12{fill:#6C8DD3;}
	.st13{fill:#212222;}
	.st14{enable-background:new    ;}
	.st15{fill:#3E3E3E;}
	.st16{fill:#656666;}
	.st17{fill:#F7F7F7;}
	.st18{fill:#C3C3C3;}
	.st19{fill:#9A9A9A;}
	.st20{fill:#BFBEBE;}
	.st21{fill:#717272;}
	.st22{fill:#5A5B5B;}
	.st23{fill:#828B94;}
	.st24{fill:none;stroke:#828B94;stroke-miterlimit:10;}
	.st25{fill:#744C82;}
	.st26{fill:#DCC0E5;}
	.st27{fill:#666666;}
	.st28{opacity:0.6;fill:#FFFFFF;}
	.st29{fill:#F5F6F7;}
	.st30{fill:#5374BA;}
	.st31{fill:#E0E0E0;}
	.st32{fill:#A1A1A1;}
	.st33{fill:#F0E0DE;stroke:#DE4648;stroke-width:2;stroke-miterlimit:10;}
	.st34{fill:#6489D7;}
	.st35{fill:#DB932F;}
	.st36{fill:#5F88DA;}
	.st37{fill:#9E7927;}
	.st38{fill:#CD9B19;}
	.st39{fill:#B79471;}
	.st40{fill:#6C85D8;}
	.st41{fill:#897E44;}
	.st42{fill:#B7A425;}
	.st43{fill:#A99C5F;}
	.st44{fill:#4E94A1;}
	.st45{fill:#DE4648;}
	.st46{fill:#E38893;}
	.st47{fill:#4CA8B7;}
	.st48{opacity:0.5;fill:#91D1AD;}
	.st49{fill:none;stroke:#000000;stroke-width:2;stroke-miterlimit:10;}
	.st50{fill:#FFFFFF;stroke:#4AB87C;stroke-miterlimit:10;}
	.st51{fill:#518ADA;}
	.st52{fill:#3B3B3B;}
	.st53{fill:#09AA66;}
	.st54{opacity:0.5;fill:none;stroke:#667080;stroke-width:3;stroke-linecap:round;stroke-miterlimit:10;}
	.st55{opacity:0.3;fill:none;stroke:#FFFFFF;stroke-width:7;stroke-miterlimit:10;}
	.st56{fill:none;stroke:#445064;stroke-width:7;stroke-linecap:round;stroke-miterlimit:10;}
	.st57{fill:#667080;}
	.st58{opacity:0.5;fill:none;stroke:#667080;stroke-width:4;stroke-miterlimit:10;}
	.st59{opacity:0.3;fill:none;stroke:#FFFFFF;stroke-width:8;stroke-miterlimit:10;}
	.st60{fill:none;stroke:#667080;stroke-width:8;stroke-miterlimit:10;}
	.st61{fill:#231F20;}
	.st62{fill:none;stroke:#3F70C9;stroke-width:2;stroke-miterlimit:10;}
	.st63{fill:#FFA11F;}
	.st64{fill:#DA3D2F;}
	.st65{fill:#70B9E0;}
	.st66{fill:#9F65AE;}
	.st67{fill:#747474;}
	.st68{fill:none;}
	.st69{opacity:0.4;fill:#3F70C9;}
	.st70{fill:none;stroke:#C3C3C3;stroke-miterlimit:10;stroke-dasharray:3;}
	.st71{fill:none;stroke:#EBEBEB;stroke-miterlimit:10;stroke-dasharray:6;}
	.st72{opacity:0.7;fill:#FFFFFF;}
	.st73{fill:#4C4C4C;}
	.st74{fill:#FAFBFC;}
</style>
<rect x="0" class="st0" width="100" height="100"/>
<path class="st74" d="M84.088,47.019c1.429,16.918-9.455,31.546-24.676,35.885c-0.629,0.179-1.253-0.31-1.25-0.964
	c0.017-3.596,0-9.194-0.008-11.413c0-2.29-0.35-4.47-2.12-6.23c1.38-0.27,2.7-0.46,3.99-0.79c3.16-0.8,5.99-2.19,8-4.86
	c1.73-2.3,2.44-4.98,2.76-7.78c0.46-4.13-0.06-8-2.91-11.29c-0.16-0.18-0.21-0.6-0.13-0.84c0.89-2.66,0.56-5.25-0.4-7.81
	c-0.07-0.2-0.39-0.45-0.57-0.43c-0.85,0.07-1.78,0.07-2.55,0.39c-1.84,0.79-3.63,1.72-5.41,2.65c-0.432,0.226-0.929,0.3-1.406,0.202
	c-1.241-0.256-2.472-0.546-3.723-0.692c-3.82-0.44-7.6-0.22-11.34,0.71c-0.31,0.08-0.71-0.05-1.02-0.2
	c-1.84-0.87-3.63-1.84-5.5-2.63c-0.79-0.34-1.74-0.34-2.62-0.44c-0.17-0.02-0.48,0.19-0.55,0.35c-0.94,2.53-1.32,5.11-0.43,7.74
	c0.17,0.52,0.05,0.81-0.23,1.25c-0.81,1.27-1.67,2.55-2.21,3.94c-1.02,2.62-0.84,5.39-0.43,8.11c0.42,2.76,1.3,5.38,3.24,7.5
	c2.16,2.35,4.91,3.66,8.01,4.29c1.09,0.22,2.17,0.4,3.23,0.6c-0.42,0.67-0.9,1.26-1.2,1.92c-0.31,0.67-0.43,1.42-0.65,2.13
	c-0.06,0.17-0.19,0.38-0.34,0.43c-2.45,0.87-4.93,1.37-7.15-0.43c-0.91-0.73-1.59-1.76-2.28-2.72c-1.16-1.61-2.62-2.74-4.61-3
	c-0.53-0.07-1.11,0.2-1.67,0.32c0.29,0.45,0.52,0.97,0.89,1.34c0.59,0.6,1.44,0.98,1.91,1.64c0.84,1.19,1.52,2.49,2.18,3.79
	c0.5,0.98,1.1,1.83,2.02,2.43c2.31,1.52,4.89,1.52,7.49,1.33c0.46-0.03,0.91-0.13,1.45-0.22c0,1.336-0.015,5.571-0.012,8.72
	c0.001,0.653-0.622,1.138-1.249,0.959c-14.333-4.08-24.828-17.271-24.828-32.909c0-19.691,16.646-35.502,36.642-34.126
	C69.091,17.017,82.682,30.373,84.088,47.019z"/>
</svg>
