<?xml version="1.0" encoding="utf-8"?>
<!-- Generator: Adobe Illustrator 21.1.0, SVG Export Plug-In . SVG Version: 6.00 Build 0)  -->
<svg version="1.1" id="Layer_1" xmlns="http://www.w3.org/2000/svg" xmlns:xlink="http://www.w3.org/1999/xlink" x="0px" y="0px"
	 width="685px" height="204.066px" viewBox="0 0 685 204.066" style="enable-background:new 0 0 685 204.066;" xml:space="preserve"
	>
<style type="text/css">
	.st0{fill:none;stroke:#C3C3C3;stroke-miterlimit:10;stroke-dasharray:6;}
	.st1{fill:#EBEDED;}
	.st2{fill:#3F70C9;}
	.st3{fill:#35B16C;}
	.st4{fill:#FFFFFF;}
	.st5{fill:#DB4B38;}
	.st6{fill:#D4D4D4;}
	.st7{fill:#212121;}
	.st8{fill:url(#SVGID_1_);}
	.st9{fill:url(#SVGID_2_);}
	.st10{fill:url(#SVGID_3_);}
	.st11{fill:#6C8DD3;}
	.st12{fill:#212222;}
	.st13{enable-background:new    ;}
	.st14{fill:#3E3E3E;}
	.st15{fill:#656666;}
	.st16{fill:#F7F7F7;}
	.st17{fill:#C3C3C3;}
	.st18{fill:#9A9A9A;}
	.st19{fill:#BFBEBE;}
	.st20{fill:#717272;}
	.st21{fill:#5A5B5B;}
	.st22{fill:#828B94;}
	.st23{fill:none;stroke:#828B94;stroke-miterlimit:10;}
	.st24{fill:#744C82;}
	.st25{fill:#DCC0E5;}
	.st26{fill:#666666;}
	.st27{opacity:0.6;fill:#FFFFFF;}
	.st28{fill:#F5F6F7;}
	.st29{fill:#5374BA;}
	.st30{fill:#E0E0E0;}
	.st31{fill:#A1A1A1;}
	.st32{fill:#F0E0DE;stroke:#DE4648;stroke-width:2;stroke-miterlimit:10;}
	.st33{fill:#6489D7;}
	.st34{fill:#DB932F;}
	.st35{fill:#5F88DA;}
	.st36{fill:#9E7927;}
	.st37{fill:#CD9B19;}
	.st38{fill:#B79471;}
	.st39{fill:#6C85D8;}
	.st40{fill:#897E44;}
	.st41{fill:#B7A425;}
	.st42{fill:#A99C5F;}
	.st43{fill:#4E94A1;}
	.st44{fill:#DE4648;}
	.st45{fill:#E38893;}
	.st46{fill:#4CA8B7;}
	.st47{opacity:0.5;fill:#91D1AD;}
	.st48{fill:none;stroke:#000000;stroke-width:2;stroke-miterlimit:10;}
	.st49{fill:#FFFFFF;stroke:#4AB87C;stroke-miterlimit:10;}
	.st50{fill:#518ADA;}
	.st51{fill:#3B3B3B;}
	.st52{fill:#09AA66;}
	.st53{opacity:0.5;fill:none;stroke:#667080;stroke-width:3;stroke-linecap:round;stroke-miterlimit:10;}
	.st54{opacity:0.3;fill:none;stroke:#FFFFFF;stroke-width:7;stroke-miterlimit:10;}
	.st55{fill:none;stroke:#445064;stroke-width:7;stroke-linecap:round;stroke-miterlimit:10;}
	.st56{fill:#667080;}
	.st57{opacity:0.5;fill:none;stroke:#667080;stroke-width:4;stroke-miterlimit:10;}
	.st58{opacity:0.3;fill:none;stroke:#FFFFFF;stroke-width:8;stroke-miterlimit:10;}
	.st59{fill:none;stroke:#667080;stroke-width:8;stroke-miterlimit:10;}
	.st60{fill:#231F20;}
	.st61{fill:none;stroke:#3F70C9;stroke-width:2;stroke-miterlimit:10;}
	.st62{fill:#FFA11F;}
	.st63{fill:#DA3D2F;}
	.st64{fill:#70B9E0;}
	.st65{fill:#9F65AE;}
	.st66{fill:#747474;}
	.st67{fill:none;}
	.st68{opacity:0.4;fill:#3F70C9;}
	.st69{fill:none;stroke:#C3C3C3;stroke-miterlimit:10;stroke-dasharray:3;}
	.st70{fill:none;stroke:#EBEBEB;stroke-miterlimit:10;stroke-dasharray:6;}
	.st71{opacity:0.7;fill:#FFFFFF;}
	.st72{fill:#4C4C4C;}
</style>
<g>
	<g>
		
			<image style="overflow:visible;opacity:0.3;" width="105" height="53" xlink:href="6CCEFD0128E88A5C.png"  transform="matrix(1 0 0 1 179.5741 84.071)">
		</image>
		<g>
			<path class="st72" d="M268.313,128.957h-72.341c-5.523,0-10-4.477-10-10V98.859c0-5.523,4.477-10,10-10h72.341
				c5.523,0,10,4.477,10,10v20.099C278.313,124.48,273.836,128.957,268.313,128.957z"/>
		</g>
	</g>
	<g>
		<g>
			<path class="st4" d="M200.801,103.535h1.785l3.06,5.52l1.005,2.085h0.06c-0.075-1.005-0.225-2.25-0.225-3.345v-4.26h1.665v9.81
				h-1.785l-3.06-5.52l-1.005-2.084h-0.06c0.075,1.035,0.225,2.22,0.225,3.314v4.29h-1.665V103.535z"/>
			<path class="st4" d="M210.01,109.67c0-2.4,1.665-3.87,3.39-3.87c1.995,0,3.045,1.44,3.045,3.495c0,0.33-0.03,0.66-0.075,0.84
				h-4.68c0.15,1.305,0.99,2.055,2.175,2.055c0.63,0,1.17-0.195,1.71-0.54l0.585,1.08c-0.705,0.465-1.59,0.795-2.52,0.795
				C211.6,113.525,210.01,112.099,210.01,109.67z M214.945,108.965c0-1.14-0.495-1.83-1.5-1.83c-0.87,0-1.62,0.645-1.77,1.83
				H214.945z"/>
			<path class="st4" d="M217.36,105.98h1.74l0.885,3.825c0.15,0.705,0.255,1.395,0.39,2.115h0.06
				c0.135-0.72,0.285-1.425,0.465-2.115l0.96-3.825h1.575l0.975,3.825c0.18,0.705,0.33,1.395,0.495,2.115h0.06
				c0.135-0.72,0.255-1.41,0.39-2.115l0.885-3.825h1.62l-1.875,7.365h-2.055l-0.855-3.435c-0.165-0.69-0.285-1.365-0.45-2.145h-0.06
				c-0.135,0.78-0.27,1.47-0.435,2.16l-0.84,3.42h-1.98L217.36,105.98z"/>
			<path class="st4" d="M232.465,103.535h1.785l3.06,5.52l1.005,2.085h0.06c-0.075-1.005-0.225-2.25-0.225-3.345v-4.26h1.665v9.81
				h-1.785l-3.06-5.52l-1.005-2.084h-0.06c0.075,1.035,0.225,2.22,0.225,3.314v4.29h-1.665V103.535z"/>
			<path class="st4" d="M241.675,109.67c0-2.4,1.665-3.87,3.39-3.87c1.995,0,3.045,1.44,3.045,3.495c0,0.33-0.03,0.66-0.075,0.84
				h-4.68c0.15,1.305,0.99,2.055,2.175,2.055c0.63,0,1.17-0.195,1.71-0.54l0.585,1.08c-0.705,0.465-1.59,0.795-2.52,0.795
				C243.265,113.525,241.675,112.099,241.675,109.67z M246.61,108.965c0-1.14-0.495-1.83-1.5-1.83c-0.87,0-1.62,0.645-1.77,1.83
				H246.61z"/>
			<path class="st4" d="M249.28,109.67c0-2.4,1.665-3.87,3.39-3.87c1.995,0,3.045,1.44,3.045,3.495c0,0.33-0.03,0.66-0.075,0.84
				h-4.68c0.15,1.305,0.99,2.055,2.175,2.055c0.63,0,1.17-0.195,1.71-0.54l0.585,1.08c-0.705,0.465-1.59,0.795-2.52,0.795
				C250.87,113.525,249.28,112.099,249.28,109.67z M254.215,108.965c0-1.14-0.495-1.83-1.5-1.83c-0.87,0-1.62,0.645-1.77,1.83
				H254.215z"/>
			<path class="st4" d="M256.915,109.67c0-2.4,1.515-3.87,3.12-3.87c0.84,0,1.365,0.315,1.935,0.81l-0.06-1.185v-2.67h1.725v10.589
				h-1.425l-0.12-0.795h-0.06c-0.54,0.54-1.29,0.975-2.085,0.975C258.1,113.525,256.915,112.099,256.915,109.67z M261.91,111.275
				v-3.435c-0.51-0.45-1.005-0.615-1.5-0.615c-0.945,0-1.71,0.885-1.71,2.43c0,1.59,0.6,2.445,1.665,2.445
				C260.935,112.099,261.415,111.845,261.91,111.275z"/>
		</g>
	</g>
	<g>
		<g>
			<path class="st3" d="M175.336,126.947c-9.947,0-18.04-8.092-18.04-18.04c0-9.947,8.092-18.039,18.04-18.039
				s18.04,8.092,18.04,18.039C193.375,118.855,185.283,126.947,175.336,126.947z"/>
			<path class="st28" d="M175.336,91.868c9.411,0,17.039,7.629,17.039,17.039c0,9.411-7.629,17.039-17.039,17.039
				s-17.039-7.629-17.039-17.039C158.296,99.497,165.925,91.868,175.336,91.868 M175.336,89.868
				c-10.498,0-19.039,8.541-19.039,19.039c0,10.498,8.541,19.039,19.039,19.039s19.039-8.541,19.039-19.039
				C194.375,98.409,185.834,89.868,175.336,89.868L175.336,89.868z"/>
		</g>
		<path class="st4" d="M183.498,103.699l-8.52,12.78c-0.354,0.531-0.927,0.875-1.562,0.938c-0.07,0.007-0.141,0.011-0.21,0.011
			c-0.562,0-1.105-0.222-1.506-0.624l-4.26-4.26c-0.832-0.831-0.832-2.18,0-3.012c0.831-0.832,2.18-0.832,3.012,0l2.423,2.422
			l7.078-10.618c0.652-0.979,1.975-1.243,2.954-0.591C183.886,101.398,184.15,102.72,183.498,103.699z"/>
	</g>
</g>
<g>
	
		<image style="overflow:visible;opacity:0.3;" width="205" height="108" xlink:href="6CCEFD0128E88A5F.png"  transform="matrix(1 0 0 1 328.5741 29.071)">
	</image>
	<g>
		<path class="st72" d="M516.703,128.957H344.632c-5.523,0-10-4.477-10-10V43.48c0-5.523,4.477-10,10-10h172.072
			c5.523,0,10,4.477,10,10v75.477C526.703,124.48,522.226,128.957,516.703,128.957z"/>
	</g>
</g>
<polygon class="st72" points="441.737,125.62 430.668,136.698 419.599,125.62 430.668,125.517 "/>
<g>
	<g>
		<path class="st4" d="M371.561,53.783l-2.94-6.165h1.86l1.065,2.505c0.285,0.735,0.555,1.41,0.87,2.16h0.06
			c0.315-0.75,0.615-1.425,0.9-2.16l1.065-2.505h1.815l-2.955,6.165v3.645h-1.74V53.783z"/>
		<path class="st4" d="M376.091,53.753c0-2.46,1.665-3.87,3.495-3.87c1.845,0,3.51,1.41,3.51,3.87c0,2.445-1.665,3.855-3.51,3.855
			C377.756,57.608,376.091,56.198,376.091,53.753z M381.326,53.753c0-1.485-0.66-2.46-1.74-2.46s-1.725,0.975-1.725,2.46
			c0,1.47,0.645,2.445,1.725,2.445S381.326,55.223,381.326,53.753z"/>
		<path class="st4" d="M384.731,54.683v-4.62h1.725v4.395c0,1.215,0.345,1.665,1.14,1.665c0.645,0,1.08-0.3,1.635-1.02v-5.04h1.725
			v7.365h-1.41l-0.135-1.08h-0.045c-0.645,0.765-1.365,1.26-2.37,1.26C385.421,57.608,384.731,56.543,384.731,54.683z"/>
		<path class="st4" d="M393.145,50.063h1.425l0.12,1.305h0.06c0.525-0.96,1.305-1.485,2.085-1.485c0.375,0,0.615,0.045,0.84,0.15
			l-0.3,1.5c-0.255-0.075-0.45-0.12-0.765-0.12c-0.585,0-1.29,0.405-1.74,1.515v4.5h-1.725V50.063z"/>
		<path class="st4" d="M401.74,50.063h1.425l0.12,0.99h0.06c0.66-0.645,1.41-1.17,2.415-1.17c1.575,0,2.265,1.065,2.265,2.925v4.62
			H406.3v-4.395c0-1.215-0.345-1.665-1.155-1.665c-0.645,0-1.065,0.315-1.68,0.915v5.145h-1.725V50.063z"/>
		<path class="st4" d="M409.66,53.753c0-2.4,1.665-3.87,3.39-3.87c1.995,0,3.045,1.44,3.045,3.495c0,0.33-0.03,0.66-0.075,0.84
			h-4.68c0.15,1.305,0.99,2.055,2.175,2.055c0.63,0,1.17-0.195,1.71-0.54l0.585,1.08c-0.705,0.465-1.59,0.795-2.52,0.795
			C411.25,57.608,409.66,56.183,409.66,53.753z M414.595,53.048c0-1.14-0.495-1.83-1.5-1.83c-0.87,0-1.62,0.645-1.77,1.83H414.595z"
			/>
		<path class="st4" d="M417.01,50.063h1.74l0.885,3.825c0.15,0.705,0.255,1.395,0.39,2.115h0.06c0.135-0.72,0.285-1.425,0.465-2.115
			l0.96-3.825h1.575l0.975,3.825c0.18,0.705,0.33,1.395,0.495,2.115h0.06c0.135-0.72,0.255-1.41,0.39-2.115l0.885-3.825h1.62
			l-1.875,7.365h-2.055l-0.855-3.435c-0.165-0.69-0.285-1.365-0.45-2.145h-0.06c-0.135,0.78-0.27,1.47-0.435,2.16l-0.84,3.42h-1.98
			L417.01,50.063z"/>
		<path class="st4" d="M432.115,47.619h1.785l3.06,5.52l1.005,2.085h0.06c-0.075-1.005-0.225-2.25-0.225-3.345v-4.26h1.665v9.81
			h-1.785l-3.06-5.52l-1.005-2.084h-0.06c0.075,1.035,0.225,2.22,0.225,3.314v4.29h-1.665V47.619z"/>
		<path class="st4" d="M441.325,53.753c0-2.4,1.665-3.87,3.39-3.87c1.995,0,3.045,1.44,3.045,3.495c0,0.33-0.03,0.66-0.075,0.84
			h-4.68c0.15,1.305,0.99,2.055,2.175,2.055c0.63,0,1.17-0.195,1.71-0.54l0.585,1.08c-0.705,0.465-1.59,0.795-2.52,0.795
			C442.915,57.608,441.325,56.183,441.325,53.753z M446.26,53.048c0-1.14-0.495-1.83-1.5-1.83c-0.87,0-1.62,0.645-1.77,1.83H446.26z
			"/>
		<path class="st4" d="M448.93,53.753c0-2.4,1.665-3.87,3.39-3.87c1.995,0,3.045,1.44,3.045,3.495c0,0.33-0.03,0.66-0.075,0.84
			h-4.68c0.15,1.305,0.99,2.055,2.175,2.055c0.63,0,1.17-0.195,1.71-0.54l0.585,1.08c-0.705,0.465-1.59,0.795-2.52,0.795
			C450.52,57.608,448.93,56.183,448.93,53.753z M453.865,53.048c0-1.14-0.495-1.83-1.5-1.83c-0.87,0-1.62,0.645-1.77,1.83H453.865z"
			/>
		<path class="st4" d="M456.565,53.753c0-2.4,1.515-3.87,3.12-3.87c0.84,0,1.365,0.315,1.935,0.81l-0.06-1.185v-2.67h1.725v10.589
			h-1.425l-0.12-0.795h-0.06c-0.54,0.54-1.29,0.975-2.085,0.975C457.75,57.608,456.565,56.183,456.565,53.753z M461.559,55.358
			v-3.435c-0.51-0.45-1.005-0.615-1.5-0.615c-0.945,0-1.71,0.885-1.71,2.43c0,1.59,0.6,2.445,1.665,2.445
			C460.585,56.183,461.065,55.928,461.559,55.358z"/>
		<path class="st4" d="M467.74,50.063h1.74l0.885,3.825c0.15,0.705,0.255,1.395,0.39,2.115h0.06c0.135-0.72,0.285-1.425,0.465-2.115
			l0.96-3.825h1.575l0.975,3.825c0.18,0.705,0.33,1.395,0.495,2.115h0.06c0.135-0.72,0.255-1.41,0.39-2.115l0.885-3.825h1.62
			l-1.875,7.365h-2.055l-0.855-3.435c-0.165-0.69-0.285-1.365-0.45-2.145h-0.06c-0.135,0.78-0.27,1.47-0.435,2.16l-0.84,3.42h-1.98
			L467.74,50.063z"/>
		<path class="st4" d="M479.155,55.448c0-1.575,1.305-2.4,4.335-2.73c-0.03-0.78-0.345-1.44-1.35-1.44c-0.72,0-1.41,0.33-2.07,0.72
			l-0.63-1.155c0.81-0.51,1.86-0.96,3.03-0.96c1.83,0,2.745,1.125,2.745,3.18v4.365h-1.425l-0.12-0.81h-0.06
			c-0.66,0.555-1.41,0.99-2.28,0.99C480.039,57.608,479.155,56.738,479.155,55.448z M483.49,55.448v-1.65
			c-2.01,0.255-2.67,0.78-2.67,1.515c0,0.66,0.45,0.945,1.065,0.945C482.484,56.258,482.934,55.958,483.49,55.448z"/>
		<path class="st4" d="M486.549,56.588l0.81-1.11c0.66,0.51,1.29,0.825,2.04,0.825c0.795,0,1.17-0.375,1.17-0.885
			c0-0.615-0.795-0.885-1.575-1.185c-0.975-0.36-2.07-0.915-2.07-2.145c0-1.29,1.035-2.205,2.685-2.205
			c1.02,0,1.845,0.42,2.445,0.885l-0.795,1.05c-0.51-0.375-1.035-0.63-1.62-0.63c-0.735,0-1.08,0.345-1.08,0.81
			c0,0.585,0.735,0.81,1.53,1.095c1.005,0.375,2.115,0.855,2.115,2.235c0,1.26-1.005,2.28-2.865,2.28
			C488.334,57.608,487.269,57.173,486.549,56.588z"/>
		<path class="st4" d="M362.193,67.264h1.425l0.12,1.305h0.06c0.525-0.96,1.305-1.485,2.085-1.485c0.375,0,0.615,0.045,0.84,0.15
			l-0.3,1.5c-0.255-0.075-0.45-0.12-0.765-0.12c-0.585,0-1.29,0.405-1.74,1.515v4.5h-1.725V67.264z"/>
		<path class="st4" d="M367.158,70.953c0-2.4,1.665-3.87,3.39-3.87c1.995,0,3.045,1.44,3.045,3.495c0,0.33-0.03,0.66-0.075,0.84
			h-4.68c0.15,1.305,0.99,2.055,2.175,2.055c0.63,0,1.17-0.194,1.71-0.54l0.585,1.08c-0.705,0.465-1.59,0.795-2.52,0.795
			C368.748,74.808,367.158,73.383,367.158,70.953z M372.093,70.248c0-1.14-0.495-1.83-1.5-1.83c-0.87,0-1.62,0.646-1.77,1.83
			H372.093z"/>
		<path class="st4" d="M374.329,67.264h1.755l1.17,3.824c0.195,0.72,0.42,1.47,0.615,2.22h0.06c0.21-0.75,0.42-1.5,0.63-2.22
			l1.17-3.824h1.665l-2.505,7.364h-1.995L374.329,67.264z"/>
		<path class="st4" d="M382.473,64.998c0-0.585,0.45-0.989,1.065-0.989c0.615,0,1.065,0.404,1.065,0.989
			c0,0.57-0.45,0.976-1.065,0.976C382.923,65.974,382.473,65.568,382.473,64.998z M382.668,67.264h1.725v7.364h-1.725V67.264z"/>
		<path class="st4" d="M386.118,70.953c0-2.4,1.665-3.87,3.39-3.87c1.995,0,3.045,1.44,3.045,3.495c0,0.33-0.03,0.66-0.075,0.84
			h-4.68c0.15,1.305,0.99,2.055,2.175,2.055c0.63,0,1.17-0.194,1.71-0.54l0.585,1.08c-0.705,0.465-1.59,0.795-2.52,0.795
			C387.708,74.808,386.118,73.383,386.118,70.953z M391.053,70.248c0-1.14-0.495-1.83-1.5-1.83c-0.87,0-1.62,0.646-1.77,1.83
			H391.053z"/>
		<path class="st4" d="M393.468,67.264h1.74l0.885,3.824c0.15,0.705,0.255,1.396,0.39,2.115h0.06
			c0.135-0.72,0.285-1.425,0.465-2.115l0.96-3.824h1.575l0.975,3.824c0.18,0.705,0.33,1.396,0.495,2.115h0.06
			c0.135-0.72,0.255-1.41,0.39-2.115l0.885-3.824h1.62l-1.875,7.364h-2.055l-0.855-3.435c-0.165-0.69-0.285-1.365-0.45-2.146h-0.06
			c-0.135,0.78-0.27,1.471-0.435,2.16l-0.84,3.42h-1.98L393.468,67.264z"/>
		<path class="st4" d="M404.852,70.953c0-2.4,1.665-3.87,3.39-3.87c1.995,0,3.045,1.44,3.045,3.495c0,0.33-0.03,0.66-0.075,0.84
			h-4.68c0.15,1.305,0.99,2.055,2.175,2.055c0.63,0,1.17-0.194,1.71-0.54l0.585,1.08c-0.705,0.465-1.59,0.795-2.52,0.795
			C406.443,74.808,404.852,73.383,404.852,70.953z M409.788,70.248c0-1.14-0.495-1.83-1.5-1.83c-0.87,0-1.62,0.646-1.77,1.83
			H409.788z"/>
		<path class="st4" d="M412.488,70.953c0-2.4,1.515-3.87,3.12-3.87c0.84,0,1.365,0.315,1.935,0.811l-0.06-1.186v-2.67h1.725v10.59
			h-1.425l-0.12-0.795h-0.06c-0.54,0.54-1.29,0.975-2.085,0.975C413.673,74.808,412.488,73.383,412.488,70.953z M417.482,72.558
			v-3.435c-0.51-0.45-1.005-0.615-1.5-0.615c-0.945,0-1.71,0.886-1.71,2.431c0,1.59,0.6,2.444,1.665,2.444
			C416.508,73.383,416.988,73.128,417.482,72.558z"/>
		<path class="st4" d="M425.957,73.848h-0.045l-0.15,0.78h-1.365v-10.59h1.725v2.73l-0.045,1.229c0.615-0.54,1.38-0.915,2.13-0.915
			c1.845,0,2.91,1.47,2.91,3.735c0,2.534-1.515,3.989-3.149,3.989C427.292,74.808,426.573,74.463,425.957,73.848z M429.332,70.848
			c0-1.47-0.48-2.34-1.59-2.34c-0.54,0-1.05,0.271-1.62,0.825v3.435c0.525,0.45,1.05,0.615,1.485,0.615
			C428.582,73.383,429.332,72.513,429.332,70.848z"/>
		<path class="st4" d="M432.288,77.508l0.315-1.35c0.135,0.045,0.345,0.104,0.525,0.104c0.78,0,1.23-0.524,1.47-1.26l0.135-0.465
			l-2.895-7.274h1.755l1.275,3.614c0.21,0.646,0.42,1.38,0.645,2.07h0.06c0.18-0.675,0.375-1.41,0.555-2.07l1.11-3.614h1.665
			l-2.67,7.694c-0.615,1.665-1.38,2.7-2.985,2.7C432.843,77.658,432.558,77.598,432.288,77.508z"/>
		<path class="st4" d="M442.697,70.953c0-2.46,1.665-3.87,3.495-3.87c1.845,0,3.51,1.41,3.51,3.87c0,2.445-1.665,3.854-3.51,3.854
			C444.362,74.808,442.697,73.398,442.697,70.953z M447.932,70.953c0-1.485-0.66-2.46-1.74-2.46s-1.725,0.975-1.725,2.46
			c0,1.47,0.645,2.445,1.725,2.445S447.932,72.423,447.932,70.953z"/>
		<path class="st4" d="M451.337,71.883v-4.619h1.725v4.395c0,1.215,0.345,1.665,1.14,1.665c0.645,0,1.08-0.3,1.635-1.021v-5.039
			h1.725v7.364h-1.41l-0.135-1.08h-0.045c-0.645,0.765-1.365,1.26-2.37,1.26C452.027,74.808,451.337,73.743,451.337,71.883z"/>
		<path class="st4" d="M459.752,67.264h1.425l0.12,1.305h0.06c0.525-0.96,1.305-1.485,2.085-1.485c0.375,0,0.615,0.045,0.84,0.15
			l-0.3,1.5c-0.255-0.075-0.45-0.12-0.765-0.12c-0.585,0-1.29,0.405-1.74,1.515v4.5h-1.725V67.264z"/>
		<path class="st4" d="M468.602,72.138v-3.51h-1.05v-1.29l1.14-0.074l0.21-2.011h1.44v2.011h1.875v1.364h-1.875v3.51
			c0,0.87,0.33,1.29,1.035,1.29c0.255,0,0.555-0.075,0.765-0.165l0.3,1.275c-0.405,0.135-0.915,0.27-1.5,0.27
			C469.232,74.808,468.602,73.728,468.602,72.138z"/>
		<path class="st4" d="M473.041,70.953c0-2.4,1.665-3.87,3.39-3.87c1.995,0,3.045,1.44,3.045,3.495c0,0.33-0.03,0.66-0.075,0.84
			h-4.68c0.15,1.305,0.99,2.055,2.175,2.055c0.63,0,1.17-0.194,1.71-0.54l0.585,1.08c-0.705,0.465-1.59,0.795-2.52,0.795
			C474.632,74.808,473.041,73.383,473.041,70.953z M477.976,70.248c0-1.14-0.495-1.83-1.5-1.83c-0.87,0-1.62,0.646-1.77,1.83
			H477.976z"/>
		<path class="st4" d="M480.557,72.648c0-1.575,1.305-2.4,4.335-2.73c-0.03-0.78-0.345-1.439-1.35-1.439
			c-0.72,0-1.41,0.33-2.07,0.72l-0.63-1.155c0.81-0.51,1.86-0.96,3.03-0.96c1.83,0,2.745,1.125,2.745,3.18v4.365h-1.425l-0.12-0.81
			h-0.06c-0.66,0.555-1.41,0.989-2.28,0.989C481.442,74.808,480.557,73.937,480.557,72.648z M484.892,72.648v-1.65
			c-2.01,0.255-2.67,0.78-2.67,1.515c0,0.66,0.45,0.945,1.065,0.945C483.887,73.458,484.337,73.158,484.892,72.648z"/>
		<path class="st4" d="M488.686,67.264h1.425l0.12,1.005h0.06c0.615-0.66,1.335-1.186,2.25-1.186c1.08,0,1.695,0.495,2.04,1.32
			c0.705-0.75,1.44-1.32,2.37-1.32c1.56,0,2.28,1.065,2.28,2.925v4.62h-1.74v-4.395c0-1.215-0.36-1.665-1.125-1.665
			c-0.465,0-0.975,0.3-1.545,0.915v5.145h-1.725v-4.395c0-1.215-0.36-1.665-1.14-1.665c-0.45,0-0.975,0.3-1.545,0.915v5.145h-1.725
			V67.264z"/>
		<path class="st4" d="M353.074,89.849c0-1.575,1.305-2.4,4.335-2.73c-0.03-0.78-0.345-1.439-1.35-1.439
			c-0.72,0-1.41,0.33-2.07,0.72l-0.63-1.155c0.81-0.51,1.86-0.96,3.03-0.96c1.83,0,2.745,1.125,2.745,3.18v4.365h-1.425l-0.12-0.81
			h-0.06c-0.66,0.555-1.41,0.989-2.28,0.989C353.958,92.008,353.074,91.138,353.074,89.849z M357.409,89.849v-1.65
			c-2.01,0.255-2.67,0.78-2.67,1.515c0,0.66,0.45,0.945,1.065,0.945C356.403,90.658,356.853,90.358,357.409,89.849z"/>
		<path class="st4" d="M361.203,84.464h1.425l0.12,0.989h0.06c0.66-0.645,1.41-1.17,2.415-1.17c1.575,0,2.265,1.065,2.265,2.925
			v4.62h-1.725v-4.395c0-1.215-0.345-1.665-1.155-1.665c-0.645,0-1.065,0.314-1.68,0.915v5.145h-1.725V84.464z"/>
		<path class="st4" d="M369.153,88.153c0-2.4,1.515-3.87,3.12-3.87c0.84,0,1.365,0.315,1.935,0.811l-0.06-1.186v-2.67h1.725v10.59
			h-1.425l-0.12-0.795h-0.06c-0.54,0.54-1.29,0.975-2.085,0.975C370.338,92.008,369.153,90.583,369.153,88.153z M374.148,89.758
			v-3.435c-0.51-0.45-1.005-0.615-1.5-0.615c-0.945,0-1.71,0.886-1.71,2.431c0,1.59,0.6,2.444,1.665,2.444
			C373.173,90.583,373.653,90.328,374.148,89.758z"/>
		<path class="st4" d="M380.868,82.198c0-0.585,0.45-0.989,1.065-0.989c0.615,0,1.065,0.404,1.065,0.989
			c0,0.57-0.45,0.976-1.065,0.976C381.318,83.174,380.868,82.769,380.868,82.198z M381.063,84.464h1.725v7.364h-1.725V84.464z"/>
		<path class="st4" d="M384.258,90.988l0.81-1.11c0.66,0.511,1.29,0.825,2.04,0.825c0.795,0,1.17-0.375,1.17-0.885
			c0-0.615-0.795-0.885-1.575-1.186c-0.975-0.359-2.07-0.914-2.07-2.145c0-1.29,1.035-2.205,2.685-2.205
			c1.02,0,1.845,0.42,2.445,0.885l-0.795,1.051c-0.51-0.375-1.035-0.631-1.62-0.631c-0.735,0-1.08,0.346-1.08,0.811
			c0,0.585,0.735,0.81,1.53,1.095c1.005,0.375,2.115,0.855,2.115,2.235c0,1.26-1.005,2.279-2.865,2.279
			C386.043,92.008,384.978,91.573,384.258,90.988z"/>
		<path class="st4" d="M394.457,84.464h1.425l0.12,0.989h0.06c0.66-0.645,1.41-1.17,2.415-1.17c1.575,0,2.265,1.065,2.265,2.925
			v4.62h-1.725v-4.395c0-1.215-0.345-1.665-1.155-1.665c-0.645,0-1.065,0.314-1.68,0.915v5.145h-1.725V84.464z"/>
		<path class="st4" d="M402.377,88.153c0-2.46,1.665-3.87,3.495-3.87c1.845,0,3.51,1.41,3.51,3.87c0,2.445-1.665,3.854-3.51,3.854
			C404.042,92.008,402.377,90.599,402.377,88.153z M407.612,88.153c0-1.485-0.66-2.46-1.74-2.46s-1.725,0.975-1.725,2.46
			c0,1.47,0.645,2.445,1.725,2.445S407.612,89.623,407.612,88.153z"/>
		<path class="st4" d="M410.267,84.464h1.74l0.885,3.824c0.15,0.705,0.255,1.396,0.39,2.115h0.06
			c0.135-0.72,0.285-1.425,0.465-2.115l0.96-3.824h1.575l0.975,3.824c0.18,0.705,0.33,1.396,0.495,2.115h0.06
			c0.135-0.72,0.255-1.41,0.39-2.115l0.885-3.824h1.62l-1.875,7.364h-2.055l-0.855-3.435c-0.165-0.69-0.285-1.365-0.45-2.146h-0.06
			c-0.135,0.78-0.27,1.471-0.435,2.16l-0.84,3.42h-1.98L410.267,84.464z"/>
		<path class="st4" d="M425.222,84.464h1.425l0.12,1.305h0.06c0.525-0.96,1.305-1.485,2.085-1.485c0.375,0,0.615,0.045,0.84,0.15
			l-0.3,1.5c-0.255-0.075-0.45-0.12-0.765-0.12c-0.585,0-1.29,0.405-1.74,1.515v4.5h-1.725V84.464z"/>
		<path class="st4" d="M430.187,88.153c0-2.4,1.665-3.87,3.39-3.87c1.995,0,3.045,1.44,3.045,3.495c0,0.33-0.03,0.66-0.075,0.84
			h-4.68c0.15,1.305,0.99,2.055,2.175,2.055c0.63,0,1.17-0.194,1.71-0.54l0.585,1.08c-0.705,0.465-1.59,0.795-2.52,0.795
			C431.777,92.008,430.187,90.583,430.187,88.153z M435.122,87.448c0-1.14-0.495-1.83-1.5-1.83c-0.87,0-1.62,0.646-1.77,1.83
			H435.122z"/>
		<path class="st4" d="M437.702,89.849c0-1.575,1.305-2.4,4.334-2.73c-0.03-0.78-0.345-1.439-1.35-1.439
			c-0.72,0-1.41,0.33-2.07,0.72l-0.63-1.155c0.81-0.51,1.86-0.96,3.03-0.96c1.83,0,2.745,1.125,2.745,3.18v4.365h-1.425l-0.12-0.81
			h-0.06c-0.66,0.555-1.41,0.989-2.28,0.989C438.587,92.008,437.702,91.138,437.702,89.849z M442.037,89.849v-1.65
			c-2.01,0.255-2.669,0.78-2.669,1.515c0,0.66,0.45,0.945,1.065,0.945C441.032,90.658,441.482,90.358,442.037,89.849z"/>
		<path class="st4" d="M445.382,88.153c0-2.4,1.515-3.87,3.12-3.87c0.84,0,1.365,0.315,1.935,0.811l-0.06-1.186v-2.67h1.725v10.59
			h-1.425l-0.12-0.795h-0.06c-0.54,0.54-1.29,0.975-2.085,0.975C446.567,92.008,445.382,90.583,445.382,88.153z M450.376,89.758
			v-3.435c-0.51-0.45-1.005-0.615-1.5-0.615c-0.945,0-1.71,0.886-1.71,2.431c0,1.59,0.6,2.444,1.665,2.444
			C449.402,90.583,449.882,90.328,450.376,89.758z"/>
		<path class="st4" d="M453.827,94.708l0.315-1.35c0.135,0.045,0.345,0.104,0.525,0.104c0.78,0,1.23-0.524,1.47-1.26l0.135-0.465
			l-2.895-7.274h1.755l1.275,3.614c0.21,0.646,0.42,1.38,0.645,2.07h0.06c0.18-0.675,0.375-1.41,0.555-2.07l1.11-3.614h1.665
			l-2.67,7.694c-0.615,1.665-1.38,2.7-2.985,2.7C454.382,94.858,454.097,94.798,453.827,94.708z"/>
		<path class="st4" d="M468.481,82.604c-0.27-0.12-0.555-0.18-0.81-0.18c-0.6,0-0.93,0.39-0.93,1.244v0.796h1.439v1.364h-1.439v6
			h-1.725v-6h-0.99v-1.29l0.99-0.074v-0.766c0-1.529,0.705-2.64,2.445-2.64c0.525,0,1.02,0.12,1.35,0.255L468.481,82.604z"/>
		<path class="st4" d="M468.841,88.153c0-2.46,1.665-3.87,3.495-3.87c1.845,0,3.51,1.41,3.51,3.87c0,2.445-1.665,3.854-3.51,3.854
			C470.506,92.008,468.841,90.599,468.841,88.153z M474.076,88.153c0-1.485-0.66-2.46-1.74-2.46s-1.725,0.975-1.725,2.46
			c0,1.47,0.645,2.445,1.725,2.445S474.076,89.623,474.076,88.153z"/>
		<path class="st4" d="M477.556,84.464h1.425l0.12,1.305h0.06c0.525-0.96,1.305-1.485,2.085-1.485c0.375,0,0.615,0.045,0.84,0.15
			l-0.3,1.5c-0.255-0.075-0.45-0.12-0.765-0.12c-0.585,0-1.29,0.405-1.74,1.515v4.5h-1.725V84.464z"/>
		<path class="st4" d="M485.686,94.708l0.315-1.35c0.135,0.045,0.345,0.104,0.525,0.104c0.78,0,1.23-0.524,1.47-1.26l0.135-0.465
			l-2.895-7.274h1.755l1.275,3.614c0.21,0.646,0.42,1.38,0.645,2.07h0.06c0.18-0.675,0.375-1.41,0.555-2.07l1.11-3.614h1.665
			l-2.67,7.694c-0.615,1.665-1.38,2.7-2.985,2.7C486.241,94.858,485.956,94.798,485.686,94.708z"/>
		<path class="st4" d="M493.006,88.153c0-2.46,1.665-3.87,3.495-3.87c1.845,0,3.51,1.41,3.51,3.87c0,2.445-1.665,3.854-3.51,3.854
			C494.671,92.008,493.006,90.599,493.006,88.153z M498.241,88.153c0-1.485-0.66-2.46-1.74-2.46s-1.725,0.975-1.725,2.46
			c0,1.47,0.645,2.445,1.725,2.445S498.241,89.623,498.241,88.153z"/>
		<path class="st4" d="M501.646,89.083v-4.619h1.725v4.395c0,1.215,0.345,1.665,1.14,1.665c0.645,0,1.08-0.3,1.635-1.021v-5.039
			h1.725v7.364h-1.41l-0.135-1.08h-0.045c-0.645,0.765-1.365,1.26-2.37,1.26C502.336,92.008,501.646,90.943,501.646,89.083z"/>
		<path class="st4" d="M384.206,106.538v-3.51h-1.05v-1.29l1.14-0.074l0.21-2.011h1.44v2.011h1.875v1.364h-1.875v3.51
			c0,0.87,0.33,1.29,1.035,1.29c0.255,0,0.555-0.075,0.765-0.165l0.3,1.275c-0.405,0.135-0.915,0.27-1.5,0.27
			C384.836,109.208,384.206,108.128,384.206,106.538z"/>
		<path class="st4" d="M388.646,105.354c0-2.46,1.665-3.87,3.495-3.87c1.845,0,3.51,1.41,3.51,3.87c0,2.445-1.665,3.854-3.51,3.854
			C390.311,109.208,388.646,107.799,388.646,105.354z M393.881,105.354c0-1.485-0.66-2.46-1.74-2.46s-1.725,0.975-1.725,2.46
			c0,1.47,0.645,2.445,1.725,2.445S393.881,106.823,393.881,105.354z"/>
		<path class="st4" d="M400.286,106.283v-4.619h1.725v4.395c0,1.215,0.345,1.665,1.14,1.665c0.645,0,1.08-0.3,1.635-1.021v-5.039
			h1.725v7.364h-1.41l-0.135-1.08h-0.045c-0.645,0.765-1.365,1.26-2.37,1.26C400.976,109.208,400.286,108.144,400.286,106.283z"/>
		<path class="st4" d="M408.701,101.664h1.425l0.12,0.779h0.06c0.615-0.524,1.41-0.96,2.22-0.96c1.83,0,2.895,1.47,2.895,3.75
			c0,2.52-1.515,3.975-3.149,3.975c-0.645,0-1.29-0.3-1.89-0.81l0.045,1.229v2.311h-1.725V101.664z M413.636,105.248
			c0-1.47-0.48-2.34-1.59-2.34c-0.54,0-1.05,0.271-1.62,0.825v3.435c0.54,0.45,1.05,0.615,1.485,0.615
			C412.886,107.783,413.636,106.913,413.636,105.248z"/>
		<path class="st4" d="M417.161,107.139v-8.7h1.725v8.79c0,0.42,0.195,0.57,0.375,0.57c0.075,0,0.135,0,0.27-0.03l0.225,1.29
			c-0.21,0.09-0.51,0.149-0.915,0.149C417.611,109.208,417.161,108.413,417.161,107.139z"/>
		<path class="st4" d="M420.746,105.354c0-2.46,1.665-3.87,3.495-3.87c1.845,0,3.51,1.41,3.51,3.87c0,2.445-1.665,3.854-3.51,3.854
			C422.411,109.208,420.746,107.799,420.746,105.354z M425.98,105.354c0-1.485-0.66-2.46-1.74-2.46s-1.725,0.975-1.725,2.46
			c0,1.47,0.645,2.445,1.725,2.445S425.98,106.823,425.98,105.354z"/>
		<path class="st4" d="M428.891,107.049c0-1.575,1.305-2.4,4.334-2.73c-0.03-0.78-0.345-1.439-1.35-1.439
			c-0.72,0-1.41,0.33-2.07,0.72l-0.63-1.155c0.81-0.51,1.86-0.96,3.03-0.96c1.83,0,2.745,1.125,2.745,3.18v4.365h-1.425l-0.12-0.81
			h-0.06c-0.66,0.555-1.41,0.989-2.28,0.989C429.775,109.208,428.891,108.338,428.891,107.049z M433.225,107.049v-1.65
			c-2.01,0.255-2.669,0.78-2.669,1.515c0,0.66,0.45,0.945,1.065,0.945C432.22,107.858,432.67,107.559,433.225,107.049z"/>
		<path class="st4" d="M436.57,105.354c0-2.4,1.515-3.87,3.12-3.87c0.84,0,1.365,0.315,1.935,0.811l-0.06-1.186v-2.67h1.725v10.59
			h-1.425l-0.12-0.795h-0.06c-0.54,0.54-1.29,0.975-2.085,0.975C437.755,109.208,436.57,107.783,436.57,105.354z M441.565,106.958
			v-3.435c-0.51-0.45-1.005-0.615-1.5-0.615c-0.945,0-1.71,0.886-1.71,2.431c0,1.59,0.6,2.444,1.665,2.444
			C440.59,107.783,441.07,107.528,441.565,106.958z"/>
		<path class="st4" d="M450.04,108.248h-0.045l-0.15,0.78h-1.365v-10.59h1.725v2.73l-0.045,1.229c0.615-0.54,1.38-0.915,2.13-0.915
			c1.845,0,2.91,1.47,2.91,3.735c0,2.534-1.515,3.989-3.149,3.989C451.375,109.208,450.655,108.863,450.04,108.248z
			 M453.415,105.248c0-1.47-0.48-2.34-1.59-2.34c-0.54,0-1.05,0.271-1.62,0.825v3.435c0.525,0.45,1.05,0.615,1.485,0.615
			C452.665,107.783,453.415,106.913,453.415,105.248z"/>
		<path class="st4" d="M456.73,99.398c0-0.585,0.45-0.989,1.065-0.989c0.615,0,1.065,0.404,1.065,0.989
			c0,0.57-0.45,0.976-1.065,0.976C457.18,100.374,456.73,99.969,456.73,99.398z M456.925,101.664h1.725v7.364h-1.725V101.664z"/>
		<path class="st4" d="M460.854,107.139v-8.7h1.725v8.79c0,0.42,0.195,0.57,0.375,0.57c0.075,0,0.135,0,0.27-0.03l0.225,1.29
			c-0.21,0.09-0.51,0.149-0.915,0.149C461.305,109.208,460.854,108.413,460.854,107.139z"/>
		<path class="st4" d="M464.919,107.139v-8.7h1.725v8.79c0,0.42,0.195,0.57,0.375,0.57c0.075,0,0.135,0,0.27-0.03l0.225,1.29
			c-0.21,0.09-0.51,0.149-0.915,0.149C465.37,109.208,464.919,108.413,464.919,107.139z"/>
		<path class="st4" d="M468.249,108.188l0.81-1.11c0.66,0.51,1.29,0.825,2.04,0.825c0.795,0,1.17-0.375,1.17-0.885
			c0-0.615-0.795-0.885-1.575-1.186c-0.975-0.359-2.07-0.914-2.07-2.145c0-1.29,1.035-2.205,2.685-2.205
			c1.02,0,1.845,0.42,2.445,0.885l-0.795,1.051c-0.51-0.375-1.035-0.63-1.62-0.63c-0.735,0-1.08,0.345-1.08,0.81
			c0,0.585,0.735,0.81,1.53,1.095c1.005,0.375,2.115,0.855,2.115,2.235c0,1.26-1.005,2.279-2.865,2.279
			C470.035,109.208,468.97,108.773,468.249,108.188z"/>
		<path class="st4" d="M475.299,108.038c0-0.675,0.495-1.17,1.125-1.17s1.11,0.495,1.11,1.17s-0.48,1.17-1.11,1.17
			S475.299,108.713,475.299,108.038z"/>
	</g>
</g>
<polygon class="st72" points="243.212,125.62 232.143,136.698 221.074,125.62 232.143,125.517 "/>
<g>
	<circle class="st33" cx="232.143" cy="158.025" r="16"/>
	<path class="st4" d="M239.143,156.525c0,5-7,9-7,9s-7-4-7-9c0-2,1.167-4.001,3.5-4.001s2.816,1.304,3.5,2.333
		c0.684-1.029,1.167-2.333,3.5-2.333S239.143,154.525,239.143,156.525z"/>
</g>
<g>
	<circle class="st33" cx="430.668" cy="158.025" r="16"/>
	<path class="st4" d="M437.668,156.525c0,5-7,9-7,9s-7-4-7-9c0-2,1.167-4.001,3.5-4.001c2.333,0,2.816,1.304,3.5,2.333
		c0.684-1.029,1.167-2.333,3.5-2.333C436.501,152.524,437.668,154.525,437.668,156.525z"/>
</g>
<g>
	<g>
		<path class="st5" d="M325.654,99.258c-9.947,0-18.04-8.092-18.04-18.039c0-9.947,8.092-18.04,18.04-18.04
			c9.947,0,18.039,8.092,18.039,18.04C343.693,91.166,335.6,99.258,325.654,99.258z"/>
		<path class="st28" d="M325.653,64.179c9.411,0,17.039,7.629,17.039,17.039s-7.629,17.039-17.039,17.039
			c-9.411,0-17.039-7.629-17.039-17.039S316.243,64.179,325.653,64.179 M325.653,62.179c-10.498,0-19.039,8.541-19.039,19.039
			s8.541,19.039,19.039,19.039c10.498,0,19.039-8.541,19.039-19.039S336.152,62.179,325.653,62.179L325.653,62.179z"/>
	</g>
	<path class="st4" d="M327.887,81.22l4.912-4.912c0.298-0.298,0.462-0.695,0.462-1.119c0-0.423-0.164-0.82-0.462-1.116
		c-0.617-0.618-1.619-0.616-2.234,0l-4.912,4.912l-4.912-4.913c-0.618-0.613-1.619-0.615-2.235,0.001s-0.616,1.618,0,2.234
		l4.913,4.913l-4.913,4.912c-0.616,0.616-0.616,1.618,0.011,2.245c0.612,0.578,1.596,0.587,2.224-0.011l4.912-4.912l4.922,4.922
		c0.304,0.289,0.698,0.448,1.107,0.448s0.802-0.159,1.116-0.457c0.298-0.298,0.462-0.695,0.462-1.119
		c0-0.423-0.164-0.82-0.462-1.118L327.887,81.22z"/>
</g>
</svg>
