<?xml version="1.0" encoding="utf-8"?>
<!-- Generator: Adobe Illustrator 21.1.0, SVG Export Plug-In . SVG Version: 6.00 Build 0)  -->
<svg version="1.1" id="Layer_1" xmlns="http://www.w3.org/2000/svg" xmlns:xlink="http://www.w3.org/1999/xlink" x="0px" y="0px"
	 viewBox="0 0 685 380.4" style="enable-background:new 0 0 685 380.4;" xml:space="preserve">
<style type="text/css">
	.st0{fill:none;stroke:#C3C3C3;stroke-miterlimit:10;stroke-dasharray:6;}
	.st1{fill:#EBEDED;}
	.st2{fill:#3F70C9;}
	.st3{fill:#35B16C;}
	.st4{fill:#FFFFFF;}
	.st5{fill:#DB4B38;}
	.st6{fill:#D4D4D4;}
	.st7{fill:#212121;}
	.st8{fill:url(#SVGID_1_);}
	.st9{fill:url(#SVGID_2_);}
	.st10{fill:url(#SVGID_3_);}
	.st11{fill:#6C8DD3;}
	.st12{fill:#212222;}
	.st13{enable-background:new    ;}
	.st14{fill:#3E3E3E;}
	.st15{fill:#656666;}
	.st16{fill:#F7F7F7;}
	.st17{fill:#C3C3C3;}
	.st18{fill:#9A9A9A;}
	.st19{fill:#BFBEBE;}
	.st20{fill:#717272;}
	.st21{fill:#5A5B5B;}
	.st22{fill:#828B94;}
	.st23{fill:none;stroke:#828B94;stroke-miterlimit:10;}
	.st24{fill:#744C82;}
	.st25{fill:#DCC0E5;}
	.st26{fill:#666666;}
	.st27{opacity:0.6;fill:#FFFFFF;}
	.st28{fill:#F5F6F7;}
	.st29{fill:#5374BA;}
	.st30{fill:#E0E0E0;}
	.st31{fill:#A1A1A1;}
	.st32{fill:#F0E0DE;stroke:#DE4648;stroke-width:2;stroke-miterlimit:10;}
	.st33{fill:#6489D7;}
	.st34{fill:#DB932F;}
	.st35{fill:#5F88DA;}
	.st36{fill:#9E7927;}
	.st37{fill:#CD9B19;}
	.st38{fill:#B79471;}
	.st39{fill:#6C85D8;}
	.st40{fill:#897E44;}
	.st41{fill:#B7A425;}
	.st42{fill:#A99C5F;}
	.st43{fill:#4E94A1;}
	.st44{fill:#DE4648;}
	.st45{fill:#E38893;}
	.st46{fill:#4CA8B7;}
	.st47{opacity:0.5;fill:#91D1AD;}
	.st48{fill:none;stroke:#000000;stroke-width:2;stroke-miterlimit:10;}
	.st49{fill:#FFFFFF;stroke:#4AB87C;stroke-miterlimit:10;}
	.st50{fill:#518ADA;}
	.st51{fill:#3B3B3B;}
	.st52{fill:#09AA66;}
	.st53{opacity:0.5;fill:none;stroke:#667080;stroke-width:3;stroke-linecap:round;stroke-miterlimit:10;}
	.st54{opacity:0.3;fill:none;stroke:#FFFFFF;stroke-width:7;stroke-miterlimit:10;}
	.st55{fill:none;stroke:#445064;stroke-width:7;stroke-linecap:round;stroke-miterlimit:10;}
	.st56{fill:#667080;}
	.st57{opacity:0.5;fill:none;stroke:#667080;stroke-width:4;stroke-miterlimit:10;}
	.st58{opacity:0.3;fill:none;stroke:#FFFFFF;stroke-width:8;stroke-miterlimit:10;}
	.st59{fill:none;stroke:#667080;stroke-width:8;stroke-miterlimit:10;}
	.st60{fill:#231F20;}
	.st61{fill:none;stroke:#3F70C9;stroke-width:2;stroke-miterlimit:10;}
	.st62{fill:#70B9E0;}
	.st63{fill:#9F65AE;}
	.st64{fill:#747474;}
	.st65{fill:none;}
	.st66{opacity:0.4;fill:#3F70C9;}
	.st67{font-family:'SourceSansPro-Regular';}
	.st68{font-size:71.153px;}
	.st69{fill:none;stroke:#C3C3C3;stroke-miterlimit:10;stroke-dasharray:3;}
	.st70{fill:none;stroke:#EBEBEB;stroke-miterlimit:10;stroke-dasharray:6;}
	.st71{opacity:0.7;fill:#FFFFFF;}
</style>
<line class="st0" x1="29.9" y1="119.5" x2="654.3" y2="119.5"/>
<line class="st0" x1="29.9" y1="56.6" x2="654.3" y2="56.6"/>
<path class="st64" d="M56.6,149.8H48v-3h20.9v3h-8.7v25.4h-3.6L56.6,149.8L56.6,149.8z"/>
<path class="st64" d="M72.3,181.4c2.4,0,3.9-1.9,4.8-4.5l0.4-1.6l-8.4-21.2h3.7l4.3,11.7c0.7,1.8,1.4,4,2,6h0.2
	c0.6-1.9,1.2-4.1,1.8-6l3.7-11.7h3.5l-8,22.8c-1.5,4.2-3.6,7.4-7.9,7.4c-1,0-1.7-0.2-2.4-0.4l0.7-2.9
	C71.1,181.2,71.7,181.4,72.3,181.4z"/>
<path class="st64" d="M95.9,177.1v7.1h-3.6v-30h2.9l0.3,2.4h0.2c1.9-1.6,4.2-2.9,6.8-2.9c5.5,0,8.3,4.2,8.3,10.8
	c0,7.2-4.3,11.4-9.1,11.4c-1.9,0-3.9-1-5.9-2.4L95.9,177.1z M101.1,172.8c3.5,0,6.1-3.2,6.1-8.4c0-4.7-1.6-7.8-5.6-7.8
	c-1.8,0-3.6,1-5.6,2.9v11.1C97.8,172.2,99.7,172.8,101.1,172.8z"/>
<path class="st64" d="M124.6,153.6c5.2,0,9.8,4,9.8,11.1c0,7-4.6,11-9.8,11s-9.8-4.1-9.8-11C114.8,157.7,119.4,153.6,124.6,153.6z
	 M124.6,172.8c3.6,0,6.1-3.3,6.1-8.1c0-4.9-2.4-8.2-6.1-8.2c-3.6,0-6.1,3.3-6.1,8.2S121,172.8,124.6,172.8z"/>
<path class="st64" d="M141.4,174.5v-0.2c-1-0.7-1.9-1.7-1.9-3.5c0-1.7,1.2-3.1,2.3-3.9v-0.2c-1.4-1.1-2.8-3.1-2.8-5.7
	c0-4.6,3.6-7.5,8-7.5c1.1,0,2.2,0.2,3,0.5h7.4v2.7h-4.3c1,1,1.7,2.6,1.7,4.3c0,4.5-3.5,7.4-7.7,7.4c-1,0-2.2-0.3-3.2-0.7
	c-0.7,0.7-1.3,1.3-1.3,2.5c0,1.4,0.9,2.3,3.7,2.3h4.1c4.9,0,7.4,1.6,7.4,5c0,3.9-4.2,7.3-10.7,7.3c-5.2,0-8.8-2.1-8.8-5.7
	C138.3,177.5,139.5,175.8,141.4,174.5z M147.5,182.5c4.1,0,6.7-2.1,6.7-4.3c0-2-1.6-2.6-4.2-2.6h-3.6c-0.9,0-1.8-0.1-2.8-0.3
	c-1.6,1-2.2,2.3-2.2,3.6C141.5,181,143.7,182.5,147.5,182.5z M151.5,161.2c0-3.1-2-4.9-4.5-4.9c-2.5,0-4.5,1.8-4.5,4.9
	c0,3.1,2.1,5,4.5,5S151.5,164.2,151.5,161.2z"/>
<path class="st64" d="M161.8,154.2h2.9l0.3,3.8h0.1c1.5-2.6,3.6-4.3,6-4.3c0.9,0,1.6,0.1,2.3,0.4l-0.7,3.1c-0.7-0.2-1.2-0.3-2.1-0.3
	c-1.7,0-3.9,1.3-5.4,4.9v13.5h-3.6L161.8,154.2L161.8,154.2z"/>
<path class="st64" d="M187.7,161.9c0-2.7-1-5.3-4.3-5.3c-2.4,0-4.7,1.1-6.2,2.3l-1.5-2.5c1.9-1.3,4.9-2.7,8.3-2.7
	c5.2,0,7.4,3.5,7.4,8.7v12.9h-2.9l-0.3-2.5h-0.3c-2.1,1.6-4.4,3-7,3c-3.6,0-6.2-2.3-6.2-6C174.7,165.2,178.7,162.9,187.7,161.9z
	 M181.9,172.9c2,0,3.7-1,5.8-2.8v-5.9c-7.1,0.9-9.5,2.6-9.5,5.3C178.2,171.9,179.8,172.9,181.9,172.9z"/>
<path class="st64" d="M201.5,177.1v7.1h-3.6v-30h2.9l0.3,2.4h0.1c1.9-1.6,4.2-2.9,6.8-2.9c5.4,0,8.3,4.2,8.3,10.8
	c0,7.2-4.3,11.4-9.1,11.4c-1.9,0-3.9-1-5.9-2.4L201.5,177.1z M206.7,172.8c3.5,0,6.1-3.2,6.1-8.4c0-4.7-1.6-7.8-5.6-7.8
	c-1.8,0-3.6,1-5.6,2.9v11.1C203.4,172.2,205.3,172.8,206.7,172.8z"/>
<path class="st64" d="M222,144.4h3.6v8.4l-0.1,4.3c2-1.9,4.2-3.5,7-3.5c4.4,0,6.4,2.9,6.4,8.2v13.4h-3.6v-12.8c0-4-1.2-5.6-4-5.6
	c-2.2,0-3.6,1.1-5.8,3.3v15.3H222L222,144.4L222,144.4z"/>
<path class="st64" d="M244.9,147.6c0-1.4,1-2.3,2.4-2.3c1.4,0,2.5,0.9,2.5,2.3s-1,2.3-2.5,2.3C246.1,149.8,244.9,148.9,244.9,147.6z
	 M245.6,154.2h3.6v21.1h-3.6V154.2z"/>
<path class="st64" d="M264.9,153.6c2.8,0,4.8,1.2,6.2,2.5l-1.8,2.3c-1.3-1-2.6-1.9-4.2-1.9c-3.8,0-6.6,3.3-6.6,8.2s2.6,8.1,6.5,8.1
	c2,0,3.6-1,4.9-2.2l1.6,2.3c-1.9,1.7-4.3,2.8-6.9,2.8c-5.6,0-9.9-4.1-9.9-11C254.7,157.7,259.4,153.6,264.9,153.6z"/>
<path class="st64" d="M286.3,174.5v-0.2c-1-0.7-1.9-1.7-1.9-3.5c0-1.7,1.2-3.1,2.3-3.9v-0.2c-1.4-1.1-2.8-3.1-2.8-5.7
	c0-4.6,3.6-7.5,8-7.5c1.1,0,2.2,0.2,3,0.5h7.4v2.7H298c1,1,1.7,2.6,1.7,4.3c0,4.5-3.5,7.4-7.7,7.4c-1,0-2.2-0.3-3.2-0.7
	c-0.7,0.7-1.3,1.3-1.3,2.5c0,1.4,0.9,2.3,3.7,2.3h4.1c4.9,0,7.4,1.6,7.4,5c0,3.9-4.2,7.3-10.7,7.3c-5.2,0-8.8-2.1-8.8-5.7
	C283.2,177.5,284.4,175.8,286.3,174.5z M292.5,182.5c4.1,0,6.7-2.1,6.7-4.3c0-2-1.6-2.6-4.2-2.6h-3.6c-0.9,0-1.8-0.1-2.8-0.3
	c-1.6,1-2.2,2.3-2.2,3.6C286.3,181,288.7,182.5,292.5,182.5z M296.4,161.2c0-3.1-2-4.9-4.5-4.9s-4.5,1.8-4.5,4.9c0,3.1,2.1,5,4.5,5
	S296.4,164.2,296.4,161.2z"/>
<path class="st64" d="M306.3,154.2h3.6v12.9c0,4,1.2,5.6,4,5.6c2.2,0,3.6-1,5.6-3.6v-15h3.6v21.1h-2.9l-0.3-3.3h-0.2
	c-1.9,2.3-4.1,3.8-6.9,3.8c-4.4,0-6.5-2.9-6.5-8.2V154.2L306.3,154.2z"/>
<path class="st64" d="M329.6,147.6c0-1.4,1-2.3,2.4-2.3c1.4,0,2.5,0.9,2.5,2.3s-1,2.3-2.5,2.3C330.7,149.8,329.6,148.9,329.6,147.6z
	 M330.3,154.2h3.6v21.1h-3.6V154.2z"/>
<path class="st64" d="M348.6,153.6c2.4,0,4.1,0.9,5.9,2.4l-0.2-3.6v-8.2h3.6v30.9H355l-0.3-2.5h-0.2c-1.6,1.6-3.9,3-6.4,3
	c-5.3,0-8.7-4-8.7-11C339.4,157.9,343.7,153.6,348.6,153.6z M348.9,172.8c1.9,0,3.6-1,5.4-2.9v-11c-1.7-1.6-3.4-2.2-5.1-2.2
	c-3.4,0-6.1,3.3-6.1,8.1C343.1,169.8,345.2,172.8,348.9,172.8z"/>
<path class="st64" d="M372.9,153.6c5.4,0,8.4,3.9,8.4,9.9c0,0.8,0,1.5-0.2,2h-14.2c0.3,4.5,3,7.5,7,7.5c2,0,3.6-0.7,5.2-1.6l1.3,2.3
	c-1.8,1.2-4.1,2.2-6.9,2.2c-5.6,0-10.1-4.2-10.1-11C363.4,157.9,368.1,153.6,372.9,153.6z M378.2,163.2c0-4.3-1.9-6.7-5.2-6.7
	c-2.9,0-5.6,2.4-6.1,6.7H378.2z"/>
<path class="st64" d="M386.5,144.4h3.6v26.9c0,1.1,0.5,1.6,1,1.6c0.2,0,0.4,0,0.8-0.1l0.4,2.7c-0.4,0.2-1,0.3-2.1,0.3
	c-2.7,0-3.7-1.7-3.7-4.8L386.5,144.4L386.5,144.4z"/>
<path class="st64" d="M396.9,147.6c0-1.4,1-2.3,2.4-2.3c1.4,0,2.5,0.9,2.5,2.3s-1,2.3-2.5,2.3C398,149.8,396.9,148.9,396.9,147.6z
	 M397.6,154.2h3.6v21.1h-3.6V154.2z"/>
<path class="st64" d="M408.3,154.2h2.9l0.3,3h0.2c2-2,4.2-3.6,7.1-3.6c4.4,0,6.4,2.9,6.4,8.2v13.4h-3.6v-12.8c0-4-1.2-5.6-4-5.6
	c-2.2,0-3.6,1.1-5.8,3.3v15.3h-3.6L408.3,154.2L408.3,154.2z"/>
<path class="st64" d="M439.8,153.6c5.4,0,8.4,3.9,8.4,9.9c0,0.8,0,1.5-0.2,2h-14.2c0.3,4.5,3,7.5,7,7.5c2,0,3.6-0.7,5.2-1.6l1.3,2.3
	c-1.8,1.2-4.1,2.2-6.9,2.2c-5.6,0-10.1-4.2-10.1-11C430.4,157.9,435.1,153.6,439.8,153.6z M445.1,163.2c0-4.3-1.9-6.7-5.2-6.7
	c-2.9,0-5.6,2.4-6.1,6.7H445.1z"/>
<path class="st64" d="M452.9,170.5c1.8,1.5,3.6,2.5,6.2,2.5c2.8,0,4.2-1.5,4.2-3.3c0-2.2-2.5-3.1-4.9-4c-3-1.1-6.2-2.5-6.2-6.1
	c0-3.4,2.7-6,7.2-6c2.7,0,4.9,1,6.6,2.4l-1.7,2.3c-1.4-1-2.9-1.8-4.8-1.8c-2.7,0-3.9,1.4-3.9,3c0,1.9,2.3,2.8,4.7,3.6
	c3,1.1,6.4,2.4,6.4,6.4c0,3.5-2.8,6.3-7.7,6.3c-3,0-5.9-1.3-7.8-2.9L452.9,170.5z"/>
<path class="st64" d="M480.4,144.4h3.6v26.9c0,1.1,0.5,1.6,1,1.6c0.2,0,0.4,0,0.8-0.1l0.4,2.7c-0.4,0.2-1,0.3-2.1,0.3
	c-2.7,0-3.7-1.7-3.7-4.8L480.4,144.4L480.4,144.4z"/>
<path class="st64" d="M490.8,147.6c0-1.4,1-2.3,2.4-2.3s2.5,0.9,2.5,2.3s-1,2.3-2.5,2.3C491.9,149.8,490.8,148.9,490.8,147.6z
	 M491.4,154.2h3.6v21.1h-3.6V154.2z"/>
<path class="st64" d="M499.1,154.2h3.7l4,12c0.6,2.1,1.3,4.2,2,6.2h0.2c0.6-2,1.3-4.2,1.9-6.2l4-12h3.5l-7.5,21.1h-4.2L499.1,154.2z
	"/>
<path class="st64" d="M530.1,153.6c5.4,0,8.4,3.9,8.4,9.9c0,0.8,0,1.5-0.2,2h-14.2c0.3,4.5,3,7.5,7,7.5c2,0,3.6-0.7,5.2-1.6l1.3,2.3
	c-1.8,1.2-4.1,2.2-6.9,2.2c-5.6,0-10.1-4.2-10.1-11C520.7,157.9,525.3,153.6,530.1,153.6z M535.4,163.2c0-4.3-1.9-6.7-5.2-6.7
	c-2.9,0-5.6,2.4-6.1,6.7H535.4z"/>
<path class="st64" d="M552.5,144.4h3.6v8.4l-0.1,4.3c2-1.9,4.2-3.5,7-3.5c4.4,0,6.4,2.9,6.4,8.2v13.4h-3.6v-12.8c0-4-1.2-5.6-4-5.6
	c-2.2,0-3.6,1.1-5.8,3.3v15.3h-3.6V144.4L552.5,144.4z"/>
<path class="st64" d="M584,153.6c5.4,0,8.4,3.9,8.4,9.9c0,0.8,0,1.5-0.2,2H578c0.3,4.5,3,7.5,7,7.5c2,0,3.6-0.7,5.2-1.6l1.3,2.3
	c-1.8,1.2-4.1,2.2-6.9,2.2c-5.6,0-10.1-4.2-10.1-11C574.5,157.9,579.1,153.6,584,153.6z M589.3,163.2c0-4.3-1.9-6.7-5.2-6.7
	c-2.9,0-5.6,2.4-6.1,6.7H589.3z"/>
<path class="st64" d="M597.6,154.2h2.9l0.3,3.8h0.1c1.5-2.6,3.6-4.3,6-4.3c0.9,0,1.6,0.1,2.3,0.4l-0.7,3.1c-0.7-0.2-1.2-0.3-2.1-0.3
	c-1.7,0-3.9,1.3-5.4,4.9v13.5h-3.6L597.6,154.2L597.6,154.2z"/>
<path class="st64" d="M620.1,153.6c5.4,0,8.4,3.9,8.4,9.9c0,0.8,0,1.5-0.2,2h-14.2c0.3,4.5,3,7.5,7,7.5c2,0,3.6-0.7,5.2-1.6l1.3,2.3
	c-1.8,1.2-4.1,2.2-6.9,2.2c-5.6,0-10.1-4.2-10.1-11C610.6,157.9,615.3,153.6,620.1,153.6z M625.3,163.2c0-4.3-1.9-6.7-5.2-6.7
	c-2.9,0-5.6,2.4-6.1,6.7H625.3z"/>
<g>
	<path class="st64" d="M52.8,296.5h-4.1v-4h4.4l0.9-6.7h-4.2v-4h4.8l1.1-9h3.6l-1.1,9h6.1l1.2-9h3.6l-1.1,9h4.2v4h-4.6l-0.9,6.7H71
		v4h-4.9L65,306.7h-3.6l1.2-10.1h-6.1l-1.3,10.1h-3.6L52.8,296.5z M63,292.6l0.9-6.7h-6.2l-0.9,6.7H63z"/>
	<path class="st64" d="M77.6,301.8h7.4V280h-6.1v-3.7c3.3-0.6,5.6-1.5,7.6-2.7H91v28.2h6.5v4.9H77.6V301.8z"/>
	<path class="st64" d="M102.4,303.2c9.2-8.9,15-14.7,15-19.8c0-3.5-1.9-5.7-5.5-5.7c-2.5,0-4.7,1.7-6.4,3.7l-3.3-3.3
		c3-3.2,6.1-5.1,10.6-5.1c6.3,0,10.5,4,10.5,10.1c0,5.9-5.5,11.9-12.1,18.8c1.7-0.2,3.9-0.3,5.6-0.3h8.2v5.1h-22.5V303.2z"/>
	<path class="st64" d="M131.2,298.8c2,2,4.5,3.6,7.9,3.6c3.6,0,6.1-1.9,6.1-5c0-3.5-2.2-5.6-9.7-5.6v-4.3c6.5,0,8.7-2.3,8.7-5.3
		c0-2.8-1.9-4.4-4.9-4.4c-2.6,0-4.6,1.2-6.7,3.1l-3-3.7c2.8-2.5,6-4.2,10-4.2c6.3,0,10.8,3.1,10.8,8.8c0,3.7-2.2,6.2-5.8,7.6v0.2
		c3.9,1,6.9,3.8,6.9,8.2c0,6.1-5.3,9.5-11.6,9.5c-5.4,0-8.9-2.1-11.3-4.7L131.2,298.8z"/>
	<path class="st64" d="M179.1,298.2H175v8.5h-5.6v-8.5h-14.7v-4.1l13.1-20.5h7.1v19.9h4.2L179.1,298.2L179.1,298.2z M169.3,293.6
		V286c0-1.9,0.2-4.9,0.3-6.9h-0.2c-0.9,1.7-1.7,3.4-2.7,5.1l-6.1,9.2L169.3,293.6L169.3,293.6z"/>
	<path class="st64" d="M183.4,298.9c2,1.9,4.4,3.6,7.7,3.6c3.7,0,6.4-2.3,6.4-6.3s-2.4-6.2-6.1-6.2c-2.2,0-3.3,0.6-5.3,1.9l-2.9-1.8
		l1-16.3H202v5h-12.5l-0.7,8c1.4-0.7,2.7-1.1,4.3-1.1c5.6,0,10.4,3.2,10.4,10.3c0,7.2-5.6,11.4-11.6,11.4c-5.4,0-8.8-2.2-11.3-4.6
		L183.4,298.9z"/>
	<path class="st64" d="M227,280.4c-1.2-1.5-3.3-2.5-5.3-2.5c-4.2,0-7.5,3-7.8,12.2c1.9-2.4,4.8-3.9,7.2-3.9c5.7,0,9.7,3.3,9.7,10.2
		c0,6.6-4.8,10.8-10.4,10.8c-6.5,0-12.1-5-12.1-16.2c0-12.8,6.2-18.1,13-18.1c4,0,6.9,1.6,8.8,3.7L227,280.4z M225.3,296.4
		c0-3.9-1.9-5.9-5.2-5.9c-1.9,0-4.1,1-5.9,3.8c0.6,5.9,2.9,8.4,6.2,8.4C223.1,302.8,225.3,300.5,225.3,296.4z"/>
	<path class="st64" d="M249.7,278.7H234v-5h22.2v3.6c-7.7,9.6-9.1,16.6-9.7,29.5h-6.1C241,295,243.3,287.6,249.7,278.7z"/>
	<path class="st64" d="M266.5,289.8v-0.3c-2.5-1.8-4.6-4.2-4.6-7.7c0-5.4,4.2-8.8,10-8.8c5.9,0,9.7,3.6,9.7,8.9
		c0,3.3-2.3,6.1-4.4,7.6v0.2c3,1.7,5.7,4.2,5.7,8.6c0,5.1-4.5,9-11.2,9c-6.4,0-11.3-3.7-11.3-9.1
		C260.6,294.1,263.4,291.4,266.5,289.8z M271.9,303c3.2,0,5.5-1.9,5.5-4.9c0-3.6-3.5-4.9-8-6.7c-2.1,1.5-3.6,3.6-3.6,6.2
		C265.8,300.9,268.5,303,271.9,303z M276.8,282.3c0-2.9-1.8-5-4.9-5c-2.5,0-4.5,1.6-4.5,4.5c0,3.3,2.9,4.8,6.7,6.2
		C275.8,286.3,276.8,284.4,276.8,282.3z"/>
	<path class="st64" d="M290.8,299.9c1.2,1.5,3.3,2.5,5.3,2.5c4.2,0,7.5-3,7.8-12.2c-1.9,2.4-4.9,3.8-7.2,3.8
		c-5.6,0-9.6-3.3-9.6-10.2c0-6.6,4.8-10.8,10.4-10.8c6.4,0,12,5,12,16.1c0,12.8-6.2,18.2-13,18.2c-4,0-6.9-1.6-8.8-3.7L290.8,299.9z
		 M303.7,285.9c-0.6-5.8-3-8.3-6.2-8.3c-2.7,0-4.9,2.3-4.9,6.2c0,3.9,1.9,5.9,5.3,5.9C299.8,289.8,301.9,288.6,303.7,285.9z"/>
	<path class="st64" d="M313.9,290c0-11.2,4.3-17,11.3-17c6.9,0,11.3,5.9,11.3,17c0,11.2-4.3,17.3-11.3,17.3
		C318.2,307.4,313.9,301.2,313.9,290z M330.6,290c0-9.4-2.3-12.3-5.6-12.3c-3.2,0-5.6,2.9-5.6,12.3c0,9.4,2.3,12.7,5.6,12.7
		C328.4,302.7,330.6,299.4,330.6,290z"/>
	<path class="st64" d="M338.9,312.9c3.3-1.3,5.3-3.6,5.3-6.3c-0.2,0-0.3,0-0.4,0c-2,0-3.8-1.4-3.8-3.7c0-2.3,1.8-3.7,4-3.7
		c2.8,0,4.5,2.3,4.5,6.2c0,5.1-2.9,9-8.2,10.8L338.9,312.9z"/>
	<path class="st64" d="M363.6,272.7H375c7.5,0,12.9,2.6,12.9,10.5c0,7.5-5.6,11-12.9,11h-5.4v12.5h-6.1V272.7z M374.5,289.4
		c5.1,0,7.5-2,7.5-6.2c0-4.2-2.5-5.6-7.5-5.6h-4.9v11.9L374.5,289.4L374.5,289.4z"/>
	<path class="st64" d="M393.8,281.2h4.9l0.4,4.5h0.2c1.8-3.3,4.5-5.1,7.2-5.1c1.3,0,2.2,0.2,2.9,0.5l-1,5.2
		c-0.9-0.3-1.6-0.4-2.7-0.4c-2,0-4.5,1.4-6.1,5.3v15.6h-6L393.8,281.2L393.8,281.2z"/>
	<path class="st64" d="M412.5,273.3c0-2,1.6-3.5,3.7-3.5s3.7,1.4,3.7,3.5c0,2-1.6,3.4-3.7,3.4S412.5,275.3,412.5,273.3z
		 M413.1,281.2h6v25.6h-6V281.2z"/>
	<path class="st64" d="M437.9,280.6c3.3,0,5.8,1.3,7.5,2.9l-2.9,3.8c-1.4-1.2-2.7-1.9-4.3-1.9c-4.1,0-6.9,3.4-6.9,8.5
		s2.8,8.5,6.9,8.5c2.1,0,3.8-1,5.3-2.2l2.5,3.8c-2.4,2.2-5.5,3.3-8.4,3.3c-6.9,0-12.3-4.9-12.3-13.4
		C425.1,285.4,431.1,280.6,437.9,280.6z"/>
	<path class="st64" d="M459.7,280.6c6.9,0,10.6,5,10.6,12.1c0,1.1-0.1,2.2-0.3,2.8h-16.2c0.5,4.6,3.5,7.2,7.5,7.2
		c2.2,0,4.1-0.7,5.9-1.9l2,3.7c-2.4,1.6-5.6,2.8-8.8,2.8c-7.1,0-12.6-4.9-12.6-13.4C447.9,285.6,453.7,280.6,459.7,280.6z
		 M465.1,291.7c0-4.1-1.7-6.5-5.2-6.5c-3,0-5.6,2.3-6.2,6.5H465.1z"/>
	<path class="st64" d="M484.9,273.3c0-2,1.6-3.5,3.7-3.5c2.2,0,3.7,1.4,3.7,3.5c0,2-1.6,3.4-3.7,3.4
		C486.5,276.7,484.9,275.3,484.9,273.3z M485.6,281.2h6v25.6h-6L485.6,281.2L485.6,281.2z"/>
	<path class="st64" d="M499.5,299.9c2.3,1.7,4.5,2.9,7.1,2.9c2.8,0,4.1-1.3,4.1-3c0-2.2-2.8-3-5.5-4.1c-3.4-1.2-7.2-3.2-7.2-7.5
		c0-4.5,3.6-7.6,9.3-7.6c3.6,0,6.4,1.5,8.5,3l-2.8,3.6c-1.7-1.3-3.6-2.2-5.6-2.2c-2.5,0-3.7,1.2-3.7,2.8c0,2,2.5,2.8,5.3,3.8
		c3.5,1.3,7.4,2.9,7.4,7.7c0,4.3-3.5,7.9-10,7.9c-3.5,0-7.2-1.5-9.7-3.6L499.5,299.9z"/>
	<path class="st64" d="M547.5,280.7c-1.9-1.7-3.6-2.8-6.1-2.8c-2.8,0-4.5,1.5-4.5,4.2c0,6.2,14.1,5,14.1,15.5c0,4.9-2.9,8.6-8.1,9.5
		v5.4h-4.2v-5.2c-3.2-0.3-6.7-1.7-9-4l2.7-4.1c2.4,1.9,4.9,3.2,7.7,3.2c3.4,0,5-1.6,5-4.5c0-6.9-14.1-5.9-14.1-15.7
		c0-4.9,3-8.2,7.7-9.1v-5.3h4.2v5.2c3.3,0.4,5.6,2,7.5,4.1L547.5,280.7z"/>
	<path class="st64" d="M558.3,298.8c2,2,4.5,3.6,7.9,3.6c3.6,0,6.1-1.9,6.1-5c0-3.5-2.2-5.6-9.7-5.6v-4.3c6.5,0,8.7-2.3,8.7-5.3
		c0-2.8-1.9-4.4-4.9-4.4c-2.6,0-4.6,1.2-6.7,3.1l-3-3.7c2.8-2.5,6-4.2,10-4.2c6.3,0,10.8,3.1,10.8,8.8c0,3.7-2.2,6.2-5.8,7.6v0.2
		c3.9,1,6.9,3.8,6.9,8.2c0,6.1-5.3,9.5-11.6,9.5c-5.4,0-8.9-2.1-11.3-4.7L558.3,298.8z"/>
	<path class="st64" d="M586.6,299.9c1.2,1.5,3.3,2.5,5.3,2.5c4.2,0,7.5-3,7.8-12.2c-1.9,2.4-4.9,3.8-7.2,3.8
		c-5.6,0-9.6-3.3-9.6-10.2c0-6.6,4.8-10.8,10.4-10.8c6.4,0,12,5,12,16.1c0,12.8-6.2,18.2-13,18.2c-4,0-6.9-1.6-8.8-3.7L586.6,299.9z
		 M599.5,285.9c-0.6-5.8-3-8.3-6.2-8.3c-2.7,0-4.9,2.3-4.9,6.2c0,3.9,1.9,5.9,5.3,5.9C595.4,289.8,597.7,288.6,599.5,285.9z"/>
	<path class="st64" d="M612.2,299.9c1.2,1.5,3.3,2.5,5.3,2.5c4.2,0,7.5-3,7.8-12.2c-1.9,2.4-4.9,3.8-7.2,3.8
		c-5.6,0-9.6-3.3-9.6-10.2c0-6.6,4.8-10.8,10.4-10.8c6.4,0,12,5,12,16.1c0,12.8-6.2,18.2-13,18.2c-4,0-6.9-1.6-8.8-3.7L612.2,299.9z
		 M625.2,285.9c-0.6-5.8-3-8.3-6.2-8.3c-2.7,0-4.9,2.3-4.9,6.2c0,3.9,1.9,5.9,5.3,5.9C621.1,289.8,623.3,288.6,625.2,285.9z"/>
	<path class="st2" d="M49.2,344.8c1.1,1.2,2.7,2,4.4,2c2.1,0,3.3-1,3.3-2.6c0-1.6-1.1-2.2-2.7-2.8l-2.3-1c-1.5-0.6-3.2-1.7-3.2-4.1
		c0-2.4,2.2-4.2,5-4.2c1.9,0,3.6,0.8,4.7,2l-1,1.3c-1-1-2.2-1.5-3.6-1.5c-1.8,0-2.9,0.9-2.9,2.3c0,1.6,1.4,2.1,2.7,2.7l2.3,1
		c1.8,0.8,3.3,1.9,3.3,4.2c0,2.5-2.1,4.5-5.5,4.5c-2.3,0-4.2-1-5.6-2.3L49.2,344.8z"/>
	<path class="st2" d="M66.9,336.2c2.9,0,5.5,2.3,5.5,6.2c0,3.9-2.6,6.2-5.5,6.2c-2.9,0-5.5-2.3-5.5-6.2
		C61.4,338.5,64,336.2,66.9,336.2z M66.9,347c2.1,0,3.4-1.8,3.4-4.5c0-2.7-1.4-4.6-3.4-4.6c-2,0-3.4,1.8-3.4,4.6
		C63.5,345.2,64.9,347,66.9,347z"/>
	<path class="st2" d="M75.7,336.5h2v7.2c0,2.2,0.7,3.1,2.2,3.1c1.2,0,2.1-0.6,3.2-2v-8.4h2v11.8h-1.6l-0.2-1.8h-0.1
		c-1.1,1.3-2.3,2.2-3.9,2.2c-2.5,0-3.6-1.6-3.6-4.6L75.7,336.5L75.7,336.5z"/>
	<path class="st2" d="M89.6,336.5h1.6l0.2,2.2h0.1c0.8-1.5,2-2.4,3.4-2.4c0.5,0,0.9,0.1,1.3,0.3l-0.3,1.7c-0.3-0.1-0.7-0.2-1.1-0.2
		c-1,0-2.2,0.7-2.9,2.7v7.5h-2v-11.8H89.6z"/>
	<path class="st2" d="M103.1,336.2c1.6,0,2.7,0.7,3.5,1.4l-1,1.3c-0.7-0.6-1.5-1-2.3-1c-2.2,0-3.7,1.8-3.7,4.6
		c0,2.7,1.5,4.5,3.6,4.5c1.1,0,2.1-0.5,2.8-1.2l0.9,1.3c-1,1-2.4,1.6-3.8,1.6c-3.1,0-5.6-2.3-5.6-6.2
		C97.4,338.5,100.1,336.2,103.1,336.2z"/>
	<path class="st2" d="M113.8,336.2c3,0,4.7,2.2,4.7,5.6c0,0.4,0,0.8-0.1,1.1h-8c0.2,2.5,1.6,4.2,3.9,4.2c1.1,0,2.1-0.3,2.9-1
		l0.7,1.3c-1,0.7-2.3,1.2-3.9,1.2c-3.1,0-5.6-2.3-5.6-6.2C108.5,338.6,111.1,336.2,113.8,336.2z M116.8,341.5c0-2.4-1-3.7-2.9-3.7
		c-1.6,0-3.1,1.4-3.4,3.7H116.8z"/>
	<path class="st2" d="M127,344.8c1.1,1.2,2.7,2,4.4,2c2.1,0,3.3-1,3.3-2.6c0-1.6-1.1-2.2-2.7-2.8l-2.3-1c-1.5-0.6-3.2-1.7-3.2-4.1
		c0-2.4,2.2-4.2,5-4.2c1.9,0,3.6,0.8,4.7,2l-1,1.3c-1-1-2.2-1.5-3.6-1.5c-1.8,0-2.9,0.9-2.9,2.3c0,1.6,1.4,2.1,2.7,2.7l2.3,1
		c1.8,0.8,3.3,1.9,3.3,4.2c0,2.5-2.1,4.5-5.5,4.5c-2.3,0-4.2-1-5.6-2.3L127,344.8z"/>
	<path class="st2" d="M146.8,340.8c0-1.5-0.5-2.9-2.4-2.9c-1.4,0-2.6,0.6-3.6,1.3l-0.8-1.4c1.1-0.7,2.8-1.6,4.6-1.6
		c2.9,0,4.1,1.9,4.1,4.9v7.2h-1.6l-0.2-1.4h-0.1c-1.1,1-2.4,1.7-3.9,1.7c-2,0-3.5-1.2-3.5-3.4C139.6,342.8,141.7,341.5,146.8,340.8z
		 M143.6,347c1.1,0,2.1-0.5,3.2-1.6v-3.3c-4,0.5-5.3,1.5-5.3,2.9C141.5,346.5,142.4,347,143.6,347z"/>
	<path class="st2" d="M153,336.5h1.6l0.2,1.7h0.1c1.1-1.1,2.3-2,4-2c2.5,0,3.6,1.6,3.6,4.6v7.5h-2v-7.2c0-2.2-0.7-3.1-2.3-3.1
		c-1.2,0-2.1,0.6-3.2,1.8v8.6h-2C153,348.4,153,336.5,153,336.5z"/>
	<path class="st2" d="M166.5,345.7c1,0.9,2.1,1.4,3.5,1.4c1.6,0,2.3-0.9,2.3-1.8c0-1.2-1.4-1.7-2.7-2.3c-1.6-0.6-3.6-1.4-3.6-3.4
		c0-1.9,1.5-3.4,4.1-3.4c1.5,0,2.8,0.6,3.6,1.3l-1,1.3c-0.8-0.6-1.6-1-2.7-1c-1.5,0-2.2,0.8-2.2,1.7c0,1.1,1.3,1.6,2.6,2.1
		c1.7,0.6,3.6,1.3,3.6,3.6c0,1.9-1.6,3.6-4.3,3.6c-1.6,0-3.3-0.7-4.4-1.6L166.5,345.7z"/>
	<path class="st2" d="M182.5,332.4h4.9c3.6,0,5.9,1.2,5.9,4.7c0,3.4-2.4,4.9-5.9,4.9h-2.9v6.3h-2.1V332.4z M187.2,340.4
		c2.8,0,4.2-1,4.2-3.3c0-2.3-1.4-3-4.2-3h-2.6v6.3H187.2z"/>
	<path class="st2" d="M196.7,336.5h1.6l0.2,2.2h0.1c0.8-1.5,2-2.4,3.4-2.4c0.5,0,0.9,0.1,1.3,0.3l-0.3,1.7c-0.3-0.1-0.7-0.2-1.1-0.2
		c-1,0-2.2,0.7-2.9,2.7v7.5h-2v-11.8H196.7z"/>
	<path class="st2" d="M210,336.2c2.9,0,5.5,2.3,5.5,6.2c0,3.9-2.6,6.2-5.5,6.2s-5.5-2.3-5.5-6.2C204.5,338.5,207.1,336.2,210,336.2z
		 M210,347c2.1,0,3.4-1.8,3.4-4.5c0-2.7-1.4-4.6-3.4-4.6c-2,0-3.4,1.8-3.4,4.6C206.6,345.2,208,347,210,347z"/>
	<path class="st2" d="M223.6,332.9c0-0.8,0.6-1.3,1.4-1.3c0.8,0,1.4,0.5,1.4,1.3c0,0.8-0.6,1.3-1.4,1.3
		C224.2,334.1,223.6,333.6,223.6,332.9z M224,336.5h2v11.8h-2V336.5z"/>
	<path class="st2" d="M230.1,345.7c1,0.9,2.1,1.4,3.5,1.4c1.6,0,2.3-0.9,2.3-1.8c0-1.2-1.4-1.7-2.7-2.3c-1.6-0.6-3.6-1.4-3.6-3.4
		c0-1.9,1.5-3.4,4.1-3.4c1.5,0,2.8,0.6,3.6,1.3l-1,1.3c-0.8-0.6-1.6-1-2.7-1c-1.5,0-2.2,0.8-2.2,1.7c0,1.1,1.3,1.6,2.6,2.1
		c1.7,0.6,3.6,1.3,3.6,3.6c0,1.9-1.6,3.6-4.3,3.6c-1.6,0-3.3-0.7-4.4-1.6L230.1,345.7z"/>
	<path class="st2" d="M252.7,340.8c0-1.5-0.5-2.9-2.4-2.9c-1.4,0-2.6,0.6-3.6,1.3l-0.8-1.4c1.1-0.7,2.8-1.6,4.6-1.6
		c2.9,0,4.1,1.9,4.1,4.9v7.2h-1.6l-0.2-1.4h-0.1c-1.1,1-2.4,1.7-3.9,1.7c-2,0-3.5-1.2-3.5-3.4C245.4,342.8,247.6,341.5,252.7,340.8z
		 M249.5,347c1.1,0,2.1-0.5,3.2-1.6v-3.3c-4,0.5-5.3,1.5-5.3,2.9C247.4,346.5,248.2,347,249.5,347z"/>
	<path class="st2" d="M263.8,331h2v4.7l-0.1,2.2c1-1,2.3-1.6,3.7-1.6c3,0,4.7,2.3,4.7,6c0,4-2.4,6.4-5.1,6.4c-1.1,0-2.3-0.5-3.4-1.5
		h-0.1l-0.2,1.1h-1.6V331z M268.7,347c1.9,0,3.4-1.7,3.4-4.7c0-2.6-0.9-4.3-3.1-4.3c-1,0-2.1,0.5-3.1,1.6v6.2
		C266.8,346.7,267.9,347,268.7,347z"/>
	<path class="st2" d="M282.1,336.2c3,0,4.7,2.2,4.7,5.6c0,0.4,0,0.8-0.1,1.1h-8c0.2,2.5,1.6,4.2,3.9,4.2c1.1,0,2.1-0.3,2.9-1
		l0.7,1.3c-1,0.7-2.3,1.2-3.9,1.2c-3.1,0-5.6-2.3-5.6-6.2C276.9,338.6,279.5,336.2,282.1,336.2z M285.2,341.5c0-2.4-1-3.7-2.9-3.7
		c-1.6,0-3.1,1.4-3.4,3.7H285.2z"/>
	<path class="st2" d="M296.6,340.8c0-1.5-0.5-2.9-2.4-2.9c-1.4,0-2.6,0.6-3.6,1.3l-0.8-1.4c1.1-0.7,2.8-1.6,4.6-1.6
		c2.9,0,4.1,1.9,4.1,4.9v7.2h-1.6l-0.2-1.4h-0.1c-1.1,1-2.4,1.7-3.9,1.7c-2,0-3.5-1.2-3.5-3.4C289.3,342.8,291.6,341.5,296.6,340.8z
		 M293.4,347c1.1,0,2.1-0.5,3.2-1.6v-3.3c-4,0.5-5.3,1.5-5.3,2.9C291.3,346.5,292.2,347,293.4,347z"/>
	<path class="st2" d="M302.7,336.5h2v7.2c0,2.2,0.7,3.1,2.2,3.1c1.2,0,2.1-0.6,3.2-2v-8.4h2v11.8h-1.6l-0.2-1.8h-0.1
		c-1.1,1.3-2.3,2.2-3.9,2.2c-2.5,0-3.6-1.6-3.6-4.6L302.7,336.5L302.7,336.5z"/>
	<path class="st2" d="M316.9,338.2h-1.7v-1.5l1.8-0.1l0.3-3.3h1.6v3.3h3.2v1.6h-3.2v6.6c0,1.5,0.4,2.3,1.8,2.3c0.4,0,1-0.2,1.3-0.3
		l0.3,1.5c-0.7,0.3-1.5,0.4-2.2,0.4c-2.5,0-3.4-1.6-3.4-3.9L316.9,338.2L316.9,338.2z"/>
	<path class="st2" d="M324.9,332.9c0-0.8,0.6-1.3,1.4-1.3c0.8,0,1.4,0.5,1.4,1.3c0,0.8-0.6,1.3-1.4,1.3
		C325.5,334.1,324.9,333.6,324.9,332.9z M325.3,336.5h2v11.8h-2V336.5z"/>
	<path class="st2" d="M337,332.7c-0.4-0.2-0.9-0.3-1.3-0.3c-1.1,0-1.6,0.8-1.6,2.3v1.9h2.5v1.6h-2.5v10.1h-2v-10.1h-1.6v-1.5
		l1.6-0.1v-1.9c0-2.4,1.1-3.9,3.5-3.9c0.7,0,1.5,0.2,2,0.3L337,332.7z"/>
	<path class="st2" d="M338.8,336.5h2v7.2c0,2.2,0.7,3.1,2.2,3.1c1.2,0,2.1-0.6,3.2-2v-8.4h2v11.8h-1.6l-0.2-1.8h-0.1
		c-1.1,1.3-2.3,2.2-3.9,2.2c-2.5,0-3.6-1.6-3.6-4.6L338.8,336.5L338.8,336.5z"/>
	<path class="st2" d="M352.7,331h2v15.1c0,0.6,0.3,0.9,0.5,0.9c0.1,0,0.3,0,0.4-0.1l0.3,1.5c-0.3,0.1-0.6,0.2-1.1,0.2
		c-1.5,0-2.1-1-2.1-2.7V331z"/>
	<path class="st2" d="M357.5,351.3c1.4-0.6,2.2-1.6,2.2-2.9c-0.1,0-0.2,0-0.3,0c-0.8,0-1.5-0.5-1.5-1.4s0.7-1.4,1.5-1.4
		c1,0,1.6,0.9,1.6,2.3c0,2.1-1.2,3.7-3.2,4.5L357.5,351.3z"/>
	<path class="st2" d="M369.4,332.9c0-0.8,0.6-1.3,1.4-1.3s1.4,0.5,1.4,1.3c0,0.8-0.6,1.3-1.4,1.3C370,334.1,369.4,333.6,369.4,332.9
		z M369.7,336.5h2v11.8h-2V336.5z"/>
	<path class="st2" d="M376.3,336.5h1.6l0.2,1.7h0.1c1.1-1.1,2.3-2,4-2c2.5,0,3.6,1.6,3.6,4.6v7.5h-2v-7.2c0-2.2-0.7-3.1-2.3-3.1
		c-1.2,0-2.1,0.6-3.2,1.8v8.6h-2L376.3,336.5L376.3,336.5z"/>
	<path class="st2" d="M390.4,338.2h-1.7v-1.5l1.8-0.1l0.3-3.3h1.6v3.3h3.2v1.6h-3.2v6.6c0,1.5,0.4,2.3,1.8,2.3c0.4,0,1-0.2,1.3-0.3
		l0.3,1.5c-0.7,0.3-1.5,0.4-2.2,0.4c-2.5,0-3.4-1.6-3.4-3.9L390.4,338.2L390.4,338.2z"/>
	<path class="st2" d="M402.9,336.2c3,0,4.7,2.2,4.7,5.6c0,0.4,0,0.8-0.1,1.1h-8c0.2,2.5,1.6,4.2,3.9,4.2c1.1,0,2.1-0.3,2.9-1
		l0.7,1.3c-1,0.7-2.3,1.2-3.9,1.2c-3.1,0-5.6-2.3-5.6-6.2C397.6,338.6,400.2,336.2,402.9,336.2z M405.8,341.5c0-2.4-1-3.7-2.9-3.7
		c-1.6,0-3.1,1.4-3.4,3.7H405.8z"/>
	<path class="st2" d="M411,336.5h1.6l0.2,2.2h0.1c0.8-1.5,2-2.4,3.4-2.4c0.5,0,0.9,0.1,1.3,0.3l-0.3,1.7c-0.3-0.1-0.7-0.2-1.1-0.2
		c-1,0-2.2,0.7-2.9,2.7v7.5h-2v-11.8H411z"/>
	<path class="st2" d="M425.3,332.7c-0.4-0.2-0.9-0.3-1.3-0.3c-1.1,0-1.6,0.8-1.6,2.3v1.9h2.5v1.6h-2.5v10.1h-2v-10.1h-1.6v-1.5
		l1.6-0.1v-1.9c0-2.4,1.1-3.9,3.5-3.9c0.7,0,1.5,0.2,2,0.3L425.3,332.7z"/>
	<path class="st2" d="M433.7,340.8c0-1.5-0.5-2.9-2.4-2.9c-1.4,0-2.6,0.6-3.6,1.3l-0.8-1.4c1.1-0.7,2.8-1.6,4.6-1.6
		c2.9,0,4.1,1.9,4.1,4.9v7.2h-1.6l-0.2-1.4h-0.1c-1.1,1-2.4,1.7-3.9,1.7c-2,0-3.5-1.2-3.5-3.4C426.4,342.8,428.6,341.5,433.7,340.8z
		 M430.5,347c1.1,0,2.1-0.5,3.2-1.6v-3.3c-4,0.5-5.3,1.5-5.3,2.9C428.4,346.5,429.2,347,430.5,347z"/>
	<path class="st2" d="M444.7,336.2c1.6,0,2.7,0.7,3.5,1.4l-1,1.3c-0.7-0.6-1.5-1-2.3-1c-2.2,0-3.7,1.8-3.7,4.6
		c0,2.7,1.5,4.5,3.6,4.5c1.1,0,2.1-0.5,2.8-1.2l0.9,1.3c-1,1-2.4,1.6-3.8,1.6c-3.1,0-5.6-2.3-5.6-6.2
		C439,338.5,441.6,336.2,444.7,336.2z"/>
	<path class="st2" d="M455.3,336.2c3,0,4.7,2.2,4.7,5.6c0,0.4,0,0.8-0.1,1.1h-8c0.2,2.5,1.6,4.2,3.9,4.2c1.1,0,2.1-0.3,2.9-1
		l0.7,1.3c-1,0.7-2.3,1.2-3.9,1.2c-3.1,0-5.6-2.3-5.6-6.2C450.1,338.6,452.7,336.2,455.3,336.2z M458.3,341.5c0-2.4-1-3.7-2.9-3.7
		c-1.6,0-3.1,1.4-3.4,3.7H458.3z"/>
	<path class="st2" d="M472.7,336.2c1.4,0,2.3,0.5,3.3,1.4l-0.1-2v-4.5h2v17.3h-1.6l-0.2-1.4H476c-1,0.9-2.2,1.6-3.6,1.6
		c-2.9,0-4.9-2.3-4.9-6.2C467.6,338.6,470,336.2,472.7,336.2z M472.9,347c1.1,0,2.1-0.5,3-1.6v-6.2c-1-0.9-1.9-1.2-2.9-1.2
		c-1.9,0-3.4,1.8-3.4,4.5C469.6,345.3,470.8,347,472.9,347z"/>
	<path class="st2" d="M482.3,336.5h1.6l0.2,2.2h0.1c0.8-1.5,2-2.4,3.4-2.4c0.5,0,0.9,0.1,1.3,0.3l-0.3,1.7c-0.3-0.1-0.7-0.2-1.1-0.2
		c-1,0-2.2,0.7-2.9,2.7v7.5h-2v-11.8H482.3z"/>
	<path class="st2" d="M490.9,332.9c0-0.8,0.6-1.3,1.4-1.3c0.8,0,1.4,0.5,1.4,1.3c0,0.8-0.6,1.3-1.4,1.3
		C491.5,334.1,490.9,333.6,490.9,332.9z M491.3,336.5h2v11.8h-2V336.5z"/>
	<path class="st2" d="M496,336.5h2.1l2.3,6.7c0.3,1.1,0.7,2.3,1.1,3.5h0.1c0.3-1.1,0.7-2.3,1-3.5l2.3-6.7h2l-4.2,11.8h-2.3
		L496,336.5z"/>
	<path class="st2" d="M513.9,336.2c3,0,4.7,2.2,4.7,5.6c0,0.4,0,0.8-0.1,1.1h-8c0.2,2.5,1.6,4.2,3.9,4.2c1.1,0,2.1-0.3,2.9-1
		l0.7,1.3c-1,0.7-2.3,1.2-3.9,1.2c-3.1,0-5.6-2.3-5.6-6.2C508.6,338.6,511.2,336.2,513.9,336.2z M516.8,341.5c0-2.4-1-3.7-2.9-3.7
		c-1.6,0-3.1,1.4-3.4,3.7H516.8z"/>
	<path class="st2" d="M522,336.5h1.6l0.2,1.7h0.1c1.1-1.1,2.3-2,4-2c2.5,0,3.6,1.6,3.6,4.6v7.5h-2v-7.2c0-2.2-0.7-3.1-2.3-3.1
		c-1.2,0-2.1,0.6-3.2,1.8v8.6h-2V336.5z"/>
	<path class="st2" d="M541.5,338.2h-1.7v-1.5l1.8-0.1l0.3-3.3h1.6v3.3h3.2v1.6h-3.2v6.6c0,1.5,0.4,2.3,1.8,2.3c0.4,0,1-0.2,1.3-0.3
		l0.3,1.5c-0.7,0.3-1.5,0.4-2.2,0.4c-2.5,0-3.4-1.6-3.4-3.9L541.5,338.2L541.5,338.2z"/>
	<path class="st2" d="M550,351.8c1.3,0,2.2-1,2.7-2.5l0.3-0.9l-4.8-11.8h2.1l2.4,6.5c0.3,1,0.8,2.3,1.1,3.3h0.1c0.3-1,0.7-2.3,1-3.3
		l2.1-6.5h1.9l-4.4,12.7c-0.9,2.3-2.1,4.1-4.4,4.1c-0.5,0-1-0.1-1.4-0.3l0.3-1.6C549.3,351.7,549.6,351.8,550,351.8z"/>
	<path class="st2" d="M563.7,349.3v4h-2v-16.7h1.6l0.2,1.4h0.1c1-0.9,2.3-1.6,3.7-1.6c3,0,4.7,2.3,4.7,6c0,4-2.4,6.3-5.1,6.3
		c-1.1,0-2.2-0.5-3.3-1.4L563.7,349.3z M566.5,347c1.9,0,3.4-1.7,3.4-4.7c0-2.6-0.9-4.3-3.1-4.3c-1,0-2,0.5-3.1,1.6v6.2
		C564.7,346.7,565.8,347,566.5,347z"/>
	<path class="st2" d="M580.1,336.2c3,0,4.7,2.2,4.7,5.6c0,0.4,0,0.8-0.1,1.1h-8c0.2,2.5,1.6,4.2,3.9,4.2c1.1,0,2.1-0.3,2.9-1
		l0.7,1.3c-1,0.7-2.3,1.2-3.9,1.2c-3.1,0-5.6-2.3-5.6-6.2C574.8,338.6,577.4,336.2,580.1,336.2z M583,341.5c0-2.4-1-3.7-2.9-3.7
		c-1.6,0-3.1,1.4-3.4,3.7H583z"/>
	<path class="st2" d="M593.5,332.7c-0.4-0.2-0.9-0.3-1.3-0.3c-1.1,0-1.6,0.8-1.6,2.3v1.9h2.5v1.6h-2.5v10.1h-2v-10.1H587v-1.5
		l1.6-0.1v-1.9c0-2.4,1.1-3.9,3.5-3.9c0.7,0,1.5,0.2,2,0.3L593.5,332.7z"/>
	<path class="st2" d="M601.9,340.8c0-1.5-0.5-2.9-2.4-2.9c-1.4,0-2.6,0.6-3.6,1.3l-0.8-1.4c1.1-0.7,2.8-1.6,4.6-1.6
		c2.9,0,4.1,1.9,4.1,4.9v7.2h-1.6l-0.2-1.4h-0.1c-1.1,1-2.4,1.7-3.9,1.7c-2,0-3.5-1.2-3.5-3.4C594.6,342.8,596.9,341.5,601.9,340.8z
		 M598.7,347c1.1,0,2.1-0.5,3.2-1.6v-3.3c-4,0.5-5.3,1.5-5.3,2.9C596.6,346.5,597.5,347,598.7,347z"/>
	<path class="st2" d="M613,336.2c1.6,0,2.7,0.7,3.5,1.4l-1,1.3c-0.7-0.6-1.5-1-2.3-1c-2.2,0-3.7,1.8-3.7,4.6c0,2.7,1.5,4.5,3.6,4.5
		c1.1,0,2.1-0.5,2.8-1.2l0.9,1.3c-1,1-2.4,1.6-3.8,1.6c-3.1,0-5.6-2.3-5.6-6.2C607.3,338.5,610,336.2,613,336.2z"/>
	<path class="st2" d="M623.6,336.2c3,0,4.7,2.2,4.7,5.6c0,0.4,0,0.8-0.1,1.1h-8c0.2,2.5,1.6,4.2,3.9,4.2c1.1,0,2.1-0.3,2.9-1
		l0.7,1.3c-1,0.7-2.3,1.2-3.9,1.2c-3.1,0-5.6-2.3-5.6-6.2C618.3,338.6,620.9,336.2,623.6,336.2z M626.6,341.5c0-2.4-1-3.7-2.9-3.7
		c-1.6,0-3.1,1.4-3.4,3.7H626.6z"/>
	<path class="st2" d="M631.3,345.6c0.8,0,1.5,0.6,1.5,1.6c0,0.9-0.7,1.5-1.5,1.5c-0.8,0-1.5-0.6-1.5-1.5
		C629.9,346.2,630.5,345.6,631.3,345.6z"/>
</g>
<path class="st65" d="M350.2,66.6c-4.7,0-9.1,2.3-14.1,7.1v29.7c4.5,3.9,9.1,5.3,12.8,5.3c8.5,0,14.9-7.5,14.9-21.9
	C364,74.2,359.9,66.6,350.2,66.6z"/>
<path class="st65" d="M139,101.4c0,5.7,3.8,8.2,9.1,8.2c5.2,0,9.2-2.6,13.9-7V88.2C144.7,90.5,139,95,139,101.4z"/>
<path class="st65" d="M68.8,47h-6.5v60.6h6.5c17.2,0,27.1-9.7,27.1-30.7C95.9,56,86,47,68.8,47z"/>
<path class="st65" d="M476.3,101.4c0,5.7,3.8,8.2,9.1,8.2c5.2,0,9.2-2.6,13.9-7V88.2C482,90.5,476.3,95,476.3,101.4z"/>
<path class="st65" d="M420.7,66.6c-9.4,0-14.9,8.4-14.9,21.3c0,12.7,5.6,21.2,14.9,21.2c9.4,0,15.1-8.5,15.1-21.2
	C435.8,75,430.1,66.6,420.7,66.6z"/>
<path class="st65" d="M588.7,87.7c0,13.8,5.2,21.2,14.4,21.2c4.9,0,9.1-2.2,13.4-7.1V72c-4.4-3.9-8.7-5.3-13-5.3
	C595.3,66.6,588.7,74.4,588.7,87.7z"/>
<polygon class="st66" points="616.5,28 616.5,51 616.8,56.6 631.5,56.6 631.5,28 "/>
<path class="st65" d="M350.2,66.6c-4.7,0-9.1,2.3-14.1,7.1v29.7c4.5,3.9,9.1,5.3,12.8,5.3c8.5,0,14.9-7.5,14.9-21.9
	C364,74.2,359.9,66.6,350.2,66.6z"/>
<path class="st2" d="M69.8,34.7H47.2v85.1h23.4c25.2,0,40.7-14.7,40.7-42.9C111.4,48.8,95.9,34.7,69.8,34.7z"/>
<path class="st2" d="M153.1,54.3c-10.1,0-19.1,3.9-26.1,8.3l5.5,10c5.6-3.4,11.5-6.2,18-6.2c8.6,0,11.4,5.7,11.5,12.5
	c-26.1,2.9-37.6,10.1-37.6,23.7c0,11.2,7.8,18.7,19,18.7c7.5,0,14.1-3.7,19.8-8.6h0.4l1.1,7h12.2V81.9
	C176.9,64,169.1,54.3,153.1,54.3z"/>
<path class="st2" d="M219.4,82.2c-6.9-2.5-13.3-4.5-13.3-9.5c0-4,2.9-7,9.4-7c5,0,9.6,2.2,14.1,5.5l6.9-9.1
	c-5.2-4-12.3-7.6-21.2-7.6c-14.3,0-23.2,7.9-23.2,19.1c0,10.7,9.5,15.4,18,18.6c6.8,2.6,13.6,4.9,13.6,10.2c0,4.4-3.2,7.6-10.1,7.6
	c-6.5,0-12-2.7-17.7-7.1l-7,9.6c6.2,5.1,15.4,8.8,24.2,8.8c16.1,0,24.8-8.8,24.8-19.8C237.8,89.5,228.2,85.4,219.4,82.2z"/>
<path class="st2" d="M420.7,54.3c-15.9,0-30.3,12.2-30.3,33.6c0,21.2,14.4,33.4,30.3,33.4c16,0,30.4-12.2,30.4-33.4
	C451.2,66.6,436.7,54.3,420.7,54.3z"/>
<path class="st2" d="M490.5,54.3c-10.1,0-19.1,3.9-26.1,8.3l5.5,10c5.6-3.4,11.5-6.2,18-6.2c8.6,0,11.4,5.7,11.5,12.5
	c-26.2,2.9-37.6,10.1-37.6,23.7c0,11.2,7.8,18.7,19,18.7c7.5,0,14.1-3.7,19.8-8.6h0.4l1.1,7h12.2V81.9
	C514.2,64,506.4,54.3,490.5,54.3z"/>
<path class="st2" d="M543.8,67.2h-0.5l-1-11.3h-12.3v63.8h14.9v-39c3.9-9.6,10-13.1,15.1-13.1c2.8,0,4.4,0.3,6.7,1l2.6-13
	c-1.9-1-4.1-1.3-7.3-1.3C555.1,54.3,548.3,58.8,543.8,67.2z"/>
<path class="st2" d="M617,61.4c-4.9-4.2-9.5-7-16.7-7c-13.9,0-27.1,12.7-27.1,33.6c0,21.1,10.2,33.4,26.3,33.4
	c6.9,0,13.4-3.7,18-8.4h0.5l1,6.9h12.3V56.6h-14.7L617,61.4z"/>
<path class="st2" d="M286.1,54.3c-8.7,0-15.1,4.5-20.4,9.6l0.3-7.4h-14.7v63.1h14.9V75.1c5.3-5.2,8.9-7.9,14.6-7.9
	c7,0,10,3.9,10,14.4v38.1h14.9V79.7C305.7,63.5,299.8,54.3,286.1,54.3z"/>
<path class="st2" d="M354.2,54.3c-6.5,0-13.1,3.2-18.5,7.9l0.2-5.6h-14.7v63.1H333l1.3-6.5h0.4c5.3,5.2,11.5,8.1,17.4,8.1
	c14.1,0,27.3-12.6,27.3-34.6C379.5,67.1,370.3,54.3,354.2,54.3z"/>
<polygon class="st66" points="336.2,51.6 336.2,28 321.2,28 321.2,56.6 336,56.6 "/>
<polygon class="st66" points="266.2,51.6 266.2,28 251.2,28 251.2,56.6 265.9,56.6 "/>
<text transform="matrix(1 0 0 1 48.9303 248.3555)" class="st2 st67 st68">SAMARITAN DESIGN</text>
<line class="st69" x1="420.8" y1="49.6" x2="420.8" y2="126.5"/>
<line class="st70" x1="29.9" y1="27.9" x2="654.3" y2="27.9"/>
<path class="st71" d="M68.8,107.5h-6.5V47h6.5c17.2,0,27.1,9.1,27.1,29.9C95.9,97.8,86,107.5,68.8,107.5z"/>
<path class="st71" d="M161.9,102.5c-4.7,4.4-8.7,7-13.9,7c-5.3,0-9.1-2.4-9.1-8.2c0-6.4,5.7-10.9,23-13.1V102.5z"/>
<path class="st71" d="M420.7,109.1c-9.4,0-14.9-8.5-14.9-21.2c0-12.8,5.6-21.3,14.9-21.3c9.4,0,15.1,8.4,15.1,21.3
	C435.8,100.6,430.1,109.1,420.7,109.1z"/>
<path class="st71" d="M499.3,102.5c-4.7,4.4-8.7,7-13.9,7c-5.3,0-9.1-2.4-9.1-8.2c0-6.4,5.7-10.9,23-13.1V102.5z"/>
<path class="st71" d="M616.5,101.8c-4.2,4.9-8.4,7.1-13.4,7.1c-9.2,0-14.4-7.4-14.4-21.2c0-13.4,6.6-21.1,14.8-21.1
	c4.2,0,8.6,1.5,13,5.3L616.5,101.8L616.5,101.8z"/>
<path class="st71" d="M349,109c-3.7,0-8.3-1.4-12.8-5.3V73.8c4.9-4.8,9.4-7.1,14.1-7.1c9.6,0,13.8,7.5,13.8,20.3
	C364,101.4,357.5,109,349,109z"/>
</svg>
